<?xml version="1.0" encoding="UTF-8"?>
<svg xmlns="http://www.w3.org/2000/svg" xmlns:xlink="http://www.w3.org/1999/xlink" width="744px" height="602px" viewBox="0 0 744 602" version="1.1">
<g id="surface1">
<path style=" stroke:none;fill-rule:nonzero;fill:rgb(18.431373%,18.039216%,25.490198%);fill-opacity:1;" d="M 197.445312 138.472656 L 108.949219 126.464844 L 126.859375 34.148438 L 221.921875 53.257812 Z M 197.445312 138.472656 "/>
<path style=" stroke:none;fill-rule:nonzero;fill:rgb(24.705882%,23.921569%,33.725491%);fill-opacity:1;" d="M 112.378906 537.847656 L 112.378906 157.011719 C 112.378906 150.109375 117.894531 144.496094 124.671875 144.496094 L 731.589844 144.496094 C 738.371094 144.496094 743.886719 150.109375 743.886719 157.011719 L 743.886719 537.847656 C 743.886719 544.75 738.371094 550.363281 731.589844 550.363281 L 124.671875 550.363281 C 117.894531 550.363281 112.378906 544.75 112.378906 537.847656 Z M 741.660156 157.011719 C 741.660156 151.351562 737.152344 146.765625 731.589844 146.765625 L 124.671875 146.765625 C 119.113281 146.765625 114.605469 151.351562 114.605469 157.011719 L 114.605469 537.847656 C 114.605469 543.507812 119.113281 548.097656 124.671875 548.097656 L 556.066406 548.097656 C 658.566406 548.097656 741.660156 463.515625 741.660156 359.183594 Z M 741.660156 157.011719 "/>
<path style=" stroke:none;fill-rule:nonzero;fill:rgb(24.705882%,23.921569%,33.725491%);fill-opacity:1;" d="M 682.4375 201.519531 L 673.273438 197.097656 C 677.03125 202.4375 680.269531 210.78125 682.003906 217.417969 C 684.941406 211.234375 689.675781 203.667969 694.363281 199.152344 L 684.675781 201.6875 C 690.644531 171.90625 713.097656 150.527344 738.808594 150.527344 L 739.171875 149.453125 C 712.316406 149.453125 688.535156 170.535156 682.4375 201.519531 Z M 682.4375 201.519531 "/>
<path style=" stroke:none;fill-rule:nonzero;fill:rgb(47.058824%,100%,38.82353%);fill-opacity:1;" d="M 724.628906 246.894531 L 666.710938 246.894531 C 664.253906 246.894531 662.257812 244.859375 662.257812 242.359375 C 662.257812 239.859375 664.253906 237.824219 666.710938 237.824219 L 724.628906 237.824219 C 727.082031 237.824219 729.082031 239.859375 729.082031 242.359375 C 729.082031 244.859375 727.082031 246.894531 724.628906 246.894531 Z M 724.628906 246.894531 "/>
<path style=" stroke:none;fill-rule:nonzero;fill:rgb(24.705882%,23.921569%,33.725491%);fill-opacity:1;" d="M 552.671875 280.953125 L 552.671875 401.128906 C 552.671875 411.753906 544.179688 420.398438 533.738281 420.398438 L 415.675781 420.398438 C 405.238281 420.398438 396.742188 411.753906 396.742188 401.128906 L 396.742188 280.953125 C 396.742188 270.328125 405.238281 261.679688 415.675781 261.679688 L 533.738281 261.679688 C 544.179688 261.679688 552.671875 270.328125 552.671875 280.953125 Z M 526.414062 418.132812 C 539.683594 418.132812 550.445312 407.179688 550.445312 393.671875 L 550.445312 340.539062 C 550.445312 298.238281 516.753906 263.949219 475.199219 263.949219 L 415.675781 263.949219 C 406.449219 263.949219 398.972656 271.5625 398.972656 280.953125 L 398.972656 384.359375 C 398.972656 403.011719 413.824219 418.132812 432.148438 418.132812 Z M 526.414062 418.132812 "/>
<path style=" stroke:none;fill-rule:nonzero;fill:rgb(24.705882%,23.921569%,33.725491%);fill-opacity:1;" d="M 490.421875 310.761719 L 452.308594 310.761719 C 451.347656 310.761719 450.566406 309.964844 450.566406 308.988281 C 450.566406 308.007812 451.347656 307.214844 452.308594 307.214844 L 490.421875 307.214844 C 491.382812 307.214844 492.164062 308.007812 492.164062 308.988281 C 492.164062 309.964844 491.382812 310.761719 490.421875 310.761719 Z M 490.421875 310.761719 "/>
<path style=" stroke:none;fill-rule:nonzero;fill:rgb(24.705882%,23.921569%,33.725491%);fill-opacity:1;" d="M 490.421875 348.585938 L 452.308594 348.585938 C 451.347656 348.585938 450.566406 347.789062 450.566406 346.8125 C 450.566406 345.835938 451.347656 345.039062 452.308594 345.039062 L 490.421875 345.039062 C 491.382812 345.039062 492.164062 345.835938 492.164062 346.8125 C 492.164062 347.789062 491.382812 348.585938 490.421875 348.585938 Z M 490.421875 348.585938 "/>
<path style=" stroke:none;fill-rule:nonzero;fill:rgb(24.705882%,23.921569%,33.725491%);fill-opacity:1;" d="M 471.488281 400.738281 L 433.375 400.738281 C 432.414062 400.738281 431.632812 399.941406 431.632812 398.960938 C 431.632812 397.984375 432.414062 397.1875 433.375 397.1875 L 471.488281 397.1875 C 472.449219 397.1875 473.230469 397.984375 473.230469 398.960938 C 473.230469 399.941406 472.449219 400.738281 471.488281 400.738281 Z M 471.488281 400.738281 "/>
<path style=" stroke:none;fill-rule:nonzero;fill:rgb(24.705882%,23.921569%,33.725491%);fill-opacity:1;" d="M 510.875 329.6875 L 431.855469 329.6875 C 430.894531 329.6875 430.113281 328.890625 430.113281 327.914062 C 430.113281 326.933594 430.894531 326.136719 431.855469 326.136719 L 510.875 326.136719 C 511.835938 326.136719 512.617188 326.933594 512.617188 327.914062 C 512.617188 328.890625 511.835938 329.6875 510.875 329.6875 Z M 510.875 329.6875 "/>
<path style=" stroke:none;fill-rule:nonzero;fill:rgb(100%,71.372551%,71.372551%);fill-opacity:1;" d="M 204.511719 343.082031 L 73.894531 343.082031 C 84.839844 318.214844 91.570312 294.53125 81.050781 275.695312 L 204.511719 268.410156 C 198.339844 293.839844 197.585938 318.796875 204.511719 343.082031 Z M 204.511719 343.082031 "/>
<path style=" stroke:none;fill-rule:nonzero;fill:rgb(18.431373%,18.039216%,25.490198%);fill-opacity:1;" d="M 249.496094 550.363281 L 153.472656 550.363281 C 152.777344 550.363281 152.144531 549.960938 151.839844 549.324219 L 151.253906 548.097656 L 138.496094 521.433594 C 137.671875 519.71875 135.144531 520.246094 135.054688 522.152344 L 133.824219 548.097656 L 133.800781 548.613281 C 133.75 549.59375 132.953125 550.363281 131.988281 550.363281 L 37.445312 550.363281 C 36.488281 550.363281 35.699219 549.609375 35.632812 548.636719 C 35.621094 548.457031 35.613281 548.277344 35.601562 548.097656 C 29.5625 453.261719 51.273438 388.980469 64.003906 360.21875 L 64.011719 360.207031 C 69.015625 348.894531 72.644531 343.078125 72.644531 343.078125 L 73.902344 343.066406 L 73.914062 343.066406 L 99.34375 342.613281 L 99.351562 342.613281 L 121.875 342.226562 L 138.890625 341.941406 L 145.71875 341.820312 L 145.730469 341.820312 L 150.007812 341.75 L 171.269531 341.375 L 190.257812 341.046875 L 203.890625 340.820312 L 204.269531 340.820312 L 206.296875 349.71875 L 206.296875 349.730469 L 206.375 350.128906 L 206.375 350.140625 L 206.722656 351.601562 L 206.730469 351.648438 L 207.421875 354.71875 L 207.421875 354.742188 L 207.46875 354.914062 L 207.46875 354.925781 L 207.632812 355.660156 L 207.644531 355.695312 L 209.25 362.757812 L 211.84375 374.242188 L 215.261719 389.265625 L 219.574219 408.332031 L 221.757812 417.9375 L 224.753906 431.167969 L 251.261719 548.097656 C 251.527344 549.253906 250.664062 550.363281 249.496094 550.363281 Z M 249.496094 550.363281 "/>
<path style=" stroke:none;fill-rule:nonzero;fill:rgb(47.058824%,100%,38.82353%);fill-opacity:1;" d="M 185.652344 121.628906 L 133.671875 119.78125 L 113.125 147.828125 L 102.3125 150.21875 C 86.105469 153.800781 74.988281 169.015625 76.28125 185.847656 L 81.191406 302.445312 L 83.417969 316.050781 L 205.933594 336.457031 L 233.484375 159.996094 L 197.234375 146.742188 Z M 185.652344 121.628906 "/>
<path style=" stroke:none;fill-rule:nonzero;fill:rgb(100%,71.372551%,71.372551%);fill-opacity:1;" d="M 213.34375 69.710938 C 213.34375 43.480469 192.453125 22.21875 166.683594 22.21875 C 140.914062 22.21875 120.023438 43.480469 120.023438 69.710938 C 120.023438 95.941406 140.914062 117.207031 166.683594 117.207031 C 192.453125 117.207031 213.34375 95.941406 213.34375 69.710938 Z M 213.34375 69.710938 "/>
<path style=" stroke:none;fill-rule:nonzero;fill:rgb(24.705882%,23.921569%,33.725491%);fill-opacity:1;" d="M 686.289062 545.957031 L 645.839844 530.652344 C 639.773438 528.359375 636.671875 521.464844 638.925781 515.289062 L 678.664062 406.441406 C 680.917969 400.265625 687.691406 397.109375 693.757812 399.40625 L 734.207031 414.707031 C 740.273438 417.003906 743.375 423.894531 741.121094 430.070312 C 725.917969 474.0625 709.328125 523.5 701.382812 538.917969 C 699.125 545.09375 692.355469 548.25 686.289062 545.957031 Z M 686.289062 545.957031 "/>
<path style=" stroke:none;fill-rule:nonzero;fill:rgb(24.705882%,23.921569%,33.725491%);fill-opacity:1;" d="M 731.15625 459.121094 C 730.902344 459.023438 730.613281 459.15625 730.519531 459.417969 L 724.984375 474.582031 C 724.886719 474.84375 725.019531 475.132812 725.277344 475.230469 C 725.53125 475.328125 725.820312 475.195312 725.914062 474.933594 L 731.449219 459.769531 C 731.546875 459.507812 731.414062 459.21875 731.15625 459.121094 Z M 731.15625 459.121094 "/>
<path style=" stroke:none;fill-rule:nonzero;fill:rgb(47.058824%,100%,38.82353%);fill-opacity:1;" d="M 740.074219 429.671875 L 700.335938 538.519531 C 698.371094 543.894531 692.65625 546.738281 687.335938 545.113281 L 687.332031 545.109375 C 687.253906 545.085938 687.175781 545.0625 687.097656 545.035156 C 686.957031 544.988281 686.816406 544.941406 686.679688 544.886719 C 686.679688 544.886719 686.179688 544.65625 685.269531 544.230469 C 684.351562 543.800781 683.015625 543.175781 681.351562 542.386719 C 680.851562 542.152344 680.324219 541.902344 679.769531 541.636719 C 678.664062 541.113281 677.449219 540.535156 676.148438 539.90625 C 675.632812 539.660156 675.09375 539.402344 674.546875 539.136719 C 671.75 537.789062 668.621094 536.269531 665.328125 534.640625 C 664.773438 534.367188 664.210938 534.089844 663.644531 533.808594 C 663.5 533.734375 639.507812 516.953125 639.972656 515.683594 L 679.710938 406.839844 C 681.757812 401.242188 687.871094 398.390625 693.367188 400.472656 L 699.3125 402.71875 C 700.261719 403.078125 700.75 404.121094 700.480469 405.117188 C 700.464844 405.183594 700.449219 405.25 700.4375 405.316406 C 700.253906 406.351562 700.882812 407.355469 701.847656 407.722656 L 722.742188 415.628906 C 723.710938 415.992188 724.832031 415.648438 725.355469 414.746094 C 725.390625 414.683594 725.421875 414.625 725.453125 414.5625 C 725.886719 413.628906 726.925781 413.164062 727.875 413.523438 L 733.816406 415.773438 C 739.316406 417.851562 742.117188 424.074219 740.074219 429.671875 Z M 740.074219 429.671875 "/>
<path style=" stroke:none;fill-rule:nonzero;fill:rgb(24.705882%,23.921569%,33.725491%);fill-opacity:1;" d="M 672.054688 423.820312 C 671.796875 423.722656 671.511719 423.859375 671.417969 424.117188 L 670.03125 427.910156 C 669.9375 428.171875 670.070312 428.460938 670.324219 428.558594 C 670.582031 428.65625 670.867188 428.523438 670.964844 428.261719 L 672.347656 424.472656 C 672.441406 424.210938 672.3125 423.917969 672.054688 423.820312 Z M 672.054688 423.820312 "/>
<path style=" stroke:none;fill-rule:nonzero;fill:rgb(24.705882%,23.921569%,33.725491%);fill-opacity:1;" d="M 667.902344 435.191406 C 667.648438 435.09375 667.359375 435.230469 667.265625 435.492188 L 664.582031 442.835938 C 664.488281 443.097656 664.621094 443.386719 664.875 443.484375 C 665.132812 443.582031 665.417969 443.449219 665.515625 443.1875 L 668.195312 435.84375 C 668.292969 435.582031 668.160156 435.289062 667.902344 435.191406 Z M 667.902344 435.191406 "/>
<path style=" stroke:none;fill-rule:nonzero;fill:rgb(24.705882%,23.921569%,33.725491%);fill-opacity:1;" d="M 664.097656 445.617188 C 663.839844 445.519531 663.554688 445.652344 663.460938 445.914062 L 660.777344 453.257812 C 660.683594 453.519531 660.8125 453.8125 661.070312 453.910156 C 661.328125 454.003906 661.613281 453.871094 661.707031 453.609375 L 664.390625 446.265625 C 664.484375 446.003906 664.355469 445.714844 664.097656 445.617188 Z M 664.097656 445.617188 "/>
<path style=" stroke:none;fill-rule:nonzero;fill:rgb(90.196079%,90.196079%,90.196079%);fill-opacity:1;" d="M 689.644531 400.949219 L 698.542969 404.316406 L 698.234375 405.445312 L 689.214844 402.136719 L 689.523438 401.007812 Z M 689.644531 400.949219 "/>
<path style=" stroke:none;fill-rule:nonzero;fill:rgb(90.196079%,90.196079%,90.196079%);fill-opacity:1;" d="M 729.644531 415.976562 C 729.644531 415.417969 729.199219 414.964844 728.652344 414.964844 C 728.105469 414.964844 727.660156 415.417969 727.660156 415.976562 C 727.660156 416.535156 728.105469 416.988281 728.652344 416.988281 C 729.199219 416.988281 729.644531 416.535156 729.644531 415.976562 Z M 729.644531 415.976562 "/>
<path style=" stroke:none;fill-rule:nonzero;fill:rgb(90.196079%,90.196079%,90.196079%);fill-opacity:1;" d="M 732.207031 416.945312 C 732.207031 416.386719 731.761719 415.933594 731.210938 415.933594 C 730.664062 415.933594 730.21875 416.386719 730.21875 416.945312 C 730.21875 417.503906 730.664062 417.957031 731.210938 417.957031 C 731.761719 417.957031 732.207031 417.503906 732.207031 416.945312 Z M 732.207031 416.945312 "/>
<path style=" stroke:none;fill-rule:nonzero;fill:rgb(90.196079%,90.196079%,90.196079%);fill-opacity:1;" d="M 734.765625 417.914062 C 734.765625 417.355469 734.320312 416.902344 733.773438 416.902344 C 733.222656 416.902344 732.78125 417.355469 732.78125 417.914062 C 732.78125 418.472656 733.222656 418.925781 733.773438 418.925781 C 734.320312 418.925781 734.765625 418.472656 734.765625 417.914062 Z M 734.765625 417.914062 "/>
<path style=" stroke:none;fill-rule:nonzero;fill:rgb(100%,100%,100%);fill-opacity:1;" d="M 587.109375 202.246094 L 552.179688 202.246094 C 547.6875 202.246094 544.027344 198.523438 544.027344 193.949219 L 544.027344 153.859375 C 544.027344 149.285156 547.6875 145.5625 552.179688 145.5625 L 587.109375 145.5625 C 591.605469 145.5625 595.261719 149.285156 595.261719 153.859375 L 595.261719 193.949219 C 595.261719 198.523438 591.605469 202.246094 587.109375 202.246094 Z M 587.109375 202.246094 "/>
<path style=" stroke:none;fill-rule:nonzero;fill:rgb(24.705882%,23.921569%,33.725491%);fill-opacity:1;" d="M 587.109375 202.246094 L 552.179688 202.246094 C 547.6875 202.246094 544.027344 198.523438 544.027344 193.949219 C 542.273438 179.1875 541.789062 165.4375 544.027344 153.859375 C 544.027344 149.285156 547.6875 145.5625 552.179688 145.5625 L 587.109375 145.5625 C 591.605469 145.5625 595.261719 149.285156 595.261719 153.859375 L 595.261719 193.949219 C 595.261719 198.523438 591.605469 202.246094 587.109375 202.246094 Z M 552.179688 146.695312 C 548.300781 146.695312 545.144531 149.910156 545.144531 153.859375 L 545.144531 193.949219 C 545.144531 197.898438 548.300781 201.113281 552.179688 201.113281 L 587.109375 201.113281 C 590.992188 201.113281 594.148438 197.898438 594.148438 193.949219 L 594.148438 153.859375 C 594.148438 149.910156 590.992188 146.695312 587.109375 146.695312 Z M 552.179688 146.695312 "/>
<path style=" stroke:none;fill-rule:nonzero;fill:rgb(47.058824%,100%,38.82353%);fill-opacity:1;" d="M 583.582031 169.9375 L 554.800781 169.9375 C 553.578125 169.9375 552.585938 168.925781 552.585938 167.683594 C 552.585938 166.441406 553.578125 165.429688 554.800781 165.429688 L 583.582031 165.429688 C 584.800781 165.429688 585.796875 166.441406 585.796875 167.683594 C 585.796875 168.925781 584.800781 169.9375 583.582031 169.9375 Z M 583.582031 169.9375 "/>
<path style=" stroke:none;fill-rule:nonzero;fill:rgb(47.058824%,100%,38.82353%);fill-opacity:1;" d="M 583.582031 182.40625 L 554.800781 182.40625 C 553.578125 182.40625 552.585938 181.394531 552.585938 180.152344 C 552.585938 178.910156 553.578125 177.898438 554.800781 177.898438 L 583.582031 177.898438 C 584.800781 177.898438 585.796875 178.910156 585.796875 180.152344 C 585.796875 181.394531 584.800781 182.40625 583.582031 182.40625 Z M 583.582031 182.40625 "/>
<path style=" stroke:none;fill-rule:nonzero;fill:rgb(47.058824%,100%,38.82353%);fill-opacity:1;" d="M 583.582031 157.464844 L 554.800781 157.464844 C 553.578125 157.464844 552.585938 156.453125 552.585938 155.210938 C 552.585938 153.96875 553.578125 152.957031 554.800781 152.957031 L 583.582031 152.957031 C 584.800781 152.957031 585.796875 153.96875 585.796875 155.210938 C 585.796875 156.453125 584.800781 157.464844 583.582031 157.464844 Z M 583.582031 157.464844 "/>
<path style=" stroke:none;fill-rule:nonzero;fill:rgb(100%,71.372551%,71.372551%);fill-opacity:1;" d="M 150.820312 131.992188 C 153.375 136.898438 156.808594 140.808594 160.449219 143.339844 L 181.90625 191.644531 L 204.1875 180.578125 L 180.023438 132.769531 C 180.003906 128.285156 178.75 123.195312 176.191406 118.292969 C 170.351562 107.082031 159.9375 101.0625 152.929688 104.847656 C 145.921875 108.632812 144.976562 120.785156 150.820312 131.992188 Z M 150.820312 131.992188 "/>
<path style=" stroke:none;fill-rule:nonzero;fill:rgb(47.058824%,100%,38.82353%);fill-opacity:1;" d="M 199.132812 162.4375 C 199.132812 162.4375 231.808594 145.007812 241.949219 163.308594 C 250.601562 178.925781 256.851562 257.070312 258.5 279.671875 C 258.789062 283.640625 257.773438 287.582031 255.609375 290.894531 C 249.199219 300.707031 235.386719 301.640625 227.757812 292.78125 L 161.535156 160.0625 L 192.945312 144.867188 L 200.628906 163.804688 Z M 199.132812 162.4375 "/>
<path style=" stroke:none;fill-rule:nonzero;fill:rgb(24.705882%,23.921569%,33.725491%);fill-opacity:1;" d="M 269 349.410156 C 269.714844 348.375 270.140625 347.113281 270.140625 345.753906 L 270.140625 229.441406 C 270.140625 225.929688 267.34375 223.085938 263.894531 223.085938 L 91.171875 223.085938 C 87.722656 223.085938 84.929688 225.929688 84.929688 229.441406 L 84.929688 345.753906 C 84.929688 347.113281 85.351562 348.375 86.066406 349.410156 L 64.496094 349.410156 L 64.496094 355.507812 C 139.496094 359.777344 214.855469 359.777344 290.570312 355.507812 L 290.570312 349.410156 Z M 269 349.410156 "/>
<path style=" stroke:none;fill-rule:nonzero;fill:rgb(100%,100%,100%);fill-opacity:1;" d="M 454.570312 602.445312 L 419.640625 602.445312 C 415.148438 602.445312 411.488281 598.722656 411.488281 594.148438 L 411.488281 554.058594 C 411.488281 549.484375 415.148438 545.761719 419.640625 545.761719 L 454.570312 545.761719 C 459.066406 545.761719 462.722656 549.484375 462.722656 554.058594 L 462.722656 594.148438 C 462.722656 598.722656 459.066406 602.445312 454.570312 602.445312 Z M 454.570312 602.445312 "/>
<path style=" stroke:none;fill-rule:nonzero;fill:rgb(24.705882%,23.921569%,33.725491%);fill-opacity:1;" d="M 454.570312 602.445312 L 419.640625 602.445312 C 415.148438 602.445312 411.488281 598.722656 411.488281 594.148438 C 409.734375 579.386719 409.25 565.636719 411.488281 554.058594 C 411.488281 549.484375 415.148438 545.761719 419.640625 545.761719 L 454.570312 545.761719 C 459.066406 545.761719 462.722656 549.484375 462.722656 554.058594 L 462.722656 594.148438 C 462.722656 598.722656 459.066406 602.445312 454.570312 602.445312 Z M 419.640625 546.894531 C 415.761719 546.894531 412.605469 550.109375 412.605469 554.058594 L 412.605469 594.148438 C 412.605469 598.097656 415.761719 601.3125 419.640625 601.3125 L 454.570312 601.3125 C 458.453125 601.3125 461.609375 598.097656 461.609375 594.148438 L 461.609375 554.058594 C 461.609375 550.109375 458.453125 546.894531 454.570312 546.894531 Z M 419.640625 546.894531 "/>
<path style=" stroke:none;fill-rule:nonzero;fill:rgb(47.058824%,100%,38.82353%);fill-opacity:1;" d="M 451.042969 570.136719 L 422.261719 570.136719 C 421.039062 570.136719 420.046875 569.125 420.046875 567.882812 C 420.046875 566.640625 421.039062 565.628906 422.261719 565.628906 L 451.042969 565.628906 C 452.261719 565.628906 453.257812 566.640625 453.257812 567.882812 C 453.257812 569.125 452.261719 570.136719 451.042969 570.136719 Z M 451.042969 570.136719 "/>
<path style=" stroke:none;fill-rule:nonzero;fill:rgb(47.058824%,100%,38.82353%);fill-opacity:1;" d="M 451.042969 582.605469 L 422.261719 582.605469 C 421.039062 582.605469 420.046875 581.59375 420.046875 580.351562 C 420.046875 579.109375 421.039062 578.097656 422.261719 578.097656 L 451.042969 578.097656 C 452.261719 578.097656 453.257812 579.109375 453.257812 580.351562 C 453.257812 581.59375 452.261719 582.605469 451.042969 582.605469 Z M 451.042969 582.605469 "/>
<path style=" stroke:none;fill-rule:nonzero;fill:rgb(47.058824%,100%,38.82353%);fill-opacity:1;" d="M 451.042969 557.664062 L 422.261719 557.664062 C 421.039062 557.664062 420.046875 556.652344 420.046875 555.410156 C 420.046875 554.167969 421.039062 553.15625 422.261719 553.15625 L 451.042969 553.15625 C 452.261719 553.15625 453.257812 554.167969 453.257812 555.410156 C 453.257812 556.652344 452.261719 557.664062 451.042969 557.664062 Z M 451.042969 557.664062 "/>
<path style=" stroke:none;fill-rule:nonzero;fill:rgb(100%,71.372551%,71.372551%);fill-opacity:1;" d="M 149.84375 334.023438 C 144.390625 334.050781 139.390625 335.332031 135.5 337.441406 L 83.507812 334.378906 L 82.800781 359.605469 L 135.617188 359.996094 C 139.53125 362.0625 144.542969 363.289062 149.996094 363.261719 C 162.460938 363.191406 172.53125 356.59375 172.488281 348.519531 C 172.449219 340.445312 162.308594 333.957031 149.84375 334.023438 Z M 149.84375 334.023438 "/>
<path style=" stroke:none;fill-rule:nonzero;fill:rgb(47.058824%,100%,38.82353%);fill-opacity:1;" d="M 99.894531 150.304688 C 99.894531 150.304688 55.695312 145.292969 44.4375 173.203125 C 35.835938 194.523438 13.492188 277.617188 0.957031 325.191406 C -3.628906 342.582031 8.832031 359.804688 26.511719 360.519531 L 104.582031 363.664062 L 109.097656 328.511719 L 53.347656 319.449219 L 84.535156 224.21875 Z M 99.894531 150.304688 "/>
<path style=" stroke:none;fill-rule:nonzero;fill:rgb(18.431373%,18.039216%,25.490198%);fill-opacity:1;" d="M 213.355469 33.046875 C 215.597656 21.480469 201.828125 16.988281 191.515625 11.621094 L 182.761719 4.082031 C 173.582031 -0.695312 162.847656 -1.308594 153.203125 2.390625 L 123.09375 12.59375 C 109.429688 17.832031 104.660156 30.308594 96.785156 42.824219 L 83.585938 60.761719 C 75.832031 73.085938 78.148438 92.324219 79.96875 106.839844 L 80.730469 112.925781 L 73.476562 130.578125 L 129.214844 140.707031 L 140.449219 113.460938 L 133.4375 100.515625 C 130.953125 95.917969 131.945312 90.179688 135.828125 86.730469 C 149.796875 74.324219 152.472656 53.027344 152.472656 53.027344 L 164.28125 63.628906 C 172.863281 66.90625 180.785156 68.59375 188.058594 68.722656 C 196.054688 68.863281 203.269531 67.117188 209.714844 63.515625 L 210.847656 81.078125 C 207.519531 101.839844 202.546875 106.402344 180.148438 122.285156 L 207.105469 149.648438 L 208.371094 138.503906 C 211.375 112 224.359375 93.554688 227.875 72.230469 C 230.304688 57.484375 224.691406 42.550781 213.355469 33.046875 Z M 213.355469 33.046875 "/>
</g>
</svg>
