<?xml version="1.0" encoding="UTF-8"?>
<svg xmlns="http://www.w3.org/2000/svg" xmlns:xlink="http://www.w3.org/1999/xlink" width="744px" height="602px" viewBox="0 0 744 602" version="1.1">
<g id="surface1">
<path style=" stroke:none;fill-rule:nonzero;fill:rgb(94.117647%,94.117647%,94.117647%);fill-opacity:1;" d="M 397.808594 84.605469 C 422.484375 67.152344 457.222656 60.460938 484.402344 74.078125 C 453.804688 86.796875 428.890625 109.472656 414.066406 138.089844 C 408.394531 149.144531 403.285156 162.007812 391.578125 167.117188 C 384.296875 170.296875 375.699219 169.679688 368.15625 167.113281 C 360.613281 164.546875 353.902344 160.183594 347.285156 155.871094 L 345.300781 155.640625 C 357.078125 128.519531 373.132812 102.054688 397.808594 84.605469 Z M 397.808594 84.605469 "/>
<path style=" stroke:none;fill-rule:nonzero;fill:rgb(100%,100%,100%);fill-opacity:1;" d="M 484.183594 74.65625 C 458.804688 75.417969 434.320312 83.816406 414.210938 98.660156 C 409.824219 101.78125 405.976562 105.546875 402.8125 109.8125 C 399.871094 114.066406 398.171875 119 397.890625 124.09375 C 397.53125 128.839844 397.738281 133.730469 396.179688 138.3125 C 394.496094 143.027344 390.785156 146.832031 385.984375 148.769531 C 380.136719 151.300781 373.6875 151.667969 367.367188 151.816406 C 360.347656 151.984375 353.054688 152.050781 346.675781 155.214844 C 345.902344 155.597656 345.324219 154.425781 346.097656 154.042969 C 357.199219 148.539062 370.175781 152.128906 381.847656 148.855469 C 387.292969 147.324219 392.289062 144.214844 394.476562 139.015625 C 396.386719 134.464844 396.179688 129.417969 396.5 124.609375 C 396.695312 119.636719 398.160156 114.785156 400.765625 110.476562 C 403.695312 106.070312 407.382812 102.167969 411.675781 98.945312 C 421.222656 91.539062 431.925781 85.613281 443.390625 81.390625 C 456.453125 76.503906 470.289062 73.789062 484.304688 73.367188 C 485.171875 73.339844 485.046875 74.628906 484.183594 74.65625 Z M 484.183594 74.65625 "/>
<path style=" stroke:none;fill-rule:nonzero;fill:rgb(100%,100%,100%);fill-opacity:1;" d="M 420.394531 93.515625 C 415.96875 86.144531 417.769531 76.789062 424.652344 71.417969 C 425.328125 70.890625 426.210938 71.875 425.53125 72.398438 C 419.113281 77.390625 417.449219 86.121094 421.617188 92.960938 C 422.054688 93.683594 420.828125 94.230469 420.394531 93.515625 Z M 420.394531 93.515625 "/>
<path style=" stroke:none;fill-rule:nonzero;fill:rgb(100%,100%,100%);fill-opacity:1;" d="M 397.742188 121.664062 C 406.207031 123.929688 415.253906 123.054688 423.074219 119.21875 C 423.851562 118.839844 424.425781 120.011719 423.652344 120.390625 C 415.503906 124.367188 406.089844 125.257812 397.289062 122.882812 C 396.449219 122.65625 396.910156 121.4375 397.742188 121.664062 Z M 397.742188 121.664062 "/>
<path style=" stroke:none;fill-rule:nonzero;fill:rgb(100%,100%,100%);fill-opacity:1;" d="M 456.386719 78.21875 C 457.460938 81.359375 460.113281 83.773438 463.441406 84.640625 C 464.285156 84.855469 463.824219 86.074219 462.988281 85.859375 C 459.3125 84.882812 456.382812 82.230469 455.164062 78.769531 C 455.019531 78.445312 455.160156 78.070312 455.488281 77.910156 C 455.824219 77.757812 456.226562 77.894531 456.386719 78.21875 Z M 456.386719 78.21875 "/>
<path style=" stroke:none;fill-rule:nonzero;fill:rgb(94.117647%,94.117647%,94.117647%);fill-opacity:1;" d="M 505.957031 171.359375 C 505.425781 171.238281 504.894531 171.117188 504.359375 171.003906 C 497.230469 169.414062 489.980469 168.378906 482.679688 167.910156 C 482.117188 167.867188 481.542969 167.828125 480.980469 167.800781 C 463.375 166.851562 445.742188 169.042969 428.972656 174.261719 C 422.304688 176.34375 415.808594 178.90625 409.542969 181.933594 C 400.894531 186.113281 391.859375 191.300781 382.546875 192.464844 C 381.578125 192.597656 380.597656 192.671875 379.621094 192.6875 L 345.164062 157.976562 C 345.128906 157.859375 345.082031 157.75 345.042969 157.632812 L 343.601562 156.308594 C 343.914062 156.128906 344.242188 155.953125 344.554688 155.773438 C 344.734375 155.671875 344.921875 155.574219 345.101562 155.472656 C 345.226562 155.40625 345.347656 155.339844 345.453125 155.273438 C 345.496094 155.25 345.535156 155.226562 345.570312 155.210938 C 345.675781 155.144531 345.78125 155.09375 345.878906 155.035156 C 347.707031 154.035156 349.542969 153.046875 351.390625 152.070312 C 351.398438 152.0625 351.398438 152.0625 351.414062 152.0625 C 365.511719 144.648438 380.378906 138.292969 395.78125 134.300781 C 396.242188 134.183594 396.714844 134.054688 397.195312 133.949219 C 404.148438 132.1875 411.238281 130.972656 418.398438 130.316406 C 422.320312 129.96875 426.257812 129.8125 430.195312 129.847656 C 440.371094 129.953125 450.464844 131.59375 460.105469 134.703125 C 479.328125 140.90625 496.265625 152.925781 505.28125 170.046875 C 505.511719 170.484375 505.734375 170.914062 505.957031 171.359375 Z M 505.957031 171.359375 "/>
<path style=" stroke:none;fill-rule:nonzero;fill:rgb(100%,100%,100%);fill-opacity:1;" d="M 505.417969 171.699219 C 484.675781 157.679688 459.84375 150.269531 434.453125 150.527344 C 428.988281 150.492188 423.546875 151.28125 418.335938 152.863281 C 413.3125 154.5625 408.859375 157.523438 405.429688 161.429688 C 402.160156 165.011719 399.246094 169.035156 395.125 171.796875 C 390.808594 174.589844 385.457031 175.488281 380.40625 174.265625 C 374.144531 172.917969 368.765625 169.492188 363.625 165.96875 C 357.914062 162.054688 352.050781 157.90625 344.96875 156.753906 C 344.109375 156.613281 344.386719 155.34375 345.242188 155.484375 C 357.570312 157.492188 365.671875 167.839844 377.050781 171.949219 C 382.359375 173.867188 388.304688 174.265625 393.320312 171.375 C 397.707031 168.84375 400.714844 164.695312 403.996094 161.039062 C 407.277344 157.183594 411.5 154.152344 416.289062 152.214844 C 421.398438 150.382812 426.796875 149.394531 432.25 149.296875 C 444.53125 148.886719 456.800781 150.324219 468.613281 153.5625 C 482.113281 157.1875 494.867188 162.996094 506.324219 170.738281 C 507.03125 171.21875 506.121094 172.175781 505.417969 171.699219 Z M 505.417969 171.699219 "/>
<path style=" stroke:none;fill-rule:nonzero;fill:rgb(100%,100%,100%);fill-opacity:1;" d="M 442.625 149.984375 C 443.726562 141.546875 451.046875 135.117188 459.921875 134.792969 C 460.789062 134.765625 460.878906 136.058594 460.007812 136.085938 C 451.742188 136.375 444.925781 142.382812 443.949219 150.25 C 443.84375 151.074219 442.523438 150.808594 442.625 149.984375 Z M 442.625 149.984375 "/>
<path style=" stroke:none;fill-rule:nonzero;fill:rgb(100%,100%,100%);fill-opacity:1;" d="M 406.839844 159.402344 C 412.171875 166.089844 419.945312 170.609375 428.601562 172.054688 C 429.460938 172.199219 429.183594 173.464844 428.328125 173.324219 C 419.320312 171.800781 411.242188 167.085938 405.710938 160.113281 C 405.183594 159.449219 406.316406 158.742188 406.839844 159.402344 Z M 406.839844 159.402344 "/>
<path style=" stroke:none;fill-rule:nonzero;fill:rgb(100%,100%,100%);fill-opacity:1;" d="M 480.984375 158.519531 C 479.867188 161.648438 480.464844 165.101562 482.578125 167.714844 C 483.113281 168.375 481.980469 169.078125 481.449219 168.425781 C 479.128906 165.527344 478.457031 161.71875 479.660156 158.257812 C 479.746094 157.914062 480.097656 157.695312 480.457031 157.753906 C 480.824219 157.828125 481.058594 158.171875 480.984375 158.519531 Z M 480.984375 158.519531 "/>
<path style=" stroke:none;fill-rule:nonzero;fill:rgb(24.705882%,23.921569%,33.725491%);fill-opacity:1;" d="M 391.296875 110.566406 L 388.628906 110.566406 L 388.628906 40.535156 C 388.628906 18.148438 369.675781 0 346.292969 0 L 191.324219 0 C 167.941406 0 148.988281 18.148438 148.988281 40.535156 L 148.988281 424.746094 C 148.988281 447.132812 167.941406 465.277344 191.324219 465.277344 L 346.292969 465.277344 C 369.675781 465.277344 388.628906 447.132812 388.628906 424.746094 L 388.628906 160.417969 L 391.296875 160.417969 Z M 391.296875 110.566406 "/>
<path style=" stroke:none;fill-rule:nonzero;fill:rgb(100%,100%,100%);fill-opacity:1;" d="M 348 10.546875 L 327.773438 10.546875 C 329.660156 14.980469 329.121094 20.023438 326.332031 24 C 323.542969 27.972656 318.867188 30.359375 313.867188 30.359375 L 225.085938 30.359375 C 220.085938 30.359375 215.410156 27.972656 212.621094 24 C 209.832031 20.023438 209.289062 14.980469 211.179688 10.546875 L 192.285156 10.546875 C 174.824219 10.546875 160.671875 24.097656 160.671875 40.816406 L 160.671875 424.464844 C 160.671875 441.179688 174.824219 454.734375 192.285156 454.734375 L 348 454.734375 C 365.460938 454.734375 379.617188 441.179688 379.617188 424.464844 L 379.617188 40.816406 C 379.617188 24.097656 365.460938 10.546875 348 10.546875 Z M 348 10.546875 "/>
<path style=" stroke:none;fill-rule:nonzero;fill:rgb(94.117647%,94.117647%,94.117647%);fill-opacity:1;" d="M 273.136719 331.492188 C 249.976562 331.511719 227.761719 322.710938 211.386719 307.035156 C 195.007812 291.355469 185.820312 270.082031 185.839844 247.910156 C 185.808594 216.472656 204.226562 187.6875 233.492188 173.433594 C 254.507812 163.195312 278.953125 161.515625 301.28125 168.777344 C 341.703125 181.964844 366.230469 221.21875 359.25 261.558594 C 352.273438 301.898438 315.839844 331.484375 273.136719 331.492188 Z M 273.136719 167.605469 C 259.894531 167.570312 246.832031 170.570312 235.046875 176.355469 C 206.964844 190.050781 189.277344 217.667969 189.25 247.84375 C 189.222656 278.015625 206.867188 305.660156 234.925781 319.402344 C 262.984375 333.144531 296.71875 330.667969 322.261719 312.988281 C 326.789062 309.859375 330.980469 306.300781 334.761719 302.367188 C 357.378906 278.9375 363.359375 244.910156 349.992188 215.683594 C 336.628906 186.460938 306.457031 167.585938 273.136719 167.605469 Z M 273.136719 167.605469 "/>
<path style=" stroke:none;fill-rule:nonzero;fill:rgb(100%,71.372551%,71.372551%);fill-opacity:1;" d="M 83.980469 173.734375 C 88.832031 174.316406 93.164062 176.925781 95.8125 180.863281 C 98.460938 184.796875 99.152344 189.652344 97.699219 194.121094 L 126.703125 217.253906 L 116.320312 237.554688 L 75.84375 204.339844 C 67.988281 201.445312 63.636719 193.382812 65.714844 185.574219 C 67.789062 177.769531 75.636719 172.679688 83.980469 173.734375 Z M 83.980469 173.734375 "/>
<path style=" stroke:none;fill-rule:nonzero;fill:rgb(89.411765%,89.411765%,89.411765%);fill-opacity:1;" d="M 354.863281 270.199219 C 354.28125 264.210938 351.875 253.449219 349.835938 249.46875 C 343.5625 233.75 303.03125 220.832031 297.589844 219.164062 L 296.210938 204.46875 L 239.894531 198.667969 L 232.75 217.460938 L 212.554688 224.714844 C 209.777344 225.707031 207.609375 227.835938 206.644531 230.515625 L 188.523438 235.53125 L 170.640625 240.480469 L 108.519531 198.570312 L 105.585938 200.40625 L 85.984375 212.652344 L 82.960938 214.542969 L 163.351562 283.988281 L 193.210938 277.277344 L 215.667969 272.21875 L 217.585938 279.671875 L 212.625 305.847656 C 242.328125 334.300781 289.214844 337.890625 323.265625 314.316406 L 336.023438 303.476562 C 344.914062 294.273438 351.476562 283.234375 355.203125 271.214844 Z M 354.863281 270.199219 "/>
<path style=" stroke:none;fill-rule:nonzero;fill:rgb(100%,71.372551%,71.372551%);fill-opacity:1;" d="M 311.492188 137.59375 C 304.453125 117.242188 281.515625 106.203125 260.257812 112.941406 C 239 119.683594 227.472656 141.644531 234.511719 162 C 241.546875 182.351562 264.488281 193.390625 285.746094 186.652344 C 307.003906 179.910156 318.53125 157.949219 311.492188 137.59375 Z M 311.492188 137.59375 "/>
<path style=" stroke:none;fill-rule:nonzero;fill:rgb(18.431373%,18.039216%,25.490198%);fill-opacity:1;" d="M 240.976562 105.539062 C 244.917969 100.148438 250.832031 96.378906 257.546875 94.972656 C 264.183594 93.664062 271.09375 94.878906 276.8125 98.355469 C 283.035156 95.957031 289.742188 94.363281 296.332031 95.171875 C 302.921875 95.984375 309.382812 99.507812 312.429688 105.3125 C 313.074219 106.816406 313.851562 108.265625 314.757812 109.640625 C 317.445312 113.070312 322.4375 113.515625 326.847656 113.679688 C 324.617188 114.925781 322.386719 116.171875 320.15625 117.414062 C 322.378906 118.40625 324.601562 119.398438 326.824219 120.390625 C 323.800781 121.496094 320.773438 122.601562 317.75 123.707031 C 324.789062 129.628906 326.492188 140.171875 323.828125 149.011719 C 321.304688 157.382812 315.519531 164.425781 309.058594 170.457031 C 307.796875 165.957031 309.183594 161.078125 310.109375 156.417969 C 311.082031 151.496094 311.238281 145.738281 307.636719 142.261719 C 305.210938 139.917969 301.648438 139.210938 298.289062 138.640625 C 281.34375 135.773438 264.242188 133.828125 247.066406 132.816406 C 244.769531 132.515625 242.429688 132.742188 240.242188 133.484375 C 236.0625 135.265625 234.382812 140.148438 233.171875 144.476562 C 232.589844 136.875 233.054688 129.234375 234.550781 121.75 C 235.695312 116.023438 237.5 110.289062 240.976562 105.539062 Z M 240.976562 105.539062 "/>
<path style=" stroke:none;fill-rule:nonzero;fill:rgb(0%,74.901962%,65.098041%);fill-opacity:1;" d="M 293.675781 370.871094 L 245.75 370.871094 C 242.28125 370.871094 239.472656 368.179688 239.472656 364.859375 C 239.472656 361.542969 242.28125 358.851562 245.75 358.851562 L 293.675781 358.851562 C 297.140625 358.851562 299.953125 361.542969 299.953125 364.859375 C 299.953125 368.179688 297.140625 370.871094 293.675781 370.871094 Z M 293.675781 370.871094 "/>
<path style=" stroke:none;fill-rule:nonzero;fill:rgb(0%,74.901962%,65.098041%);fill-opacity:1;" d="M 136.410156 49.300781 L 4.585938 49.300781 C 2.054688 49.296875 0.0078125 47.332031 0.0078125 44.910156 C 0.0078125 42.488281 2.054688 40.527344 4.585938 40.523438 L 136.410156 40.523438 C 138.941406 40.523438 140.996094 42.488281 140.996094 44.910156 C 140.996094 47.335938 138.941406 49.300781 136.410156 49.300781 Z M 136.410156 49.300781 "/>
<path style=" stroke:none;fill-rule:nonzero;fill:rgb(0%,74.901962%,65.098041%);fill-opacity:1;" d="M 212.523438 77.339844 L 4.585938 77.339844 C 2.050781 77.339844 0 75.375 0 72.949219 C 0 70.527344 2.050781 68.5625 4.585938 68.5625 L 212.523438 68.5625 C 215.054688 68.5625 217.105469 70.527344 217.105469 72.949219 C 217.105469 75.375 215.054688 77.339844 212.523438 77.339844 Z M 212.523438 77.339844 "/>
<path style=" stroke:none;fill-rule:nonzero;fill:rgb(79.215688%,79.215688%,79.215688%);fill-opacity:1;" d="M 172.5625 103.753906 L 4.585938 103.753906 C 2.050781 103.753906 0 101.789062 0 99.367188 C 0 96.941406 2.050781 94.976562 4.585938 94.976562 L 172.5625 94.976562 C 175.09375 94.976562 177.148438 96.941406 177.148438 99.367188 C 177.148438 101.789062 175.09375 103.753906 172.5625 103.753906 Z M 172.5625 103.753906 "/>
<path style=" stroke:none;fill-rule:nonzero;fill:rgb(79.215688%,79.215688%,79.215688%);fill-opacity:1;" d="M 99.308594 130.074219 L 4.585938 130.074219 C 2.050781 130.074219 0 128.109375 0 125.683594 C 0 123.257812 2.050781 121.292969 4.585938 121.292969 L 99.308594 121.292969 C 101.839844 121.292969 103.890625 123.257812 103.890625 125.683594 C 103.890625 128.109375 101.839844 130.074219 99.308594 130.074219 Z M 99.308594 130.074219 "/>
<path style=" stroke:none;fill-rule:nonzero;fill:rgb(79.215688%,79.215688%,79.215688%);fill-opacity:1;" d="M 151.632812 156.390625 L 4.585938 156.390625 C 2.054688 156.386719 0.0078125 154.421875 0.0078125 152 C 0.0078125 149.578125 2.054688 147.613281 4.585938 147.609375 L 151.632812 147.609375 C 154.164062 147.613281 156.210938 149.578125 156.210938 152 C 156.210938 154.421875 154.164062 156.386719 151.632812 156.390625 Z M 151.632812 156.390625 "/>
<path style=" stroke:none;fill-rule:nonzero;fill:rgb(62.352943%,38.039216%,41.568628%);fill-opacity:1;" d="M 566.054688 585.859375 L 554.242188 585.859375 L 548.621094 542.222656 L 566.058594 542.226562 Z M 566.054688 585.859375 "/>
<path style=" stroke:none;fill-rule:nonzero;fill:rgb(18.431373%,18.039216%,25.490198%);fill-opacity:1;" d="M 570.703125 601.515625 L 525.597656 601.515625 L 525.597656 600.96875 C 525.597656 591.683594 533.457031 584.15625 543.152344 584.15625 L 543.15625 584.15625 L 551.394531 578.171875 L 566.769531 584.15625 L 570.707031 584.15625 Z M 570.703125 601.515625 "/>
<path style=" stroke:none;fill-rule:nonzero;fill:rgb(62.352943%,38.039216%,41.568628%);fill-opacity:1;" d="M 559.171875 380.785156 L 553.960938 319.953125 L 549.867188 297.121094 L 572.789062 292.273438 L 580.394531 323.53125 L 573.765625 382.472656 C 576.5 385.683594 576.925781 390.160156 574.839844 393.785156 C 572.753906 397.414062 568.574219 399.464844 564.28125 398.96875 C 559.988281 398.472656 556.441406 395.527344 555.316406 391.527344 C 554.191406 387.53125 555.71875 383.277344 559.171875 380.785156 Z M 559.171875 380.785156 "/>
<path style=" stroke:none;fill-rule:nonzero;fill:rgb(62.352943%,38.039216%,41.568628%);fill-opacity:1;" d="M 503.296875 585.859375 L 491.480469 585.859375 L 485.859375 542.222656 L 503.296875 542.226562 Z M 503.296875 585.859375 "/>
<path style=" stroke:none;fill-rule:nonzero;fill:rgb(18.431373%,18.039216%,25.490198%);fill-opacity:1;" d="M 484.386719 394.578125 L 479.148438 403.25 C 479.148438 403.25 473.394531 404.757812 475.273438 422.71875 C 477.15625 440.683594 477.238281 547.105469 486.339844 560.203125 L 487.988281 571.449219 L 505.179688 573.019531 L 505.613281 563.042969 L 526.113281 424.414062 C 526.113281 424.414062 538.1875 560.503906 548.175781 563.832031 L 551.785156 575.171875 L 567.539062 575.179688 L 566.609375 561.816406 L 567.625 393.171875 Z M 484.386719 394.578125 "/>
<path style=" stroke:none;fill-rule:nonzero;fill:rgb(89.411765%,89.411765%,89.411765%);fill-opacity:1;" d="M 478.628906 402.589844 L 478.265625 402.5 C 489.078125 363.785156 485.957031 313.652344 478.324219 259.816406 L 478.324219 259.59375 L 505.921875 235.390625 L 529.882812 235.390625 L 553.640625 250.070312 C 568.996094 257.421875 572.488281 272.992188 572.519531 273.148438 L 572.542969 273.257812 L 563.132812 304.707031 L 570.222656 395.65625 L 570.230469 395.761719 L 570.191406 395.859375 C 567.898438 401.429688 561.75 400.636719 554.628906 399.71875 C 547.523438 398.800781 521.339844 407.1875 513.308594 407.1875 C 497.617188 407.1875 479.75 402.867188 478.628906 402.589844 Z M 478.628906 402.589844 "/>
<path style=" stroke:none;fill-rule:nonzero;fill:rgb(89.411765%,89.411765%,89.411765%);fill-opacity:1;" d="M 548.664062 262.328125 L 558.960938 258.039062 L 572.523438 273.960938 L 583.515625 324.980469 L 545.859375 319.519531 Z M 548.664062 262.328125 "/>
<path style=" stroke:none;fill-rule:nonzero;fill:rgb(62.352943%,38.039216%,41.568628%);fill-opacity:1;" d="M 390.324219 356.410156 L 437.386719 315.234375 L 453.742188 298.164062 L 471.769531 312.554688 L 450.605469 337.441406 L 397.863281 368.492188 C 396.886719 372.527344 393.449219 375.589844 389.175781 376.230469 C 384.902344 376.871094 380.652344 374.960938 378.433594 371.40625 C 376.214844 367.851562 376.476562 363.363281 379.09375 360.0625 C 381.707031 356.765625 386.152344 355.320312 390.324219 356.410156 Z M 390.324219 356.410156 "/>
<path style=" stroke:none;fill-rule:nonzero;fill:rgb(89.411765%,89.411765%,89.411765%);fill-opacity:1;" d="M 436.363281 315.683594 L 449.394531 299.476562 C 449.503906 299.246094 460.316406 276.109375 469.691406 266.054688 C 479.304688 255.742188 486.875 261.015625 486.953125 261.074219 L 487.140625 261.207031 L 487.664062 299.292969 L 451.574219 340.582031 Z M 436.363281 315.683594 "/>
<path style=" stroke:none;fill-rule:nonzero;fill:rgb(62.352943%,38.039216%,41.568628%);fill-opacity:1;" d="M 519.042969 188.46875 C 507.070312 186.605469 495.785156 194.394531 493.84375 205.859375 C 491.898438 217.324219 500.03125 228.128906 512.007812 229.988281 C 523.984375 231.851562 535.265625 224.0625 537.210938 212.597656 C 539.152344 201.132812 531.019531 190.328125 519.042969 188.46875 Z M 519.042969 188.46875 "/>
<path style=" stroke:none;fill-rule:nonzero;fill:rgb(18.431373%,18.039216%,25.490198%);fill-opacity:1;" d="M 495.441406 206.105469 C 495.441406 206.105469 495.265625 198.710938 494.289062 195.441406 C 493.3125 192.167969 491.363281 189.363281 492.339844 189.363281 C 493.3125 189.363281 493.800781 187.027344 493.800781 187.027344 C 493.800781 187.027344 494.777344 186.558594 495.265625 187.027344 C 495.753906 187.496094 496.242188 183.753906 496.242188 183.753906 C 496.242188 183.753906 496.730469 182.351562 497.21875 183.289062 C 497.707031 184.222656 497.707031 183.753906 498.195312 182.351562 C 498.683594 180.949219 501.125 180.015625 501.125 180.015625 C 501.125 180.015625 510.398438 180.484375 511.863281 178.613281 C 513.328125 176.746094 529.925781 178.144531 533.34375 180.484375 C 536.761719 182.820312 551.894531 191.234375 549.453125 198.246094 C 547.011719 205.253906 539.984375 221.398438 538.226562 223.015625 C 535.441406 225.574219 533.511719 226.496094 520.339844 229.007812 C 517.761719 229.5 504.601562 221.441406 504.601562 220.039062 C 504.601562 218.636719 506.1875 214.191406 503.636719 213.578125 C 499.78125 212.65625 499.347656 217.324219 498.371094 215.921875 C 497.394531 214.519531 495.441406 206.105469 495.441406 206.105469 Z M 495.441406 206.105469 "/>
<path style=" stroke:none;fill-rule:nonzero;fill:rgb(18.431373%,18.039216%,25.490198%);fill-opacity:1;" d="M 507.945312 601.515625 L 462.835938 601.515625 L 462.835938 600.96875 C 462.835938 591.683594 470.695312 584.15625 480.394531 584.15625 L 488.632812 578.171875 L 504.007812 584.15625 L 507.945312 584.15625 Z M 507.945312 601.515625 "/>
<path style=" stroke:none;fill-rule:nonzero;fill:rgb(79.215688%,79.215688%,79.215688%);fill-opacity:1;" d="M 742.425781 602.339844 L 3.796875 602.339844 C 3.046875 602.339844 2.4375 601.757812 2.4375 601.039062 C 2.4375 600.320312 3.046875 599.738281 3.796875 599.738281 L 742.425781 599.738281 C 743.179688 599.738281 743.785156 600.320312 743.785156 601.039062 C 743.785156 601.757812 743.179688 602.339844 742.425781 602.339844 Z M 742.425781 602.339844 "/>
</g>
</svg>
