<?xml version="1.0" encoding="UTF-8"?>
<svg xmlns="http://www.w3.org/2000/svg" xmlns:xlink="http://www.w3.org/1999/xlink" width="744px" height="602px" viewBox="0 0 744 602" version="1.1">
<defs>
<filter id="alpha" filterUnits="objectBoundingBox" x="0%" y="0%" width="100%" height="100%">
  <feColorMatrix type="matrix" in="SourceGraphic" values="0 0 0 0 1 0 0 0 0 1 0 0 0 0 1 0 0 0 1 0"/>
</filter>
<mask id="mask0">
  <g filter="url(#alpha)">
<rect x="0" y="0" width="744" height="602" style="fill:rgb(0%,0%,0%);fill-opacity:0.2;stroke:none;"/>
  </g>
</mask>
<clipPath id="clip1">
  <rect x="0" y="0" width="744" height="602"/>
</clipPath>
<g id="surface5" clip-path="url(#clip1)">
<path style=" stroke:none;fill-rule:nonzero;fill:rgb(0%,0%,0%);fill-opacity:1;" d="M 558.226562 215.175781 L 554.628906 276.125 L 535.761719 339.558594 L 563.617188 277.367188 Z M 558.226562 215.175781 "/>
</g>
</defs>
<g id="surface1">
<path style=" stroke:none;fill-rule:nonzero;fill:rgb(24.705882%,23.921569%,33.725491%);fill-opacity:1;" d="M 451.523438 334.582031 L 15.273438 334.582031 C 6.84375 334.570312 0.0078125 325.109375 0 313.4375 L 0 21.144531 C 0.0078125 9.472656 6.84375 0.0117188 15.273438 0 L 451.523438 0 C 459.953125 0.0117188 466.789062 9.472656 466.796875 21.144531 L 466.796875 313.4375 C 466.789062 325.109375 459.953125 334.570312 451.523438 334.582031 Z M 15.273438 2.488281 C 7.835938 2.5 1.804688 10.84375 1.796875 21.144531 L 1.796875 313.4375 C 1.804688 323.738281 7.835938 332.082031 15.273438 332.09375 L 451.523438 332.09375 C 458.960938 332.082031 464.992188 323.738281 465 313.4375 L 465 21.144531 C 464.992188 10.84375 458.960938 2.5 451.523438 2.488281 Z M 15.273438 2.488281 "/>
<path style=" stroke:none;fill-rule:nonzero;fill:rgb(80.000001%,80.000001%,80.000001%);fill-opacity:1;" d="M 91.875 61.566406 C 91.875 55.386719 88.257812 50.375 83.789062 50.375 C 79.324219 50.375 75.703125 55.386719 75.703125 61.566406 C 75.703125 67.75 79.324219 72.761719 83.789062 72.761719 C 88.257812 72.761719 91.875 67.75 91.875 61.566406 Z M 91.875 61.566406 "/>
<path style=" stroke:none;fill-rule:nonzero;fill:rgb(80.000001%,80.000001%,80.000001%);fill-opacity:1;" d="M 91.875 103.859375 C 91.875 97.675781 88.257812 92.664062 83.789062 92.664062 C 79.324219 92.664062 75.703125 97.675781 75.703125 103.859375 C 75.703125 110.039062 79.324219 115.050781 83.789062 115.050781 C 88.257812 115.050781 91.875 110.039062 91.875 103.859375 Z M 91.875 103.859375 "/>
<path style=" stroke:none;fill-rule:nonzero;fill:rgb(80.000001%,80.000001%,80.000001%);fill-opacity:1;" d="M 91.875 146.148438 C 91.875 139.964844 88.257812 134.953125 83.789062 134.953125 C 79.324219 134.953125 75.703125 139.964844 75.703125 146.148438 C 75.703125 152.328125 79.324219 157.339844 83.789062 157.339844 C 88.257812 157.339844 91.875 152.328125 91.875 146.148438 Z M 91.875 146.148438 "/>
<path style=" stroke:none;fill-rule:nonzero;fill:rgb(80.000001%,80.000001%,80.000001%);fill-opacity:1;" d="M 91.875 188.4375 C 91.875 182.253906 88.257812 177.242188 83.789062 177.242188 C 79.324219 177.242188 75.703125 182.253906 75.703125 188.4375 C 75.703125 194.617188 79.324219 199.628906 83.789062 199.628906 C 88.257812 199.628906 91.875 194.617188 91.875 188.4375 Z M 91.875 188.4375 "/>
<path style=" stroke:none;fill-rule:nonzero;fill:rgb(80.000001%,80.000001%,80.000001%);fill-opacity:1;" d="M 228.007812 273.015625 C 228.007812 266.832031 224.386719 261.820312 219.921875 261.820312 C 215.453125 261.820312 211.832031 266.832031 211.832031 273.015625 C 211.832031 279.195312 215.453125 284.207031 219.921875 284.207031 C 224.386719 284.207031 228.007812 279.195312 228.007812 273.015625 Z M 228.007812 273.015625 "/>
<path style=" stroke:none;fill-rule:nonzero;fill:rgb(80.000001%,80.000001%,80.000001%);fill-opacity:1;" d="M 169.601562 273.015625 C 169.601562 266.832031 165.980469 261.820312 161.515625 261.820312 C 157.046875 261.820312 153.425781 266.832031 153.425781 273.015625 C 153.425781 279.195312 157.046875 284.207031 161.515625 284.207031 C 165.980469 284.207031 169.601562 279.195312 169.601562 273.015625 Z M 169.601562 273.015625 "/>
<path style=" stroke:none;fill-rule:nonzero;fill:rgb(80.000001%,80.000001%,80.000001%);fill-opacity:1;" d="M 348.414062 273.015625 C 348.414062 266.832031 344.792969 261.820312 340.324219 261.820312 C 335.859375 261.820312 332.238281 266.832031 332.238281 273.015625 C 332.238281 279.195312 335.859375 284.207031 340.324219 284.207031 C 344.792969 284.207031 348.414062 279.195312 348.414062 273.015625 Z M 348.414062 273.015625 "/>
<path style=" stroke:none;fill-rule:nonzero;fill:rgb(80.000001%,80.000001%,80.000001%);fill-opacity:1;" d="M 287.3125 273.015625 C 287.3125 266.832031 283.691406 261.820312 279.226562 261.820312 C 274.757812 261.820312 271.136719 266.832031 271.136719 273.015625 C 271.136719 279.195312 274.757812 284.207031 279.226562 284.207031 C 283.691406 284.207031 287.3125 279.195312 287.3125 273.015625 Z M 287.3125 273.015625 "/>
<path style=" stroke:none;fill-rule:nonzero;fill:rgb(80.000001%,80.000001%,80.000001%);fill-opacity:1;" d="M 390.195312 62.8125 L 124.226562 62.8125 C 123.726562 62.8125 123.324219 62.253906 123.324219 61.566406 C 123.324219 60.882812 123.726562 60.324219 124.226562 60.324219 L 390.195312 60.324219 C 390.691406 60.324219 391.09375 60.882812 391.09375 61.566406 C 391.09375 62.253906 390.691406 62.8125 390.195312 62.8125 Z M 390.195312 62.8125 "/>
<path style=" stroke:none;fill-rule:nonzero;fill:rgb(80.000001%,80.000001%,80.000001%);fill-opacity:1;" d="M 390.195312 105.101562 L 124.226562 105.101562 C 123.726562 105.101562 123.324219 104.542969 123.324219 103.859375 C 123.324219 103.171875 123.726562 102.613281 124.226562 102.613281 L 390.195312 102.613281 C 390.691406 102.613281 391.09375 103.171875 391.09375 103.859375 C 391.09375 104.542969 390.691406 105.101562 390.195312 105.101562 Z M 390.195312 105.101562 "/>
<path style=" stroke:none;fill-rule:nonzero;fill:rgb(80.000001%,80.000001%,80.000001%);fill-opacity:1;" d="M 390.195312 147.390625 L 124.226562 147.390625 C 123.726562 147.390625 123.324219 146.832031 123.324219 146.148438 C 123.324219 145.460938 123.726562 144.902344 124.226562 144.902344 L 390.195312 144.902344 C 390.691406 144.902344 391.09375 145.460938 391.09375 146.148438 C 391.09375 146.832031 390.691406 147.390625 390.195312 147.390625 Z M 390.195312 147.390625 "/>
<path style=" stroke:none;fill-rule:nonzero;fill:rgb(80.000001%,80.000001%,80.000001%);fill-opacity:1;" d="M 390.195312 189.679688 L 124.226562 189.679688 C 123.726562 189.679688 123.324219 189.121094 123.324219 188.4375 C 123.324219 187.75 123.726562 187.191406 124.226562 187.191406 L 390.195312 187.191406 C 390.691406 187.191406 391.09375 187.75 391.09375 188.4375 C 391.09375 189.121094 390.691406 189.679688 390.195312 189.679688 Z M 390.195312 189.679688 "/>
<path style=" stroke:none;fill-rule:nonzero;fill:rgb(0%,74.901962%,65.098041%);fill-opacity:1;" d="M 174.542969 231.96875 L 148.484375 231.96875 C 146.003906 231.964844 143.996094 229.183594 143.992188 225.75 L 143.992188 192.167969 C 143.996094 188.734375 146.003906 185.953125 148.484375 185.949219 L 174.542969 185.949219 C 177.023438 185.953125 179.035156 188.734375 179.035156 192.167969 L 179.035156 225.75 C 179.035156 229.183594 177.023438 231.964844 174.542969 231.96875 Z M 174.542969 231.96875 "/>
<path style=" stroke:none;fill-rule:nonzero;fill:rgb(0%,74.901962%,65.098041%);fill-opacity:1;" d="M 232.949219 231.96875 L 206.890625 231.96875 C 204.410156 231.964844 202.402344 229.183594 202.398438 225.75 L 202.398438 149.878906 C 202.402344 146.445312 204.410156 143.664062 206.890625 143.660156 L 232.949219 143.660156 C 235.429688 143.664062 237.4375 146.445312 237.441406 149.878906 L 237.441406 225.75 C 237.4375 229.183594 235.429688 231.964844 232.949219 231.96875 Z M 232.949219 231.96875 "/>
<path style=" stroke:none;fill-rule:nonzero;fill:rgb(0%,74.901962%,65.098041%);fill-opacity:1;" d="M 292.253906 231.96875 L 266.195312 231.96875 C 263.714844 231.964844 261.707031 229.183594 261.703125 225.75 L 261.703125 107.589844 C 261.707031 104.15625 263.714844 101.375 266.195312 101.371094 L 292.253906 101.371094 C 294.734375 101.375 296.742188 104.15625 296.746094 107.589844 L 296.746094 225.75 C 296.742188 229.183594 294.734375 231.964844 292.253906 231.96875 Z M 292.253906 231.96875 "/>
<path style=" stroke:none;fill-rule:nonzero;fill:rgb(0%,74.901962%,65.098041%);fill-opacity:1;" d="M 353.355469 231.96875 L 327.296875 231.96875 C 324.816406 231.964844 322.808594 229.183594 322.804688 225.75 L 322.804688 66.542969 C 322.808594 63.109375 324.816406 60.328125 327.296875 60.324219 L 353.355469 60.324219 C 355.835938 60.328125 357.84375 63.109375 357.847656 66.542969 L 357.847656 225.75 C 357.84375 229.183594 355.835938 231.964844 353.355469 231.96875 Z M 353.355469 231.96875 "/>
<path style=" stroke:none;fill-rule:nonzero;fill:rgb(94.901961%,94.901961%,94.901961%);fill-opacity:1;" d="M 596.144531 594.964844 C 588.066406 585.515625 583.15625 570.585938 584.445312 556.050781 C 585.730469 541.515625 593.703125 528.152344 604.046875 525.066406 C 614.386719 521.980469 626.175781 530.523438 629.316406 544.507812 C 631.042969 517.546875 633.035156 489.460938 643.390625 466.503906 C 652.765625 445.714844 669.003906 430.839844 686.605469 428.179688 C 704.203125 425.519531 722.734375 435.566406 733.710938 454.796875 C 744.6875 474.023438 747.371094 501.980469 739.6875 524.054688 C 734.023438 540.316406 723.589844 552.417969 712.65625 562.265625 C 677.335938 593.8125 634.96875 606.644531 593.355469 598.394531 Z M 596.144531 594.964844 "/>
<path style=" stroke:none;fill-rule:nonzero;fill:rgb(100%,100%,100%);fill-opacity:1;" d="M 716.304688 436.125 C 701.785156 452.496094 688.460938 470.808594 676.53125 490.796875 C 657.863281 521.964844 642.753906 556.914062 631.734375 594.421875 C 630.929688 597.15625 634.136719 598.347656 634.933594 595.644531 C 652.964844 534.683594 681.75 480.957031 718.652344 439.375 C 720.308594 437.507812 717.949219 434.273438 716.304688 436.125 Z M 716.304688 436.125 "/>
<path style=" stroke:none;fill-rule:nonzero;fill:rgb(24.705882%,23.921569%,33.725491%);fill-opacity:1;" d="M 510.925781 252.5625 C 509.902344 252.558594 508.882812 252.417969 507.882812 252.140625 C 507.699219 252.089844 507.515625 252.035156 507.332031 251.976562 L 287.28125 181.058594 C 284.890625 180.285156 283.304688 178.203125 283.585938 176.214844 C 283.832031 175.019531 284.539062 174.117188 285.417969 173.875 C 286.480469 173.46875 287.601562 173.433594 288.675781 173.773438 L 510.09375 237.78125 C 515.078125 239.222656 518.539062 243.457031 517.972656 247.421875 C 517.675781 249.5 516.355469 251.105469 514.253906 251.953125 C 513.171875 252.371094 512.050781 252.578125 510.925781 252.5625 Z M 510.925781 252.5625 "/>
<path style=" stroke:none;fill-rule:nonzero;fill:rgb(100%,72.156864%,72.156864%);fill-opacity:1;" d="M 464.308594 242.75 C 466.613281 244.628906 469.402344 244.992188 471.921875 243.75 C 474.441406 242.507812 476.433594 239.785156 477.359375 236.3125 L 509.464844 237.242188 L 500.570312 217.699219 L 471.449219 219.8125 C 467.035156 218 462.339844 221.042969 460.519531 226.894531 C 458.699219 232.746094 460.328125 239.558594 464.308594 242.75 Z M 464.308594 242.75 "/>
<path style=" stroke:none;fill-rule:nonzero;fill:rgb(24.705882%,23.921569%,33.725491%);fill-opacity:1;" d="M 478.253906 235.652344 L 478.085938 222.03125 C 478.0625 219.117188 479.648438 216.660156 481.742188 216.367188 L 539.429688 208.660156 L 587.492188 186.847656 C 591.441406 185.054688 595.78125 186.34375 598.847656 190.222656 C 601.917969 194.101562 603.238281 199.964844 602.308594 205.570312 C 601.375 211.175781 598.335938 215.652344 594.351562 217.285156 L 541.152344 239.089844 L 482.398438 241.152344 C 480.574219 241.214844 478.941406 239.578125 478.417969 237.15625 C 478.316406 236.667969 478.257812 236.164062 478.253906 235.652344 Z M 478.253906 235.652344 "/>
<path style=" stroke:none;fill-rule:nonzero;fill:rgb(100%,72.156864%,72.156864%);fill-opacity:1;" d="M 563.625 586.804688 L 552.605469 586.800781 L 547.367188 527.984375 L 563.625 527.984375 Z M 563.625 586.804688 "/>
<path style=" stroke:none;fill-rule:nonzero;fill:rgb(18.431373%,18.039216%,25.490198%);fill-opacity:1;" d="M 566.433594 601.585938 L 530.914062 601.582031 L 530.914062 600.960938 C 530.914062 590.390625 537.101562 581.824219 544.738281 581.824219 L 566.433594 581.824219 Z M 566.433594 601.585938 "/>
<path style=" stroke:none;fill-rule:nonzero;fill:rgb(100%,72.156864%,72.156864%);fill-opacity:1;" d="M 595.972656 586.804688 L 584.953125 586.800781 L 579.714844 527.984375 L 595.972656 527.984375 Z M 595.972656 586.804688 "/>
<path style=" stroke:none;fill-rule:nonzero;fill:rgb(18.431373%,18.039216%,25.490198%);fill-opacity:1;" d="M 598.78125 601.585938 L 563.261719 601.582031 L 563.261719 600.960938 C 563.261719 590.390625 569.449219 581.824219 577.085938 581.824219 L 598.78125 581.824219 Z M 598.78125 601.585938 "/>
<path style=" stroke:none;fill-rule:nonzero;fill:rgb(18.431373%,18.039216%,25.490198%);fill-opacity:1;" d="M 603.363281 349.101562 L 600.734375 565.144531 C 600.71875 566.527344 600.285156 567.835938 599.542969 568.761719 C 598.796875 569.6875 597.808594 570.140625 596.816406 570.015625 L 583.921875 568.390625 C 582.179688 568.171875 580.800781 566.242188 580.664062 563.820312 L 573.117188 429.0625 C 573.082031 428.40625 572.679688 427.902344 572.207031 427.914062 C 571.730469 427.925781 571.34375 428.453125 571.324219 429.109375 L 567.554688 566.957031 C 567.480469 569.628906 565.894531 571.742188 563.960938 571.742188 L 550.136719 571.742188 C 548.238281 571.742188 546.664062 569.695312 546.550781 567.070312 L 536.871094 347.859375 L 594.378906 327.957031 Z M 603.363281 349.101562 "/>
<path style=" stroke:none;fill-rule:nonzero;fill:rgb(100%,72.156864%,72.156864%);fill-opacity:1;" d="M 583.722656 115.695312 C 583.722656 98.820312 573.839844 85.144531 561.652344 85.144531 C 549.464844 85.144531 539.582031 98.820312 539.582031 115.695312 C 539.582031 132.566406 549.464844 146.242188 561.652344 146.242188 C 573.839844 146.242188 583.722656 132.566406 583.722656 115.695312 Z M 583.722656 115.695312 "/>
<path style=" stroke:none;fill-rule:nonzero;fill:rgb(24.705882%,23.921569%,33.725491%);fill-opacity:1;" d="M 534.902344 355.53125 C 534.128906 354.496094 533.6875 353.078125 533.675781 351.59375 L 532.1875 204.273438 C 532.003906 188.898438 539 175.113281 549.511719 170.140625 C 551.582031 157.15625 562.585938 155.53125 569 155.726562 C 572.25 155.824219 575.261719 158.109375 577.066406 161.847656 L 581.667969 171.398438 L 591.800781 179.621094 C 601.425781 187.398438 606.320312 202.890625 603.90625 217.949219 L 602.34375 227.777344 C 596.851562 262.550781 597.371094 298.632812 603.871094 333.078125 L 607.011719 349.648438 C 607.34375 351.402344 607.042969 353.265625 606.203125 354.65625 C 605.367188 356.046875 604.09375 356.789062 602.789062 356.648438 L 599.144531 356.261719 C 597.1875 356.054688 595.621094 353.9375 595.429688 351.238281 L 594.824219 342.882812 C 594.804688 342.566406 594.609375 342.324219 594.378906 342.324219 C 594.148438 342.324219 593.953125 342.566406 593.929688 342.882812 L 593.347656 350.972656 C 593.144531 353.800781 591.441406 355.96875 589.386719 356.011719 L 537.78125 357.109375 C 537.761719 357.109375 537.738281 357.113281 537.71875 357.113281 C 536.664062 357.113281 535.65625 356.546875 534.902344 355.53125 Z M 534.902344 355.53125 "/>
<path style=" stroke:none;fill-rule:nonzero;fill:rgb(18.431373%,18.039216%,25.490198%);fill-opacity:1;" d="M 563.378906 133.304688 C 563.46875 137.621094 565.636719 140.121094 568.292969 142.382812 C 570.953125 144.644531 574.0625 145.625 577.105469 146.570312 C 577.9375 147.183594 578.941406 147.148438 579.75 146.480469 C 580.558594 145.8125 581.058594 144.609375 581.066406 143.304688 L 583.859375 128.601562 C 584.847656 123.902344 585.566406 119.105469 586.007812 114.25 C 586.679688 104.910156 585.082031 94.863281 580.371094 88.109375 C 575.664062 81.359375 567.496094 78.957031 561.851562 84.160156 C 555.15625 72.320312 524.542969 98.480469 532.09375 106.714844 C 533.4375 108.179688 535.488281 106.328125 537.195312 106.148438 C 538.902344 105.96875 540.8125 106.382812 541.894531 108.214844 C 543.308594 110.609375 542.695312 114.171875 543.277344 117.160156 C 543.765625 119.28125 544.84375 121.046875 546.273438 122.058594 C 547.707031 123.074219 549.371094 123.257812 550.898438 122.566406 C 552.308594 121.605469 553.636719 120.425781 554.851562 119.050781 C 556.160156 117.84375 557.8125 116.953125 559.285156 117.710938 C 561.226562 118.714844 561.917969 122.003906 562.09375 124.859375 C 562.386719 127.710938 562.816406 130.53125 563.378906 133.304688 Z M 563.378906 133.304688 "/>
<path style=" stroke:none;fill-rule:nonzero;fill:rgb(24.705882%,23.921569%,33.725491%);fill-opacity:1;" d="M 726.867188 602 L 384.519531 602 C 384.023438 602 383.621094 601.441406 383.621094 600.757812 C 383.621094 600.070312 384.023438 599.511719 384.519531 599.511719 L 726.867188 599.511719 C 727.363281 599.511719 727.765625 600.070312 727.765625 600.757812 C 727.765625 601.441406 727.363281 602 726.867188 602 Z M 726.867188 602 "/>
<use xlink:href="#surface5" mask="url(#mask0)"/>
<path style=" stroke:none;fill-rule:nonzero;fill:rgb(100%,72.156864%,72.156864%);fill-opacity:1;" d="M 531.347656 363.179688 C 533.433594 360.863281 534.671875 357.386719 534.726562 353.683594 C 534.78125 349.984375 533.648438 346.441406 531.632812 344.003906 L 543.65625 302.792969 L 527.300781 307.363281 L 518.390625 345.800781 C 515.601562 350.867188 515.988281 358.023438 519.292969 362.457031 C 522.597656 366.890625 527.777344 367.203125 531.347656 363.179688 Z M 531.347656 363.179688 "/>
<path style=" stroke:none;fill-rule:nonzero;fill:rgb(24.705882%,23.921569%,33.725491%);fill-opacity:1;" d="M 530.472656 345.003906 L 521.214844 340.382812 C 519.238281 339.382812 518.140625 336.457031 518.683594 333.644531 L 533.957031 256.253906 L 536.285156 186.3125 C 536.476562 180.566406 538.890625 175.410156 542.597656 172.816406 C 546.304688 170.222656 550.738281 170.59375 554.191406 173.789062 C 557.648438 176.984375 559.589844 182.507812 559.277344 188.242188 L 555.121094 264.828125 L 535.660156 341.59375 C 535.054688 343.976562 533.371094 345.503906 531.546875 345.324219 C 531.179688 345.285156 530.820312 345.175781 530.472656 345.003906 Z M 530.472656 345.003906 "/>
<path style=" stroke:none;fill-rule:nonzero;fill:rgb(24.705882%,23.921569%,33.725491%);fill-opacity:1;" d="M 390.195312 231.96875 L 124.226562 231.96875 C 123.726562 231.96875 123.324219 231.414062 123.324219 230.726562 C 123.324219 230.039062 123.726562 229.480469 124.226562 229.480469 L 390.195312 229.480469 C 390.691406 229.480469 391.09375 230.039062 391.09375 230.726562 C 391.09375 231.414062 390.691406 231.96875 390.195312 231.96875 Z M 390.195312 231.96875 "/>
</g>
</svg>
