<?xml version="1.0" encoding="UTF-8"?>
<svg xmlns="http://www.w3.org/2000/svg" xmlns:xlink="http://www.w3.org/1999/xlink" width="744px" height="602px" viewBox="0 0 744 602" version="1.1">
<g id="surface1">
<path style=" stroke:none;fill-rule:nonzero;fill:rgb(28.235295%,27.058825%,39.607844%);fill-opacity:1;" d="M 105.675781 601.117188 C 105.675781 601.871094 106.972656 602.480469 108.585938 602.480469 L 742.0625 602.480469 C 743.679688 602.480469 744.976562 601.871094 744.976562 601.117188 C 744.976562 600.359375 743.679688 599.75 742.0625 599.75 L 108.585938 599.75 C 106.972656 599.75 105.675781 600.359375 105.675781 601.117188 Z M 105.675781 601.117188 "/>
<path style=" stroke:none;fill-rule:nonzero;fill:rgb(18.431373%,18.039216%,25.490198%);fill-opacity:1;" d="M 438.808594 0.375 C 438.808594 0.375 385.1875 -5.710938 352.734375 31.074219 C 325.691406 61.734375 306.503906 78.109375 328.457031 89.230469 C 336.3125 93.210938 347.523438 95.355469 359.074219 95.539062 L 482.667969 97.441406 C 482.667969 97.441406 528.039062 41.691406 500.460938 21.53125 C 472.878906 1.363281 438.808594 0.375 438.808594 0.375 Z M 438.808594 0.375 "/>
<path style=" stroke:none;fill-rule:nonzero;fill:rgb(96.470588%,65.098041%,66.274512%);fill-opacity:1;" d="M 464.410156 92.808594 L 404.960938 101.972656 L 404.960938 61.871094 L 458.902344 61.871094 Z M 464.410156 92.808594 "/>
<path style=" stroke:none;fill-rule:nonzero;fill:rgb(96.470588%,65.098041%,66.274512%);fill-opacity:1;" d="M 418.789062 578.710938 L 363.089844 578.710938 L 330.808594 439.296875 L 416.882812 439.296875 Z M 418.789062 578.710938 "/>
<path style=" stroke:none;fill-rule:nonzero;fill:rgb(18.431373%,18.039216%,25.490198%);fill-opacity:1;" d="M 308.855469 601.117188 C 303.003906 601.117188 297.792969 601.046875 293.851562 600.875 C 279.046875 600.242188 264.949219 595.128906 257.851562 592.136719 C 254.667969 590.796875 253.640625 588.652344 255.304688 586.804688 C 256.503906 585.476562 258.878906 584.488281 261.816406 584.097656 L 300.902344 578.871094 L 364.191406 558.859375 L 364.898438 559.457031 C 365.167969 559.675781 371.386719 564.925781 373.464844 568.46875 C 374.25 569.824219 374.050781 570.945312 372.851562 571.804688 C 372.019531 572.414062 370.871094 572.757812 369.917969 572.953125 C 371.066406 573.515625 374.664062 574.648438 385.703125 575.476562 C 401.855469 576.679688 405.230469 568.835938 405.378906 568.503906 L 405.476562 568.242188 L 405.964844 568.089844 C 413.652344 565.773438 418.375 564.71875 420.015625 564.9375 C 421.042969 565.074219 422.730469 565.316406 427.308594 586.667969 C 427.773438 587.332031 430.976562 592.25 428.800781 596.941406 C 426.425781 602.054688 378.777344 600.289062 369.230469 599.886719 C 368.960938 599.898438 333.277344 601.09375 308.828125 601.09375 L 308.828125 601.117188 Z M 308.855469 601.117188 "/>
<path style=" stroke:none;fill-rule:nonzero;fill:rgb(96.470588%,65.098041%,66.274512%);fill-opacity:1;" d="M 544.585938 578.710938 L 488.90625 578.710938 L 456.601562 439.296875 L 542.675781 439.296875 Z M 544.585938 578.710938 "/>
<path style=" stroke:none;fill-rule:nonzero;fill:rgb(18.431373%,18.039216%,25.490198%);fill-opacity:1;" d="M 434.671875 601.117188 C 428.824219 601.117188 423.613281 601.046875 419.671875 600.875 C 404.863281 600.242188 390.769531 595.128906 383.671875 592.136719 C 380.488281 590.796875 379.460938 588.652344 381.125 586.804688 C 382.324219 585.476562 384.699219 584.488281 387.636719 584.097656 L 426.71875 578.871094 L 490.007812 558.859375 L 490.71875 559.457031 C 490.988281 559.675781 497.203125 564.925781 499.285156 568.46875 C 500.066406 569.824219 499.871094 570.945312 498.671875 571.804688 C 497.839844 572.414062 496.691406 572.757812 495.734375 572.953125 C 496.886719 573.515625 500.484375 574.648438 511.519531 575.476562 C 527.671875 576.679688 531.050781 568.835938 531.199219 568.503906 L 531.296875 568.242188 L 531.785156 568.089844 C 539.46875 565.773438 544.195312 564.71875 545.832031 564.9375 C 546.859375 565.074219 548.550781 565.316406 553.125 586.667969 C 553.589844 587.332031 556.796875 592.25 554.621094 596.941406 C 552.246094 602.054688 504.59375 600.289062 495.050781 599.886719 C 494.78125 599.898438 459.097656 601.09375 434.648438 601.09375 L 434.648438 601.117188 Z M 434.671875 601.117188 "/>
<path style=" stroke:none;fill-rule:nonzero;fill:rgb(86.666667%,87.058824%,87.450981%);fill-opacity:1;" d="M 560.617188 236.292969 L 290.035156 236.292969 L 387.292969 86.320312 L 495.171875 86.320312 Z M 560.617188 236.292969 "/>
<path style=" stroke:none;fill-rule:nonzero;fill:rgb(96.470588%,65.098041%,66.274512%);fill-opacity:1;" d="M 282.667969 320.445312 C 279.4375 329.628906 266.367188 336.222656 253.46875 335.15625 C 240.574219 334.089844 232.71875 325.789062 235.949219 316.605469 C 237.121094 312.921875 240.230469 309.449219 245.003906 306.457031 L 259.734375 267.617188 L 299.847656 271.550781 L 281.050781 309.414062 C 283.523438 312.992188 284.085938 316.777344 282.691406 320.445312 Z M 282.667969 320.445312 "/>
<path style=" stroke:none;fill-rule:nonzero;fill:rgb(86.666667%,87.058824%,87.450981%);fill-opacity:1;" d="M 404.328125 86.34375 C 404.328125 86.34375 337.121094 85.515625 330.046875 93.796875 C 322.976562 102.085938 239.863281 299.289062 239.863281 299.289062 L 294.683594 299.289062 Z M 404.328125 86.34375 "/>
<path style=" stroke:none;fill-rule:nonzero;fill:rgb(96.470588%,65.098041%,66.274512%);fill-opacity:1;" d="M 477.84375 43.582031 C 477.84375 28.25 451.316406 15.820312 418.59375 15.820312 C 385.871094 15.820312 359.34375 28.25 359.34375 43.582031 C 359.34375 58.914062 385.871094 71.34375 418.59375 71.34375 C 451.316406 71.34375 477.84375 58.914062 477.84375 43.582031 Z M 477.84375 43.582031 "/>
<path style=" stroke:none;fill-rule:nonzero;fill:rgb(18.431373%,18.039216%,25.490198%);fill-opacity:1;" d="M 427.894531 9.539062 C 427.894531 9.539062 351.832031 62.550781 364.628906 95.617188 L 320.382812 82.628906 C 320.382812 82.628906 351.535156 15.683594 397.964844 10.488281 L 427.894531 9.527344 Z M 427.894531 9.539062 "/>
<path style=" stroke:none;fill-rule:nonzero;fill:rgb(18.431373%,18.039216%,25.490198%);fill-opacity:1;" d="M 504.375 236.292969 L 326.816406 236.292969 L 229.65625 423.117188 C 227.871094 431.007812 238.542969 438.367188 254.914062 440.421875 C 308.21875 447.105469 436.117188 456.589844 629.730469 430.191406 C 648.351562 427.660156 658.925781 418.453125 653.078125 409.78125 L 504.375 236.304688 Z M 504.375 236.292969 "/>
<path style=" stroke:none;fill-rule:nonzero;fill:rgb(86.666667%,87.058824%,87.450981%);fill-opacity:1;" d="M 425.9375 100.355469 L 475.128906 88.53125 C 497.621094 84.632812 522.707031 85.941406 542.824219 92.074219 C 604.007812 110.71875 724.613281 151.828125 672.777344 172.148438 C 604.472656 198.933594 512.132812 151.425781 512.132812 151.425781 Z M 425.9375 100.355469 "/>
<path style=" stroke:none;fill-rule:nonzero;fill:rgb(96.078432%,0%,34.117648%);fill-opacity:1;" d="M 257.492188 128.96875 L 257.269531 129.074219 C 255.253906 128.003906 253.179688 126.949219 250.996094 125.925781 C 193.574219 99.019531 100.480469 99.023438 43.0625 125.925781 C -14.355469 152.824219 -14.355469 196.445312 43.0625 223.347656 C 45.25 224.371094 47.5 225.339844 49.785156 226.285156 L 49.5625 226.390625 L 257.492188 323.8125 L 465.421875 226.390625 C 522.839844 199.488281 522.839844 155.871094 465.421875 128.96875 C 408.003906 102.066406 314.910156 102.066406 257.492188 128.96875 Z M 257.492188 128.96875 "/>
<path style=" stroke:none;fill-rule:nonzero;fill:rgb(96.470588%,65.098041%,66.274512%);fill-opacity:1;" d="M 424.859375 120.558594 C 407.753906 115.835938 399.359375 107.738281 406.136719 102.476562 C 412.917969 97.222656 432.273438 96.800781 449.40625 101.523438 C 456.308594 103.371094 462.109375 105.984375 466.316406 109.148438 L 538.269531 129.628906 L 515.949219 145.726562 L 447.375 123.828125 C 439.347656 123.609375 431.613281 122.484375 424.835938 120.546875 L 424.859375 120.546875 Z M 424.859375 120.558594 "/>
<path style=" stroke:none;fill-rule:nonzero;fill:rgb(86.666667%,87.058824%,87.450981%);fill-opacity:1;" d="M 473.757812 139.125 L 494.21875 116.222656 L 594.191406 131.726562 L 549.480469 166.597656 Z M 473.757812 139.125 "/>
</g>
</svg>
