<?xml version="1.0" encoding="UTF-8"?>
<svg xmlns="http://www.w3.org/2000/svg" xmlns:xlink="http://www.w3.org/1999/xlink" width="744px" height="602px" viewBox="0 0 744 602" version="1.1">
<defs>
<filter id="alpha" filterUnits="objectBoundingBox" x="0%" y="0%" width="100%" height="100%">
  <feColorMatrix type="matrix" in="SourceGraphic" values="0 0 0 0 1 0 0 0 0 1 0 0 0 0 1 0 0 0 1 0"/>
</filter>
<mask id="mask0">
  <g filter="url(#alpha)">
<rect x="0" y="0" width="744" height="602" style="fill:rgb(0%,0%,0%);fill-opacity:0.2;stroke:none;"/>
  </g>
</mask>
<clipPath id="clip1">
  <rect x="0" y="0" width="744" height="602"/>
</clipPath>
<g id="surface5" clip-path="url(#clip1)">
<path style=" stroke:none;fill-rule:nonzero;fill:rgb(0%,0%,0%);fill-opacity:1;" d="M 144.023438 470.328125 C 131.679688 465.105469 127.742188 453.90625 135.214844 445.296875 C 163.589844 364.707031 219.8125 295.433594 312.921875 241.164062 C 315.308594 238.460938 318.675781 236.246094 322.6875 234.738281 L 318.332031 232.898438 C 305.96875 227.695312 289.890625 230.4375 282.390625 239.035156 C 189.277344 293.308594 133.058594 362.578125 104.683594 443.167969 C 97.207031 451.777344 101.148438 462.976562 113.492188 468.203125 L 334.839844 561.675781 C 342.859375 565.039062 352.847656 565.148438 361.015625 561.964844 Z M 144.023438 470.328125 "/>
</g>
</defs>
<g id="surface1">
<path style=" stroke:none;fill-rule:nonzero;fill:rgb(94.901961%,94.901961%,94.901961%);fill-opacity:1;" d="M 744.589844 534.632812 L 544.738281 534.632812 L 544.738281 532.832031 C 653.683594 532.832031 742 471.320312 742 395.4375 L 742 298.296875 L 744.589844 298.296875 Z M 744.589844 534.632812 "/>
<path style=" stroke:none;fill-rule:nonzero;fill:rgb(18.431373%,18.039216%,25.490198%);fill-opacity:1;" d="M 199.285156 183.527344 C 193.972656 184.9375 188.546875 186.132812 183.035156 187.105469 C 175.757812 188.339844 171.648438 188.914062 164.621094 187.015625 C 164.375 186.949219 164.140625 186.882812 163.917969 186.816406 C 136.710938 178.761719 118.894531 160.277344 118.496094 139.683594 C 118.460938 139.339844 118.460938 138.976562 118.460938 138.621094 C 118.453125 136.914062 118.570312 135.207031 118.8125 133.507812 C 119.121094 131.191406 119.652344 128.894531 120.402344 126.628906 L 120.332031 126.621094 C 114.644531 122.566406 112.457031 117.019531 113.183594 111.445312 C 114.1875 103.785156 120.183594 96.871094 129.449219 92.6875 C 136.617188 89.546875 144.695312 87.5625 153.105469 86.871094 C 155.359375 86.691406 157.632812 86.597656 159.902344 86.597656 L 181.25 86.597656 C 185.660156 85.878906 190.140625 85.386719 194.652344 85.125 L 194.6875 85.125 C 237.652344 82.644531 271.535156 102.480469 268.375 126.621094 C 268.351562 126.644531 268.316406 126.671875 268.292969 126.699219 C 267.378906 127.734375 266.570312 128.71875 265.859375 129.660156 C 265.167969 130.539062 264.582031 131.378906 264.078125 132.175781 C 260.160156 138.347656 278.789062 234.066406 272.109375 235.523438 C 268.304688 236.347656 252.972656 165.117188 255.722656 178.660156 C 259.1875 195.65625 219.078125 178.429688 199.285156 183.527344 Z M 199.285156 183.527344 "/>
<path style=" stroke:none;fill-rule:nonzero;fill:rgb(100%,71.372551%,71.372551%);fill-opacity:1;" d="M 264.007812 356.5625 L 323.566406 444.933594 L 94.460938 428.773438 L 142.285156 343.9375 Z M 264.007812 356.5625 "/>
<path style=" stroke:none;fill-rule:nonzero;fill:rgb(18.431373%,18.039216%,25.490198%);fill-opacity:1;" d="M 383.566406 533.742188 C 343.726562 542.980469 301.742188 546.894531 259.816406 545.289062 L 241.585938 524.695312 C 241.585938 524.695312 240.820312 532.363281 239.683594 544.089844 C 219.726562 542.476562 200.027344 539.570312 180.847656 535.402344 C 144.476562 527.480469 110.382812 515.207031 75.820312 503.886719 C 68.820312 474.824219 66.195312 430.007812 104.894531 403.917969 L 313.203125 430.503906 C 313.203125 430.503906 346.625 447.914062 337.683594 454.148438 C 328.742188 460.375 327.359375 459.414062 333.234375 463.503906 C 339.105469 467.59375 351.800781 473.066406 351.929688 476.644531 C 351.980469 478.039062 366.226562 503.371094 383.566406 533.742188 Z M 383.566406 533.742188 "/>
<path style=" stroke:none;fill-rule:nonzero;fill:rgb(42.352942%,38.82353%,100%);fill-opacity:1;" d="M 227.632812 185.796875 L 177.308594 188.242188 L 144.777344 210.132812 L 133.386719 211.550781 C 112.191406 214.183594 97.175781 227.445312 98.445312 242.414062 C 100.785156 270.0625 106.035156 311.378906 117 324.785156 C 134.003906 345.566406 148.046875 339.046875 134.003906 345.566406 C 119.957031 352.089844 110.527344 346.964844 117 357.269531 C 123.46875 367.578125 108.253906 380.796875 108.253906 380.796875 L 102.199219 385.015625 L 108.621094 386.847656 L 313.3125 405.398438 C 313.3125 405.398438 295.613281 349.972656 306.683594 336.359375 C 317.753906 322.742188 344.589844 281.585938 320.636719 265.484375 L 297.21875 208.082031 L 256.933594 199.808594 Z M 227.632812 185.796875 "/>
<path style=" stroke:none;fill-rule:nonzero;fill:rgb(100%,71.372551%,71.372551%);fill-opacity:1;" d="M 532.28125 413.277344 C 525.464844 413.128906 519.085938 410.902344 514.832031 407.191406 C 510.582031 403.476562 508.878906 398.652344 510.183594 393.988281 L 414.164062 348.699219 L 425.621094 327.121094 L 539.097656 381.492188 C 550.453125 383.652344 557.699219 391.386719 555.960938 399.496094 C 554.222656 407.605469 544.050781 413.527344 532.28125 413.277344 Z M 532.28125 413.277344 "/>
<path style=" stroke:none;fill-rule:nonzero;fill:rgb(42.352942%,38.82353%,100%);fill-opacity:1;" d="M 261.082031 205.371094 L 247.128906 209.21875 L 321.558594 310.460938 L 475.636719 383.613281 L 497.847656 357.464844 L 380.558594 286.90625 L 333.605469 224.1875 C 319.917969 205.902344 288.605469 197.78125 261.082031 205.371094 Z M 261.082031 205.371094 "/>
<path style=" stroke:none;fill-rule:nonzero;fill:rgb(100%,71.372551%,71.372551%);fill-opacity:1;" d="M 250.386719 141.695312 C 250.386719 122.257812 227.761719 106.5 199.851562 106.5 C 171.941406 106.5 149.316406 122.257812 149.316406 141.695312 C 149.316406 161.132812 171.941406 176.894531 199.851562 176.894531 C 227.761719 176.894531 250.386719 161.132812 250.386719 141.695312 Z M 250.386719 141.695312 "/>
<path style=" stroke:none;fill-rule:nonzero;fill:rgb(18.431373%,18.039216%,25.490198%);fill-opacity:1;" d="M 243.796875 126.8125 C 242.953125 127.121094 242.121094 127.40625 241.28125 127.691406 C 240.402344 127.984375 239.523438 128.277344 238.636719 128.554688 C 221.722656 133.894531 207.949219 134.492188 199.589844 126.8125 C 199.363281 122.773438 198.058594 118.796875 195.742188 115.089844 C 196.148438 119.234375 194.582031 123.355469 191.28125 126.8125 L 174.453125 126.8125 C 157.117188 134.824219 148.222656 142.1875 160.253906 168.492188 C 161.039062 170.21875 166.410156 231.617188 167.945312 236.335938 C 141.703125 229.328125 119.070312 154.894531 118.496094 135.28125 C 118.460938 134.964844 118.460938 134.628906 118.460938 134.304688 C 118.453125 132.730469 118.570312 131.160156 118.8125 129.601562 C 119.121094 127.46875 119.652344 125.351562 120.402344 123.273438 L 120.332031 123.265625 C 114.917969 119.660156 112.269531 114.488281 113.183594 109.308594 C 117.582031 105.296875 123.03125 101.894531 129.238281 99.285156 C 134.886719 97.378906 140.769531 95.839844 146.820312 94.6875 C 146.972656 94.660156 147.097656 94.636719 147.25 94.613281 C 149.101562 94.261719 150.996094 93.945312 152.894531 93.667969 C 156.800781 93.097656 160.75 92.679688 164.726562 92.421875 C 165.019531 92.414062 165.300781 92.394531 165.554688 92.394531 C 167.144531 92.398438 168.707031 92.695312 170.074219 93.261719 C 170.085938 93.261719 170.085938 93.269531 170.109375 93.269531 C 172.78125 94.378906 174.425781 96.382812 174.453125 98.550781 L 193.199219 98.550781 C 193.890625 98.550781 194.582031 98.566406 195.273438 98.589844 C 221.382812 99.316406 242.367188 107.09375 243.714844 124.96875 C 243.773438 125.589844 243.796875 126.191406 243.796875 126.8125 Z M 243.796875 126.8125 "/>
<path style=" stroke:none;fill-rule:nonzero;fill:rgb(18.431373%,18.039216%,25.490198%);fill-opacity:1;" d="M 166.238281 105.039062 C 166.238281 92.234375 151.332031 81.851562 132.945312 81.851562 C 114.558594 81.851562 99.652344 92.234375 99.652344 105.039062 C 99.652344 117.84375 114.558594 128.226562 132.945312 128.226562 C 151.332031 128.226562 166.238281 117.84375 166.238281 105.039062 Z M 166.238281 105.039062 "/>
<path style=" stroke:none;fill-rule:nonzero;fill:rgb(18.431373%,18.039216%,25.490198%);fill-opacity:1;" d="M 178.652344 94.3125 C 174.871094 106.847656 156.210938 114.339844 138.359375 111.277344 C 120.503906 108.210938 109.601562 95.644531 114.003906 83.210938 C 118.40625 70.777344 140.074219 74.359375 154.300781 66.25 C 174.425781 54.773438 183.753906 77.414062 178.652344 94.3125 Z M 178.652344 94.3125 "/>
<path style=" stroke:none;fill-rule:nonzero;fill:rgb(94.901961%,94.901961%,94.901961%);fill-opacity:1;" d="M 104.683594 443.167969 C 133.054688 362.578125 189.277344 293.308594 282.390625 239.035156 C 289.890625 230.4375 305.96875 227.695312 318.332031 232.902344 L 539.679688 326.375 C 552.019531 331.601562 555.960938 342.800781 548.484375 351.40625 C 512.945312 434.105469 459.71875 505.863281 370.777344 555.542969 C 363.277344 564.140625 347.199219 566.882812 334.839844 561.675781 L 113.492188 468.203125 C 101.148438 462.976562 97.207031 451.777344 104.683594 443.167969 Z M 104.683594 443.167969 "/>
<use xlink:href="#surface5" mask="url(#mask0)"/>
<path style=" stroke:none;fill-rule:nonzero;fill:rgb(100%,100%,100%);fill-opacity:1;" d="M 403.609375 425.304688 L 255.03125 362.949219 C 250.113281 360.882812 248.535156 356.429688 251.496094 353.003906 C 254.460938 349.578125 260.847656 348.472656 265.773438 350.53125 L 414.351562 412.886719 C 419.253906 414.957031 420.824219 419.402344 417.867188 422.824219 C 414.90625 426.246094 408.53125 427.355469 403.609375 425.304688 Z M 403.609375 425.304688 "/>
<path style=" stroke:none;fill-rule:nonzero;fill:rgb(100%,100%,100%);fill-opacity:1;" d="M 317.175781 342.617188 L 284.488281 328.898438 C 279.554688 326.84375 277.949219 322.394531 280.898438 318.957031 C 283.851562 315.523438 290.242188 314.402344 295.175781 316.457031 L 295.230469 316.480469 L 327.917969 330.199219 C 332.820312 332.273438 334.394531 336.714844 331.433594 340.136719 C 328.472656 343.558594 322.097656 344.667969 317.175781 342.617188 Z M 317.175781 342.617188 "/>
<path style=" stroke:none;fill-rule:nonzero;fill:rgb(100%,100%,100%);fill-opacity:1;" d="M 379.992188 452.601562 L 231.414062 390.246094 C 226.496094 388.183594 224.90625 383.734375 227.863281 380.304688 C 230.820312 376.875 237.210938 375.761719 242.136719 377.820312 L 242.15625 377.828125 L 390.738281 440.183594 C 395.640625 442.253906 397.210938 446.699219 394.25 450.121094 C 391.292969 453.542969 384.914062 454.648438 379.992188 452.601562 Z M 379.992188 452.601562 "/>
<path style=" stroke:none;fill-rule:nonzero;fill:rgb(24.705882%,23.921569%,33.725491%);fill-opacity:1;" d="M 465.875 277.511719 C 465.875 260.816406 446.445312 247.285156 422.476562 247.285156 C 398.507812 247.285156 379.078125 260.816406 379.078125 277.511719 C 379.078125 294.203125 398.507812 307.734375 422.476562 307.734375 C 446.445312 307.734375 465.875 294.203125 465.875 277.511719 Z M 465.875 277.511719 "/>
<path style=" stroke:none;fill-rule:nonzero;fill:rgb(100%,100%,100%);fill-opacity:1;" d="M 440.425781 536.785156 C 440.425781 501.105469 398.898438 472.179688 347.671875 472.179688 C 296.445312 472.179688 254.917969 501.105469 254.917969 536.785156 C 254.917969 572.460938 296.445312 601.386719 347.671875 601.386719 C 398.898438 601.386719 440.425781 572.460938 440.425781 536.785156 Z M 440.425781 536.785156 "/>
<path style=" stroke:none;fill-rule:nonzero;fill:rgb(24.705882%,23.921569%,33.725491%);fill-opacity:1;" d="M 347.671875 602.289062 C 295.730469 602.289062 253.625 572.960938 253.625 536.785156 C 253.625 500.605469 295.730469 471.28125 347.671875 471.28125 C 399.613281 471.28125 441.71875 500.605469 441.71875 536.78125 C 441.660156 572.941406 399.589844 602.246094 347.671875 602.289062 Z M 347.671875 473.082031 C 297.160156 473.082031 256.210938 501.601562 256.210938 536.785156 C 256.210938 571.964844 297.160156 600.484375 347.671875 600.484375 C 398.183594 600.484375 439.132812 571.964844 439.132812 536.78125 C 439.074219 501.617188 398.160156 473.121094 347.671875 473.082031 Z M 347.671875 473.082031 "/>
<path style=" stroke:none;fill-rule:nonzero;fill:rgb(42.352942%,38.82353%,100%);fill-opacity:1;" d="M 335.019531 570.40625 C 331.769531 570.40625 328.714844 569.339844 326.765625 567.53125 L 301.460938 544.03125 C 298.035156 540.855469 298.957031 536.347656 303.519531 533.964844 C 308.082031 531.582031 314.550781 532.230469 317.96875 535.410156 L 334.523438 550.78125 L 377.042969 506.359375 C 380.203125 503.058594 386.609375 502.164062 391.351562 504.367188 C 396.09375 506.566406 397.375 511.03125 394.214844 514.332031 L 343.605469 567.207031 C 341.746094 569.144531 338.652344 570.339844 335.304688 570.402344 C 335.210938 570.40625 335.113281 570.40625 335.019531 570.40625 Z M 335.019531 570.40625 "/>
<path style=" stroke:none;fill-rule:nonzero;fill:rgb(100%,100%,100%);fill-opacity:1;" d="M 653.5 205.777344 C 653.28125 203.992188 650.113281 202.722656 646.429688 202.941406 C 642.742188 203.160156 639.933594 204.785156 640.152344 206.570312 C 640.371094 208.359375 643.539062 209.628906 647.222656 209.40625 C 650.910156 209.1875 653.71875 207.5625 653.5 205.777344 Z M 653.5 205.777344 "/>
<path style=" stroke:none;fill-rule:nonzero;fill:rgb(24.705882%,23.921569%,33.725491%);fill-opacity:1;" d="M 694.96875 195.980469 C 694.75 194.191406 691.585938 192.921875 687.898438 193.140625 C 684.214844 193.363281 681.402344 194.988281 681.621094 196.773438 C 681.84375 198.558594 685.007812 199.828125 688.695312 199.609375 C 692.378906 199.390625 695.191406 197.765625 694.96875 195.980469 Z M 694.96875 195.980469 "/>
<path style=" stroke:none;fill-rule:nonzero;fill:rgb(100%,39.607844%,51.764709%);fill-opacity:1;" d="M 633.84375 183.742188 C 633.621094 181.953125 630.457031 180.683594 626.773438 180.90625 C 623.085938 181.125 620.277344 182.75 620.496094 184.535156 C 620.714844 186.320312 623.878906 187.589844 627.566406 187.371094 C 631.25 187.152344 634.0625 185.527344 633.84375 183.742188 Z M 633.84375 183.742188 "/>
<path style=" stroke:none;fill-rule:nonzero;fill:rgb(90.196079%,90.196079%,90.196079%);fill-opacity:1;" d="M 612.109375 176.941406 C 611.59375 175.355469 609.890625 174.269531 608.304688 174.519531 C 606.71875 174.769531 605.847656 176.257812 606.363281 177.847656 C 606.878906 179.433594 608.582031 180.519531 610.171875 180.269531 C 611.757812 180.019531 612.625 178.53125 612.109375 176.941406 Z M 612.109375 176.941406 "/>
<path style=" stroke:none;fill-rule:nonzero;fill:rgb(24.705882%,23.921569%,33.725491%);fill-opacity:1;" d="M 599.722656 159.703125 C 599.207031 158.117188 597.503906 157.03125 595.917969 157.28125 C 594.332031 157.53125 593.464844 159.019531 593.980469 160.609375 C 594.496094 162.195312 596.199219 163.28125 597.785156 163.03125 C 599.371094 162.78125 600.238281 161.292969 599.722656 159.703125 Z M 599.722656 159.703125 "/>
<path style=" stroke:none;fill-rule:nonzero;fill:rgb(90.196079%,90.196079%,90.196079%);fill-opacity:1;" d="M 659.144531 183.914062 C 658.628906 182.324219 656.925781 181.238281 655.339844 181.488281 C 653.753906 181.738281 652.886719 183.230469 653.402344 184.816406 C 653.917969 186.40625 655.621094 187.492188 657.207031 187.242188 C 658.792969 186.992188 659.660156 185.5 659.144531 183.914062 Z M 659.144531 183.914062 "/>
<path style=" stroke:none;fill-rule:nonzero;fill:rgb(100%,39.607844%,51.764709%);fill-opacity:1;" d="M 641.03125 194.386719 C 640.515625 192.796875 638.8125 191.710938 637.226562 191.960938 C 635.640625 192.210938 634.773438 193.703125 635.289062 195.289062 C 635.804688 196.878906 637.507812 197.964844 639.09375 197.714844 C 640.679688 197.464844 641.546875 195.972656 641.03125 194.386719 Z M 641.03125 194.386719 "/>
<path style=" stroke:none;fill-rule:nonzero;fill:rgb(24.705882%,23.921569%,33.725491%);fill-opacity:1;" d="M 674.007812 202.917969 C 673.492188 201.328125 671.789062 200.242188 670.203125 200.492188 C 668.617188 200.742188 667.746094 202.230469 668.261719 203.820312 C 668.777344 205.410156 670.480469 206.492188 672.070312 206.246094 C 673.65625 205.996094 674.523438 204.503906 674.007812 202.917969 Z M 674.007812 202.917969 "/>
<path style=" stroke:none;fill-rule:nonzero;fill:rgb(100%,100%,100%);fill-opacity:1;" d="M 470.65625 71.582031 C 467.070312 70.949219 463.652344 71.84375 463.019531 73.582031 C 462.386719 75.320312 464.78125 77.242188 468.367188 77.875 C 471.953125 78.507812 475.371094 77.613281 476.003906 75.875 C 476.636719 74.136719 474.242188 72.214844 470.65625 71.582031 Z M 470.65625 71.582031 "/>
<path style=" stroke:none;fill-rule:nonzero;fill:rgb(24.705882%,23.921569%,33.725491%);fill-opacity:1;" d="M 426.867188 71.386719 C 423.28125 70.753906 419.859375 71.648438 419.230469 73.386719 C 418.597656 75.125 420.992188 77.042969 424.578125 77.679688 C 428.164062 78.3125 431.582031 77.414062 432.214844 75.679688 C 432.847656 73.941406 430.453125 72.019531 426.867188 71.386719 Z M 426.867188 71.386719 "/>
<path style=" stroke:none;fill-rule:nonzero;fill:rgb(100%,39.607844%,51.764709%);fill-opacity:1;" d="M 478.875 96.886719 C 475.289062 96.253906 471.871094 97.148438 471.238281 98.886719 C 470.605469 100.625 473 102.546875 476.585938 103.179688 C 480.171875 103.8125 483.589844 102.917969 484.222656 101.179688 C 484.855469 99.441406 482.460938 97.519531 478.875 96.886719 Z M 478.875 96.886719 "/>
<path style=" stroke:none;fill-rule:nonzero;fill:rgb(90.196079%,90.196079%,90.196079%);fill-opacity:1;" d="M 491.972656 107.5625 C 490.359375 107.4375 488.835938 108.648438 488.578125 110.265625 C 488.316406 111.882812 489.417969 113.296875 491.035156 113.421875 C 492.652344 113.546875 494.171875 112.339844 494.429688 110.71875 C 494.691406 109.101562 493.589844 107.6875 491.972656 107.5625 Z M 491.972656 107.5625 "/>
<path style=" stroke:none;fill-rule:nonzero;fill:rgb(24.705882%,23.921569%,33.725491%);fill-opacity:1;" d="M 495.574219 126.675781 C 493.957031 126.550781 492.4375 127.757812 492.179688 129.378906 C 491.917969 130.996094 493.019531 132.410156 494.636719 132.535156 C 496.25 132.660156 497.773438 131.449219 498.03125 129.832031 C 498.292969 128.214844 497.191406 126.800781 495.574219 126.675781 Z M 495.574219 126.675781 "/>
<path style=" stroke:none;fill-rule:nonzero;fill:rgb(90.196079%,90.196079%,90.196079%);fill-opacity:1;" d="M 450.804688 90.253906 C 449.1875 90.125 447.667969 91.335938 447.410156 92.953125 C 447.148438 94.574219 448.25 95.988281 449.867188 96.113281 C 451.480469 96.238281 453.003906 95.027344 453.261719 93.410156 C 453.523438 91.792969 452.421875 90.378906 450.804688 90.253906 Z M 450.804688 90.253906 "/>
<path style=" stroke:none;fill-rule:nonzero;fill:rgb(100%,39.607844%,51.764709%);fill-opacity:1;" d="M 472.84375 84.484375 C 471.226562 84.359375 469.707031 85.570312 469.445312 87.1875 C 469.1875 88.804688 470.285156 90.21875 471.902344 90.347656 C 473.519531 90.472656 475.039062 89.261719 475.300781 87.644531 C 475.558594 86.027344 474.460938 84.613281 472.84375 84.484375 Z M 472.84375 84.484375 "/>
<path style=" stroke:none;fill-rule:nonzero;fill:rgb(24.705882%,23.921569%,33.725491%);fill-opacity:1;" d="M 445.695312 68.90625 C 444.078125 68.78125 442.558594 69.992188 442.296875 71.609375 C 442.039062 73.226562 443.136719 74.640625 444.753906 74.769531 C 446.371094 74.894531 447.890625 73.683594 448.148438 72.066406 C 448.410156 70.445312 447.308594 69.03125 445.695312 68.90625 Z M 445.695312 68.90625 "/>
<path style=" stroke:none;fill-rule:nonzero;fill:rgb(94.901961%,94.901961%,94.901961%);fill-opacity:1;" d="M 2.585938 236.335938 L 0 236.335938 L 0 0 L 199.851562 0 L 199.851562 1.800781 C 90.90625 1.800781 2.585938 63.316406 2.585938 139.195312 Z M 2.585938 236.335938 "/>
<path style=" stroke:none;fill-rule:nonzero;fill:rgb(100%,71.372551%,71.372551%);fill-opacity:1;" d="M 118.484375 444.023438 C 111.789062 442.113281 106.636719 438.253906 104.386719 433.464844 C 102.136719 428.675781 103.015625 423.441406 106.792969 419.144531 L 35.492188 349.335938 L 58.363281 330.855469 L 142.179688 414.195312 C 152.316406 419.273438 155.398438 428.832031 149.351562 436.441406 C 143.308594 444.050781 130.046875 447.308594 118.484375 444.023438 Z M 118.484375 444.023438 "/>
<path style=" stroke:none;fill-rule:nonzero;fill:rgb(42.352942%,38.82353%,100%);fill-opacity:1;" d="M 120.121094 222.804688 C 112.671875 219.75 103.136719 220.921875 97.632812 225.5625 L 1.292969 319.402344 L 90.574219 407.71875 L 125.507812 381.585938 L 71.164062 322.105469 L 143.390625 274.210938 C 155.683594 255.457031 145.636719 233.261719 120.121094 222.804688 Z M 120.121094 222.804688 "/>
</g>
</svg>
