<?xml version="1.0" encoding="UTF-8"?>
<svg xmlns="http://www.w3.org/2000/svg" xmlns:xlink="http://www.w3.org/1999/xlink" width="744px" height="602px" viewBox="0 0 744 602" version="1.1">
<g id="surface1">
<path style=" stroke:none;fill-rule:nonzero;fill:rgb(90.196079%,90.196079%,90.196079%);fill-opacity:1;" d="M 51.660156 557.640625 C 58.566406 560.8125 66.234375 559.046875 71.894531 552.988281 C 78.980469 545.21875 81.207031 532.421875 83.011719 520.570312 L 88.359375 485.519531 L 77.164062 495.585938 C 69.113281 502.828125 60.878906 510.300781 55.304688 520.785156 C 49.730469 531.273438 47.296875 545.589844 51.777344 556.933594 "/>
<path style=" stroke:none;fill-rule:nonzero;fill:rgb(94.901961%,94.901961%,94.901961%);fill-opacity:1;" d="M 52.617188 600.078125 C 51.484375 589.296875 50.320312 578.382812 51.113281 567.488281 C 51.820312 557.8125 54.078125 548.363281 58.683594 540.613281 C 61.125 536.507812 64.097656 532.988281 67.464844 530.21875 C 68.34375 529.496094 69.152344 531.3125 68.277344 532.03125 C 62.449219 536.84375 57.941406 543.945312 55.40625 552.316406 C 52.601562 561.625 52.152344 571.773438 52.636719 581.664062 C 52.929688 587.644531 53.550781 593.582031 54.171875 599.519531 C 54.277344 600.074219 54.03125 600.644531 53.609375 600.8125 C 53.183594 600.960938 52.742188 600.632812 52.621094 600.078125 Z M 52.617188 600.078125 "/>
<path style=" stroke:none;fill-rule:nonzero;fill:rgb(97.647059%,65.882355%,14.901961%);fill-opacity:1;" d="M 277.132812 367.84375 C 276.3125 368.355469 275.414062 368.628906 274.503906 368.652344 L 190.050781 371.679688 C 182.730469 371.886719 176.667969 364.304688 176.507812 354.746094 C 176.347656 345.1875 182.152344 337.269531 189.472656 337.058594 L 273.929688 334.035156 C 277.492188 333.9375 280.441406 337.625 280.523438 342.277344 L 280.816406 360.042969 C 280.871094 363.363281 279.429688 366.414062 277.132812 367.84375 Z M 277.132812 367.84375 "/>
<path style=" stroke:none;fill-rule:nonzero;fill:rgb(97.647059%,65.882355%,14.901961%);fill-opacity:1;" d="M 168.765625 600.300781 L 155.160156 600.300781 C 151.597656 600.296875 148.710938 596.527344 148.707031 591.875 L 148.707031 443.765625 C 148.710938 439.113281 151.597656 435.34375 155.160156 435.335938 L 168.765625 435.335938 C 172.332031 435.34375 175.21875 439.113281 175.222656 443.765625 L 175.222656 591.875 C 175.21875 596.527344 172.332031 600.296875 168.765625 600.300781 Z M 168.765625 600.300781 "/>
<path style=" stroke:none;fill-rule:nonzero;fill:rgb(97.647059%,65.882355%,14.901961%);fill-opacity:1;" d="M 204.898438 600.300781 L 191.292969 600.300781 C 187.730469 600.296875 184.84375 596.527344 184.839844 591.875 L 184.839844 443.765625 C 184.84375 439.113281 187.730469 435.34375 191.292969 435.335938 L 204.898438 435.335938 C 208.460938 435.34375 211.351562 439.113281 211.355469 443.765625 L 211.355469 591.875 C 211.351562 596.527344 208.460938 600.296875 204.898438 600.300781 Z M 204.898438 600.300781 "/>
<path style=" stroke:none;fill-rule:nonzero;fill:rgb(97.647059%,65.882355%,14.901961%);fill-opacity:1;" d="M 228.378906 219.96875 C 228.378906 186.054688 207.328125 158.5625 181.359375 158.5625 C 155.390625 158.5625 134.339844 186.054688 134.339844 219.96875 C 134.339844 253.878906 155.390625 281.371094 181.359375 281.371094 C 207.328125 281.371094 228.378906 253.878906 228.378906 219.96875 Z M 228.378906 219.96875 "/>
<path style=" stroke:none;fill-rule:nonzero;fill:rgb(18.431373%,18.039216%,25.490198%);fill-opacity:1;" d="M 197.320312 487.855469 L 163.492188 487.855469 C 149.183594 487.929688 135.945312 477.988281 128.789062 461.804688 C 121.636719 445.621094 121.664062 425.675781 128.867188 409.527344 L 176.167969 302.53125 C 177.238281 300.109375 179.21875 298.617188 181.359375 298.617188 C 183.5 298.617188 185.476562 300.109375 186.546875 302.53125 L 232.898438 407.375 C 240.238281 423.976562 240.238281 444.429688 232.898438 461.03125 C 225.558594 477.628906 211.996094 487.855469 197.320312 487.855469 Z M 197.320312 487.855469 "/>
<path style=" stroke:none;fill-rule:nonzero;fill:rgb(18.431373%,18.039216%,25.490198%);fill-opacity:1;" d="M 192.457031 245.742188 C 195.503906 245.632812 199.296875 245.496094 202.21875 242.707031 C 203.980469 240.957031 205.0625 238.28125 205.171875 235.394531 C 205.277344 233.339844 204.644531 231.339844 203.453125 229.984375 C 201.929688 228.300781 199.699219 227.90625 197.296875 228.828125 L 199.785156 205.078125 L 197.960938 204.75 L 195.035156 232.671875 L 196.558594 231.757812 C 198.328125 230.699219 200.757812 230.160156 202.265625 231.824219 C 203.015625 232.707031 203.410156 233.996094 203.328125 235.3125 C 203.238281 237.457031 202.4375 239.449219 201.132812 240.761719 C 198.859375 242.933594 195.835938 243.210938 192.40625 243.335938 Z M 192.457031 245.742188 "/>
<path style=" stroke:none;fill-rule:nonzero;fill:rgb(18.431373%,18.039216%,25.490198%);fill-opacity:1;" d="M 208.820312 207.128906 L 218.75 207.128906 L 218.75 209.535156 L 208.820312 209.535156 Z M 208.820312 207.128906 "/>
<path style=" stroke:none;fill-rule:nonzero;fill:rgb(18.431373%,18.039216%,25.490198%);fill-opacity:1;" d="M 177.476562 207.128906 L 187.40625 207.128906 L 187.40625 209.535156 L 177.476562 209.535156 Z M 177.476562 207.128906 "/>
<path style=" stroke:none;fill-rule:nonzero;fill:rgb(97.647059%,65.882355%,14.901961%);fill-opacity:1;" d="M 170.300781 474.125 C 169.910156 473.050781 169.699219 471.878906 169.679688 470.691406 L 167.363281 360.398438 C 167.203125 350.835938 173.007812 342.917969 180.328125 342.710938 C 187.648438 342.503906 193.710938 350.085938 193.871094 359.644531 L 196.1875 469.9375 C 196.261719 474.589844 193.4375 478.441406 189.878906 478.546875 L 176.273438 478.933594 C 173.730469 479.003906 171.394531 477.121094 170.300781 474.125 Z M 170.300781 474.125 "/>
<path style=" stroke:none;fill-rule:nonzero;fill:rgb(18.431373%,18.039216%,25.490198%);fill-opacity:1;" d="M 176.996094 174.578125 C 182.707031 184.332031 191.777344 190.878906 201.363281 189.328125 C 210.488281 187.851562 218.019531 179.542969 219.910156 167.648438 C 221.582031 156.238281 218.902344 144.476562 212.722656 136.117188 C 206.261719 127.242188 197.015625 122.46875 187.863281 120.832031 C 170.527344 117.730469 152.722656 125.707031 139.613281 140.582031 C 133.03125 147.976562 127.777344 157.171875 124.222656 167.519531 C 120.800781 177.792969 119.171875 188.925781 119.453125 200.121094 C 119.957031 222.246094 127.375 244.328125 140.179688 259 C 141.769531 260.816406 143.433594 262.519531 145.167969 264.097656 C 146.625 265.4375 148.011719 262.304688 146.5625 260.980469 C 133.449219 248.96875 125.085938 229.421875 122.792969 208.882812 C 120.359375 187.941406 125.097656 166.660156 135.746094 150.683594 C 146.335938 134.960938 161.859375 124.742188 177.9375 123.828125 C 194.117188 122.90625 214.335938 132.339844 217.363281 155.859375 C 218.71875 166.402344 215.703125 177.480469 208.304688 182.761719 C 200.386719 188.410156 190.671875 186.085938 183.867188 178.789062 C 182.199219 177.007812 180.695312 174.984375 179.382812 172.753906 C 178.316406 170.933594 175.914062 172.730469 176.996094 174.578125 Z M 176.996094 174.578125 "/>
<path style=" stroke:none;fill-rule:nonzero;fill:rgb(94.509804%,94.509804%,94.509804%);fill-opacity:1;" d="M 253.855469 89.507812 L 652.777344 14.25 L 680.125 261.460938 L 281.199219 336.722656 Z M 253.855469 89.507812 "/>
<path style=" stroke:none;fill-rule:nonzero;fill:rgb(100%,100%,100%);fill-opacity:1;" d="M 267.605469 108.554688 L 643.714844 37.601562 L 666.53125 243.859375 L 290.421875 314.8125 Z M 267.605469 108.554688 "/>
<path style=" stroke:none;fill-rule:nonzero;fill:rgb(89.803922%,89.803922%,89.803922%);fill-opacity:1;" d="M 252.105469 75.257812 L 651.027344 0 L 653.476562 22.132812 L 254.554688 97.390625 Z M 252.105469 75.257812 "/>
<path style=" stroke:none;fill-rule:nonzero;fill:rgb(100%,100%,100%);fill-opacity:1;" d="M 269.3125 85.898438 C 269.3125 83.609375 267.890625 81.753906 266.140625 81.753906 C 264.386719 81.753906 262.964844 83.609375 262.964844 85.898438 C 262.964844 88.1875 264.386719 90.042969 266.140625 90.042969 C 267.890625 90.042969 269.3125 88.1875 269.3125 85.898438 Z M 269.3125 85.898438 "/>
<path style=" stroke:none;fill-rule:nonzero;fill:rgb(100%,100%,100%);fill-opacity:1;" d="M 281.234375 83.648438 C 281.234375 81.359375 279.8125 79.503906 278.0625 79.503906 C 276.308594 79.503906 274.886719 81.359375 274.886719 83.648438 C 274.886719 85.9375 276.308594 87.792969 278.0625 87.792969 C 279.8125 87.792969 281.234375 85.9375 281.234375 83.648438 Z M 281.234375 83.648438 "/>
<path style=" stroke:none;fill-rule:nonzero;fill:rgb(100%,100%,100%);fill-opacity:1;" d="M 293.160156 81.398438 C 293.160156 79.109375 291.738281 77.253906 289.984375 77.253906 C 288.230469 77.253906 286.8125 79.109375 286.8125 81.398438 C 286.8125 83.6875 288.230469 85.542969 289.984375 85.542969 C 291.738281 85.542969 293.160156 83.6875 293.160156 81.398438 Z M 293.160156 81.398438 "/>
<path style=" stroke:none;fill-rule:nonzero;fill:rgb(90.196079%,90.196079%,90.196079%);fill-opacity:1;" d="M 341.351562 120.621094 L 744.417969 120.621094 L 744.417969 370.398438 L 341.351562 370.398438 Z M 341.351562 120.621094 "/>
<path style=" stroke:none;fill-rule:nonzero;fill:rgb(100%,100%,100%);fill-opacity:1;" d="M 352.878906 142.039062 L 732.890625 142.039062 L 732.890625 350.4375 L 352.878906 350.4375 Z M 352.878906 142.039062 "/>
<path style=" stroke:none;fill-rule:nonzero;fill:rgb(79.607844%,79.607844%,79.607844%);fill-opacity:1;" d="M 341.179688 106.1875 L 744.246094 106.1875 L 744.246094 128.550781 L 341.179688 128.550781 Z M 341.179688 106.1875 "/>
<path style=" stroke:none;fill-rule:nonzero;fill:rgb(100%,100%,100%);fill-opacity:1;" d="M 357.078125 119.339844 C 357.078125 117.050781 355.660156 115.195312 353.90625 115.195312 C 352.152344 115.195312 350.730469 117.050781 350.730469 119.339844 C 350.730469 121.628906 352.152344 123.484375 353.90625 123.484375 C 355.660156 123.484375 357.078125 121.628906 357.078125 119.339844 Z M 357.078125 119.339844 "/>
<path style=" stroke:none;fill-rule:nonzero;fill:rgb(100%,100%,100%);fill-opacity:1;" d="M 369.125 119.339844 C 369.125 117.050781 367.707031 115.195312 365.953125 115.195312 C 364.199219 115.195312 362.777344 117.050781 362.777344 119.339844 C 362.777344 121.628906 364.199219 123.484375 365.953125 123.484375 C 367.707031 123.484375 369.125 121.628906 369.125 119.339844 Z M 369.125 119.339844 "/>
<path style=" stroke:none;fill-rule:nonzero;fill:rgb(100%,100%,100%);fill-opacity:1;" d="M 381.171875 119.339844 C 381.171875 117.050781 379.753906 115.195312 378 115.195312 C 376.246094 115.195312 374.824219 117.050781 374.824219 119.339844 C 374.824219 121.628906 376.246094 123.484375 378 123.484375 C 379.753906 123.484375 381.171875 121.628906 381.171875 119.339844 Z M 381.171875 119.339844 "/>
<path style=" stroke:none;fill-rule:nonzero;fill:rgb(90.196079%,90.196079%,90.196079%);fill-opacity:1;" d="M 571.855469 173.722656 L 625.375 173.722656 L 625.375 178.976562 L 571.855469 178.976562 Z M 571.855469 173.722656 "/>
<path style=" stroke:none;fill-rule:nonzero;fill:rgb(90.196079%,90.196079%,90.196079%);fill-opacity:1;" d="M 571.855469 189.144531 L 654.5 189.144531 L 654.5 194.398438 L 571.855469 194.398438 Z M 571.855469 189.144531 "/>
<path style=" stroke:none;fill-rule:nonzero;fill:rgb(90.196079%,90.196079%,90.196079%);fill-opacity:1;" d="M 572.714844 203.832031 L 640.070312 203.832031 L 640.070312 209.085938 L 572.714844 209.085938 Z M 572.714844 203.832031 "/>
<path style=" stroke:none;fill-rule:nonzero;fill:rgb(90.196079%,90.196079%,90.196079%);fill-opacity:1;" d="M 571.855469 219.949219 L 611.175781 219.949219 L 611.175781 225.203125 L 571.855469 225.203125 Z M 571.855469 219.949219 "/>
<path style=" stroke:none;fill-rule:nonzero;fill:rgb(90.196079%,90.196079%,90.196079%);fill-opacity:1;" d="M 571.855469 235.691406 L 631.199219 235.691406 L 631.199219 240.945312 L 571.855469 240.945312 Z M 571.855469 235.691406 "/>
<path style=" stroke:none;fill-rule:nonzero;fill:rgb(90.196079%,90.196079%,90.196079%);fill-opacity:1;" d="M 547.460938 172.070312 L 554.015625 172.070312 L 554.015625 180.628906 L 547.460938 180.628906 Z M 547.460938 172.070312 "/>
<path style=" stroke:none;fill-rule:nonzero;fill:rgb(90.196079%,90.196079%,90.196079%);fill-opacity:1;" d="M 547.460938 187.492188 L 554.015625 187.492188 L 554.015625 196.050781 L 547.460938 196.050781 Z M 547.460938 187.492188 "/>
<path style=" stroke:none;fill-rule:nonzero;fill:rgb(90.196079%,90.196079%,90.196079%);fill-opacity:1;" d="M 547.460938 202.179688 L 554.015625 202.179688 L 554.015625 210.738281 L 547.460938 210.738281 Z M 547.460938 202.179688 "/>
<path style=" stroke:none;fill-rule:nonzero;fill:rgb(90.196079%,90.196079%,90.196079%);fill-opacity:1;" d="M 547.460938 218.296875 L 554.015625 218.296875 L 554.015625 226.855469 L 547.460938 226.855469 Z M 547.460938 218.296875 "/>
<path style=" stroke:none;fill-rule:nonzero;fill:rgb(90.196079%,90.196079%,90.196079%);fill-opacity:1;" d="M 547.460938 234.039062 L 554.015625 234.039062 L 554.015625 242.597656 L 547.460938 242.597656 Z M 547.460938 234.039062 "/>
<path style=" stroke:none;fill-rule:nonzero;fill:rgb(90.196079%,90.196079%,90.196079%);fill-opacity:1;" d="M 571.855469 251.53125 L 625.375 251.53125 L 625.375 256.785156 L 571.855469 256.785156 Z M 571.855469 251.53125 "/>
<path style=" stroke:none;fill-rule:nonzero;fill:rgb(90.196079%,90.196079%,90.196079%);fill-opacity:1;" d="M 571.855469 266.953125 L 654.5 266.953125 L 654.5 272.207031 L 571.855469 272.207031 Z M 571.855469 266.953125 "/>
<path style=" stroke:none;fill-rule:nonzero;fill:rgb(90.196079%,90.196079%,90.196079%);fill-opacity:1;" d="M 572.714844 281.640625 L 640.070312 281.640625 L 640.070312 286.894531 L 572.714844 286.894531 Z M 572.714844 281.640625 "/>
<path style=" stroke:none;fill-rule:nonzero;fill:rgb(90.196079%,90.196079%,90.196079%);fill-opacity:1;" d="M 571.855469 297.757812 L 611.175781 297.757812 L 611.175781 303.011719 L 571.855469 303.011719 Z M 571.855469 297.757812 "/>
<path style=" stroke:none;fill-rule:nonzero;fill:rgb(90.196079%,90.196079%,90.196079%);fill-opacity:1;" d="M 571.855469 313.5 L 631.199219 313.5 L 631.199219 318.753906 L 571.855469 318.753906 Z M 571.855469 313.5 "/>
<path style=" stroke:none;fill-rule:nonzero;fill:rgb(90.196079%,90.196079%,90.196079%);fill-opacity:1;" d="M 547.460938 249.878906 L 554.015625 249.878906 L 554.015625 258.4375 L 547.460938 258.4375 Z M 547.460938 249.878906 "/>
<path style=" stroke:none;fill-rule:nonzero;fill:rgb(90.196079%,90.196079%,90.196079%);fill-opacity:1;" d="M 547.460938 265.300781 L 554.015625 265.300781 L 554.015625 273.859375 L 547.460938 273.859375 Z M 547.460938 265.300781 "/>
<path style=" stroke:none;fill-rule:nonzero;fill:rgb(90.196079%,90.196079%,90.196079%);fill-opacity:1;" d="M 547.460938 279.988281 L 554.015625 279.988281 L 554.015625 288.546875 L 547.460938 288.546875 Z M 547.460938 279.988281 "/>
<path style=" stroke:none;fill-rule:nonzero;fill:rgb(90.196079%,90.196079%,90.196079%);fill-opacity:1;" d="M 547.460938 296.105469 L 554.015625 296.105469 L 554.015625 304.664062 L 547.460938 304.664062 Z M 547.460938 296.105469 "/>
<path style=" stroke:none;fill-rule:nonzero;fill:rgb(90.196079%,90.196079%,90.196079%);fill-opacity:1;" d="M 547.460938 311.847656 L 554.015625 311.847656 L 554.015625 320.40625 L 547.460938 320.40625 Z M 547.460938 311.847656 "/>
<path style=" stroke:none;fill-rule:nonzero;fill:rgb(90.196079%,90.196079%,90.196079%);fill-opacity:1;" d="M 402.542969 292.738281 L 456.0625 292.738281 L 456.0625 297.992188 L 402.542969 297.992188 Z M 402.542969 292.738281 "/>
<path style=" stroke:none;fill-rule:nonzero;fill:rgb(90.196079%,90.196079%,90.196079%);fill-opacity:1;" d="M 395.382812 306.390625 L 462.738281 306.390625 L 462.738281 311.644531 L 395.382812 311.644531 Z M 395.382812 306.390625 "/>
<path style=" stroke:none;fill-rule:nonzero;fill:rgb(90.196079%,90.196079%,90.196079%);fill-opacity:1;" d="M 464.089844 226.46875 C 464.085938 242.53125 457.617188 257.410156 447.058594 265.644531 C 436.5 273.882812 423.40625 274.269531 412.574219 266.660156 L 412.566406 266.652344 C 397.523438 256.066406 390.542969 232.828125 396.074219 211.707031 C 401.601562 190.589844 418.011719 177.792969 434.871094 181.449219 C 451.730469 185.109375 464.089844 204.152344 464.089844 226.46875 Z M 464.089844 226.46875 "/>
<path style=" stroke:none;fill-rule:nonzero;fill:rgb(100%,100%,100%);fill-opacity:1;" d="M 438.820312 211.847656 C 438.820312 204.996094 434.566406 199.441406 429.320312 199.441406 C 424.074219 199.441406 419.820312 204.996094 419.820312 211.847656 C 419.820312 218.699219 424.074219 224.253906 429.320312 224.253906 C 434.566406 224.253906 438.820312 218.699219 438.820312 211.847656 Z M 438.820312 211.847656 "/>
<path style=" stroke:none;fill-rule:nonzero;fill:rgb(100%,100%,100%);fill-opacity:1;" d="M 445.542969 249.886719 C 434.921875 254.757812 423.34375 254.699219 412.75 249.722656 L 412.746094 249.714844 L 419.820312 231.472656 L 438.820312 231.472656 Z M 445.542969 249.886719 "/>
<path style=" stroke:none;fill-rule:nonzero;fill:rgb(97.647059%,65.882355%,14.901961%);fill-opacity:1;" d="M 324.140625 339.75 C 307.585938 339.75 294.113281 321.0625 294.113281 298.089844 C 294.113281 275.121094 307.585938 256.433594 324.140625 256.433594 C 340.699219 256.433594 354.171875 275.121094 354.171875 298.089844 C 354.171875 321.0625 340.699219 339.75 324.140625 339.75 Z M 324.140625 266.960938 C 312.027344 266.960938 302.171875 280.925781 302.171875 298.089844 C 302.171875 315.257812 312.027344 329.226562 324.140625 329.226562 C 336.257812 329.226562 346.113281 315.257812 346.113281 298.089844 C 346.113281 280.925781 336.257812 266.960938 324.140625 266.960938 Z M 324.140625 266.960938 "/>
<path style=" stroke:none;fill-rule:nonzero;fill:rgb(24.705882%,23.921569%,33.725491%);fill-opacity:1;" d="M 352.578125 412.351562 L 295.707031 412.351562 C 285.261719 412.335938 276.800781 401.285156 276.789062 387.648438 L 276.789062 314.792969 C 276.796875 305.457031 282.589844 297.890625 289.738281 297.878906 L 358.542969 297.878906 C 365.695312 297.890625 371.488281 305.457031 371.496094 314.792969 L 371.496094 387.648438 C 371.484375 401.285156 363.019531 412.335938 352.578125 412.351562 Z M 352.578125 412.351562 "/>
<path style=" stroke:none;fill-rule:nonzero;fill:rgb(100%,100%,100%);fill-opacity:1;" d="M 335.226562 339.324219 C 335.230469 332.207031 331.269531 326.140625 325.882812 325.023438 C 320.5 323.902344 315.292969 328.0625 313.605469 334.832031 C 311.917969 341.601562 314.25 348.96875 319.105469 352.207031 L 319.105469 374.851562 L 329.179688 374.851562 L 329.179688 352.207031 C 332.886719 349.738281 335.222656 344.761719 335.226562 339.324219 Z M 335.226562 339.324219 "/>
<path style=" stroke:none;fill-rule:nonzero;fill:rgb(24.705882%,23.921569%,33.725491%);fill-opacity:1;" d="M 352.179688 601.980469 L 0.921875 601.980469 C 0.414062 601.980469 0 601.441406 0 600.777344 C 0 600.113281 0.414062 599.574219 0.921875 599.574219 L 352.179688 599.574219 C 352.6875 599.574219 353.101562 600.113281 353.101562 600.777344 C 353.101562 601.441406 352.6875 601.980469 352.179688 601.980469 Z M 352.179688 601.980469 "/>
</g>
</svg>
