<?xml version="1.0" encoding="UTF-8"?>
<svg xmlns="http://www.w3.org/2000/svg" xmlns:xlink="http://www.w3.org/1999/xlink" width="744px" height="602px" viewBox="0 0 744 602" version="1.1">
<g id="surface1">
<path style=" stroke:none;fill-rule:nonzero;fill:rgb(94.901961%,94.901961%,94.901961%);fill-opacity:1;" d="M 299.714844 244.757812 C 299.714844 206.792969 264.984375 176.015625 222.140625 176.015625 C 179.300781 176.015625 144.570312 206.792969 144.570312 244.757812 C 144.570312 282.722656 179.300781 313.5 222.140625 313.5 C 264.984375 313.5 299.714844 282.722656 299.714844 244.757812 Z M 299.714844 244.757812 "/>
<path style=" stroke:none;fill-rule:nonzero;fill:rgb(100%,100%,100%);fill-opacity:1;" d="M 256.410156 237.082031 L 230.804688 237.082031 L 230.804688 214.390625 C 230.804688 210.152344 226.925781 206.71875 222.140625 206.71875 C 217.359375 206.71875 213.480469 210.152344 213.480469 214.390625 L 213.480469 237.082031 L 187.875 237.082031 C 183.089844 237.082031 179.214844 240.519531 179.214844 244.757812 C 179.214844 248.996094 183.089844 252.433594 187.875 252.433594 L 213.480469 252.433594 L 213.480469 275.125 C 213.480469 279.363281 217.359375 282.796875 222.140625 282.796875 C 226.925781 282.796875 230.804688 279.363281 230.804688 275.125 L 230.804688 252.433594 L 256.410156 252.433594 C 261.195312 252.433594 265.070312 248.996094 265.070312 244.757812 C 265.070312 240.519531 261.195312 237.082031 256.410156 237.082031 Z M 256.410156 237.082031 "/>
<path style=" stroke:none;fill-rule:nonzero;fill:rgb(18.431373%,18.039216%,25.490198%);fill-opacity:1;" d="M 612.867188 87.570312 C 618.351562 118.179688 608.292969 125.511719 598.550781 133.316406 C 575.03125 117.847656 559.835938 116.078125 538.234375 121.558594 C 538.222656 121.296875 538.230469 106.496094 538.207031 106.246094 C 537.890625 103.152344 536.964844 112.863281 534.707031 111.144531 C 534.285156 113.933594 531.308594 122.960938 531.027344 123.617188 L 531.027344 123.628906 C 528.675781 124.617188 526.242188 125.859375 523.703125 127.378906 C 529.597656 104.421875 530.402344 69.988281 521.777344 55.941406 C 521.777344 35.125 548.15625 42.390625 566.859375 29.789062 C 576.699219 23.164062 590.480469 33.832031 598.539062 40.972656 C 598.617188 41.042969 598.695312 41.113281 598.773438 41.179688 C 612.570312 53.292969 618.058594 70.988281 612.867188 87.570312 Z M 612.867188 87.570312 "/>
<path style=" stroke:none;fill-rule:nonzero;fill:rgb(62.7451%,38.039216%,41.568628%);fill-opacity:1;" d="M 605.246094 578.257812 L 592.546875 578.488281 L 585.46875 534.230469 L 604.207031 533.886719 Z M 605.246094 578.257812 "/>
<path style=" stroke:none;fill-rule:nonzero;fill:rgb(18.431373%,18.039216%,25.490198%);fill-opacity:1;" d="M 565.167969 597.195312 C 565.234375 599.972656 567.828125 602.179688 570.960938 602.125 L 596.210938 601.660156 L 600.367188 593.609375 L 602.253906 601.542969 L 611.78125 601.375 L 608.441406 572.984375 L 605.121094 572.871094 L 591.578125 572.394531 L 587.207031 572.25 L 587.394531 580.300781 L 567.519531 593.011719 C 566.007812 593.980469 565.128906 595.542969 565.167969 597.195312 Z M 565.167969 597.195312 "/>
<path style=" stroke:none;fill-rule:nonzero;fill:rgb(62.7451%,38.039216%,41.568628%);fill-opacity:1;" d="M 515.394531 202.574219 C 516.292969 218.359375 512.664062 232.6875 503.640625 245.277344 L 591.792969 244.238281 L 587.089844 206.742188 Z M 515.394531 202.574219 "/>
<path style=" stroke:none;fill-rule:nonzero;fill:rgb(94.901961%,94.901961%,94.901961%);fill-opacity:1;" d="M 619.339844 444.730469 L 37.683594 444.730469 C 16.90625 444.730469 0 429.75 0 411.335938 L 0 33.394531 C 0 14.980469 16.90625 0 37.683594 0 L 619.339844 0 C 640.117188 0 657.023438 14.980469 657.023438 33.394531 L 657.023438 411.335938 C 657.023438 429.75 640.117188 444.730469 619.339844 444.730469 Z M 389.460938 2.082031 C 175.664062 2.082031 2.351562 155.664062 2.351562 345.113281 L 2.351562 411.335938 C 2.351562 428.628906 18.171875 442.648438 37.6875 442.648438 L 619.339844 442.648438 C 638.851562 442.648438 654.671875 428.628906 654.671875 411.335938 L 654.671875 33.394531 C 654.671875 16.101562 638.851562 2.082031 619.339844 2.082031 Z M 389.460938 2.082031 "/>
<path style=" stroke:none;fill-rule:nonzero;fill:rgb(18.431373%,18.039216%,25.490198%);fill-opacity:1;" d="M 593.554688 235.382812 L 504.226562 244.757812 L 493.648438 296.832031 L 508.929688 384.320312 L 517.15625 427.023438 L 575.925781 567.628906 L 614.710938 562.414062 L 576.511719 404.632812 L 610.019531 331.203125 C 610.019531 331.203125 621.175781 279.648438 598.84375 261.941406 Z M 593.554688 235.382812 "/>
<path style=" stroke:none;fill-rule:nonzero;fill:rgb(97.647059%,65.882355%,14.901961%);fill-opacity:1;" d="M 581.214844 97.382812 L 544.777344 96.339844 L 536.550781 116.128906 L 520.09375 126.546875 L 514.21875 154.667969 C 514.21875 154.667969 493.0625 172.371094 497.761719 184.871094 C 502.464844 197.367188 507.753906 214.554688 507.753906 214.554688 L 590.617188 224.449219 L 616.472656 127.585938 L 589.441406 114.046875 Z M 581.214844 97.382812 "/>
<path style=" stroke:none;fill-rule:nonzero;fill:rgb(62.7451%,38.039216%,41.568628%);fill-opacity:1;" d="M 387.433594 222.585938 L 422.636719 210.121094 L 433.480469 226.949219 L 395.730469 238.953125 C 395.140625 239.90625 394.386719 240.796875 393.464844 241.59375 C 388.445312 245.929688 380.410156 245.835938 375.519531 241.386719 C 370.628906 236.941406 370.734375 229.820312 375.753906 225.488281 C 378.953125 222.722656 383.378906 221.769531 387.433594 222.585938 Z M 387.433594 222.585938 "/>
<path style=" stroke:none;fill-rule:nonzero;fill:rgb(97.647059%,65.882355%,14.901961%);fill-opacity:1;" d="M 544.148438 129.316406 C 541.773438 124.160156 551.019531 119.398438 546.0625 115.441406 C 539.292969 110.042969 528.171875 117.367188 519.808594 125.890625 C 515.941406 129.84375 512.648438 134.050781 510.675781 137.359375 L 508.273438 139.878906 L 497.882812 154.054688 L 460.917969 186.816406 L 453.386719 193.429688 L 400.832031 215.316406 L 400.9375 215.667969 C 401.0625 216.113281 401.269531 216.777344 401.515625 217.609375 C 402.828125 221.902344 405.59375 230.546875 408 235.054688 C 408.84375 236.617188 409.628906 237.671875 410.296875 237.890625 C 410.511719 237.960938 411.121094 237.875 412.074219 237.640625 C 418.472656 236.085938 440.476562 228.246094 462.09375 220.324219 C 481.777344 213.117188 475.289062 213.128906 482.292969 210.492188 L 482.417969 210.445312 L 538.222656 166.78125 L 542.835938 163.226562 C 552.949219 152.09375 549.898438 141.777344 544.148438 129.316406 Z M 544.148438 129.316406 "/>
<path style=" stroke:none;fill-rule:nonzero;fill:rgb(62.7451%,38.039216%,41.568628%);fill-opacity:1;" d="M 609.449219 567.554688 L 598.039062 572.5 L 570.605469 534.984375 L 587.445312 527.6875 Z M 609.449219 567.554688 "/>
<path style=" stroke:none;fill-rule:nonzero;fill:rgb(18.431373%,18.039216%,25.490198%);fill-opacity:1;" d="M 582.078125 599.675781 C 583.457031 602.171875 586.855469 603.203125 589.675781 601.988281 L 612.359375 592.15625 L 612.3125 583.300781 L 617.789062 589.796875 L 626.351562 586.09375 L 609.84375 561.582031 L 606.777344 562.71875 L 594.265625 567.332031 L 590.234375 568.828125 L 594.226562 576.066406 L 582.226562 595.003906 C 581.316406 596.445312 581.257812 598.191406 582.078125 599.675781 Z M 582.078125 599.675781 "/>
<path style=" stroke:none;fill-rule:nonzero;fill:rgb(18.431373%,18.039216%,25.490198%);fill-opacity:1;" d="M 537.726562 321.308594 L 493.515625 408.828125 C 486.613281 422.492188 487.792969 438.296875 496.664062 451.035156 L 567.695312 553.046875 L 603.789062 550.195312 L 576.511719 404.632812 "/>
<path style=" stroke:none;fill-rule:nonzero;fill:rgb(62.7451%,38.039216%,41.568628%);fill-opacity:1;" d="M 597.5 64.292969 C 597.5 48.324219 582.890625 35.378906 564.871094 35.378906 C 546.851562 35.378906 532.242188 48.324219 532.242188 64.292969 C 532.242188 80.261719 546.851562 93.207031 564.871094 93.207031 C 582.890625 93.207031 597.5 80.261719 597.5 64.292969 Z M 597.5 64.292969 "/>
<path style=" stroke:none;fill-rule:nonzero;fill:rgb(18.431373%,18.039216%,25.490198%);fill-opacity:1;" d="M 608.433594 65.148438 C 607.222656 71.0625 606.917969 78.75 603.109375 83.882812 C 600.40625 87.539062 595.550781 86.75 591.132812 86.75 L 587.546875 89.738281 C 586.632812 87.332031 588.054688 83.71875 589.347656 81.582031 C 590.628906 79.480469 593.214844 78.238281 594.414062 76.074219 C 595.269531 74.519531 599.464844 63.011719 593.414062 65.242188 L 593.34375 65.273438 C 591.167969 66.054688 588.792969 64.625 588.757812 62.542969 C 588.734375 61.128906 588.675781 59.605469 588.535156 58.542969 C 588.101562 55.304688 588.289062 50.429688 586.527344 47.617188 C 581.976562 48.804688 584.539062 55.699219 578.875 55.898438 C 575.949219 56.003906 573.019531 56.097656 570.105469 56.199219 C 570.175781 53.730469 569.554688 51.148438 567.753906 49.796875 C 567.4375 51.960938 567.214844 54.285156 566.320312 56.324219 C 565.203125 56.355469 563.910156 55.878906 562.996094 56.429688 C 556.089844 60.578125 549.152344 61.421875 543.015625 57.710938 C 542.816406 55.792969 542.121094 53.980469 540.722656 52.917969 C 540.464844 54.648438 540.277344 56.480469 539.746094 58.191406 C 534.070312 59.898438 530.800781 66.199219 526.15625 63.78125 C 510.160156 55.449219 535.691406 22.351562 555.695312 31.882812 C 564.007812 35.839844 573.375 31.777344 582.613281 33.484375 C 589.476562 34.753906 596.515625 38.191406 601.382812 42.660156 C 608.199219 48.910156 610.140625 56.855469 608.433594 65.148438 Z M 608.433594 65.148438 "/>
<path style=" stroke:none;fill-rule:nonzero;fill:rgb(18.431373%,18.039216%,25.490198%);fill-opacity:1;" d="M 594.691406 41.101562 C 590.59375 38.3125 583.523438 48.242188 582.363281 54.527344 C 580.398438 65.15625 603.730469 62.738281 587.613281 90.410156 C 582.191406 99.710938 587.5625 109.058594 583.363281 117.554688 C 580.230469 123.890625 574.464844 131.476562 569.132812 131.371094 C 577.828125 130.507812 592.773438 128.597656 597.863281 115.027344 C 600.636719 107.636719 599.195312 99.105469 599.714844 91.003906 C 600.300781 81.859375 599.808594 70.394531 601.355469 61.691406 "/>
<path style=" stroke:none;fill-rule:nonzero;fill:rgb(24.705882%,23.921569%,33.725491%);fill-opacity:1;" d="M 200.953125 84.917969 C 199.65625 84.917969 198.601562 85.851562 198.601562 87 L 198.601562 119.289062 C 198.601562 120.4375 199.65625 121.371094 200.953125 121.371094 C 202.25 121.371094 203.304688 120.4375 203.304688 119.289062 L 203.304688 87 C 203.304688 85.851562 202.25 84.917969 200.953125 84.917969 Z M 200.953125 84.917969 "/>
<path style=" stroke:none;fill-rule:nonzero;fill:rgb(97.647059%,65.882355%,14.901961%);fill-opacity:1;" d="M 238.640625 103.320312 C 238.640625 96.304688 232.082031 90.613281 223.992188 90.613281 C 215.898438 90.613281 209.339844 96.304688 209.339844 103.320312 C 209.339844 110.339844 215.898438 116.027344 223.992188 116.027344 C 232.082031 116.027344 238.640625 110.339844 238.640625 103.320312 Z M 238.640625 103.320312 "/>
<path style=" stroke:none;fill-rule:nonzero;fill:rgb(94.901961%,94.901961%,94.901961%);fill-opacity:1;" d="M 341.421875 98.972656 L 262.574219 98.972656 C 259.871094 98.972656 257.667969 97.023438 257.667969 94.625 C 257.667969 92.230469 259.871094 90.28125 262.574219 90.28125 L 341.421875 90.28125 C 344.128906 90.28125 346.328125 92.230469 346.328125 94.625 C 346.328125 97.023438 344.128906 98.972656 341.421875 98.972656 Z M 341.421875 98.972656 "/>
<path style=" stroke:none;fill-rule:nonzero;fill:rgb(94.901961%,94.901961%,94.901961%);fill-opacity:1;" d="M 402.957031 113.6875 L 262.574219 113.6875 C 259.871094 113.6875 257.667969 111.738281 257.667969 109.339844 C 257.667969 106.941406 259.871094 104.992188 262.574219 104.992188 L 402.957031 104.992188 C 405.664062 104.992188 407.863281 106.941406 407.863281 109.339844 C 407.863281 111.738281 405.664062 113.6875 402.957031 113.6875 Z M 402.957031 113.6875 "/>
<path style=" stroke:none;fill-rule:nonzero;fill:rgb(100%,100%,100%);fill-opacity:1;" d="M 119.886719 55.722656 C 119.886719 33 99.101562 14.582031 73.460938 14.582031 C 47.820312 14.582031 27.03125 33 27.03125 55.722656 C 27.03125 78.441406 47.820312 96.863281 73.460938 96.863281 C 99.101562 96.863281 119.886719 78.441406 119.886719 55.722656 Z M 119.886719 55.722656 "/>
<path style=" stroke:none;fill-rule:nonzero;fill:rgb(18.431373%,18.039216%,25.490198%);fill-opacity:1;" d="M 46.5625 64.539062 L 54.878906 91.113281 C 68.539062 82.128906 77.347656 72.648438 89.894531 75.832031 C 89.902344 75.679688 89.917969 75.535156 89.929688 75.390625 C 90.113281 73.59375 90.761719 71.898438 92.074219 70.898438 C 92.320312 72.519531 92.492188 74.238281 92.988281 75.835938 C 93.113281 76.234375 93.253906 76.628906 93.417969 77.011719 L 93.417969 77.015625 C 94.785156 77.589844 96.199219 78.3125 97.671875 79.195312 L 97.671875 53.542969 C 97.671875 41.449219 85.066406 37.085938 73.285156 30.976562 C 64.242188 26.285156 59.566406 33.324219 54.886719 37.472656 C 54.839844 37.515625 54.792969 37.554688 54.746094 37.59375 C 46.734375 44.628906 43.546875 54.910156 46.5625 64.539062 Z M 46.5625 64.539062 "/>
<path style=" stroke:none;fill-rule:nonzero;fill:rgb(62.7451%,38.039216%,41.568628%);fill-opacity:1;" d="M 93.394531 51.019531 C 93.394531 41.742188 84.910156 34.222656 74.441406 34.222656 C 63.972656 34.222656 55.488281 41.742188 55.488281 51.019531 C 55.488281 60.296875 63.972656 67.816406 74.441406 67.816406 C 84.910156 67.816406 93.394531 60.296875 93.394531 51.019531 Z M 93.394531 51.019531 "/>
<path style=" stroke:none;fill-rule:nonzero;fill:rgb(18.431373%,18.039216%,25.490198%);fill-opacity:1;" d="M 49.136719 51.515625 C 49.839844 54.953125 50.015625 59.417969 52.230469 62.398438 C 53.800781 64.523438 56.621094 64.0625 59.1875 64.0625 L 61.269531 65.800781 C 61.800781 64.402344 60.976562 62.304688 60.222656 61.0625 C 59.480469 59.839844 57.976562 59.121094 57.28125 57.863281 C 56.78125 56.960938 54.34375 50.277344 57.863281 51.570312 L 57.902344 51.589844 C 59.164062 52.042969 60.546875 51.214844 60.566406 50.003906 C 60.578125 49.179688 60.613281 48.296875 60.695312 47.679688 C 60.949219 45.796875 60.839844 42.96875 61.863281 41.332031 C 64.503906 42.023438 63.015625 46.027344 66.308594 46.144531 C 68.007812 46.203125 69.707031 46.257812 71.402344 46.320312 C 71.359375 44.886719 71.722656 43.382812 72.765625 42.597656 C 72.949219 43.855469 73.082031 45.207031 73.597656 46.390625 C 74.246094 46.410156 74.890625 46.425781 75.53125 46.453125 C 79.328125 46.578125 82.699219 47.707031 86.457031 47.5625 C 86.570312 46.449219 86.972656 45.398438 87.785156 44.78125 C 87.9375 45.785156 88.046875 46.851562 88.351562 47.84375 C 91.652344 48.835938 94.457031 51.644531 97.152344 50.242188 C 106.445312 45.402344 91.390625 26.65625 79.769531 32.191406 C 74.945312 34.492188 69.503906 32.132812 64.136719 33.125 C 60.148438 33.863281 56.058594 35.859375 53.234375 38.453125 C 49.273438 42.082031 48.144531 46.699219 49.136719 51.515625 Z M 49.136719 51.515625 "/>
<path style=" stroke:none;fill-rule:nonzero;fill:rgb(18.431373%,18.039216%,25.490198%);fill-opacity:1;" d="M 57.117188 37.550781 C 59.5 35.925781 63.605469 41.695312 64.28125 45.347656 C 65.421875 51.519531 61.761719 59.882812 61.230469 66.191406 C 60.722656 72.253906 61.257812 77.023438 63.699219 81.957031 C 65.519531 85.636719 68.867188 90.042969 71.964844 89.984375 C 66.914062 89.480469 58.234375 88.375 55.277344 80.488281 C 53.664062 76.195312 54.503906 71.242188 54.199219 66.535156 C 53.859375 61.222656 54.148438 54.5625 53.246094 49.507812 "/>
<path style=" stroke:none;fill-rule:nonzero;fill:rgb(94.901961%,94.901961%,94.901961%);fill-opacity:1;" d="M 680.601562 584.1875 C 683.027344 584.320312 684.371094 581.648438 682.53125 580.089844 L 682.351562 579.445312 C 682.375 579.394531 682.398438 579.34375 682.421875 579.292969 C 684.878906 574.101562 693.199219 574.136719 695.636719 579.335938 C 697.796875 583.945312 700.546875 588.566406 701.226562 593.441406 C 701.527344 595.597656 701.390625 597.789062 700.851562 599.902344 C 705.917969 590.101562 708.582031 579.398438 708.582031 568.632812 C 708.582031 565.929688 708.414062 563.226562 708.074219 560.527344 C 707.792969 558.320312 707.40625 556.128906 706.902344 553.957031 C 704.195312 542.210938 698.324219 531.023438 689.859375 521.679688 C 685.792969 519.707031 682.398438 516.625 680.347656 512.933594 C 679.613281 511.601562 679.035156 510.167969 678.761719 508.710938 C 679.226562 508.761719 680.507812 502.511719 680.160156 502.128906 C 680.804688 501.261719 681.960938 500.832031 682.664062 499.984375 C 686.167969 495.773438 691 496.507812 693.519531 502.230469 C 698.90625 504.640625 698.957031 508.632812 695.652344 512.476562 C 693.550781 514.921875 693.261719 518.226562 691.417969 520.84375 C 691.605469 521.058594 691.804688 521.269531 691.992188 521.484375 C 695.472656 525.4375 698.484375 529.691406 701.023438 534.15625 C 700.304688 529.195312 701.363281 523.214844 703.167969 519.359375 C 705.222656 514.964844 709.074219 511.265625 712.464844 507.46875 C 716.539062 502.90625 724.894531 504.898438 725.613281 510.679688 C 725.617188 510.738281 725.625 510.792969 725.632812 510.847656 C 725.128906 511.101562 724.632812 511.367188 724.152344 511.648438 C 721.402344 513.261719 722.351562 517.039062 725.609375 517.484375 L 725.683594 517.496094 C 725.503906 519.101562 725.191406 520.695312 724.734375 522.265625 C 729.085938 537.175781 719.695312 542.605469 706.28125 542.847656 C 705.984375 542.984375 705.695312 543.117188 705.402344 543.246094 C 706.757812 546.636719 707.84375 550.113281 708.648438 553.640625 C 709.371094 556.753906 709.871094 559.902344 710.152344 563.0625 C 710.5 567.054688 710.472656 571.0625 710.09375 575.042969 L 710.113281 574.902344 C 711.078125 570.515625 713.765625 566.421875 717.667969 563.582031 C 723.480469 559.351562 731.695312 557.792969 737.964844 554.390625 C 740.984375 552.753906 744.851562 554.871094 744.324219 557.972656 L 744.300781 558.121094 C 743.367188 558.457031 742.453125 558.847656 741.574219 559.28125 C 741.070312 559.535156 740.578125 559.800781 740.09375 560.085938 C 737.34375 561.695312 738.296875 565.472656 741.554688 565.917969 L 741.625 565.929688 C 741.679688 565.9375 741.726562 565.941406 741.777344 565.949219 C 740.175781 569.320312 737.945312 572.449219 735.152344 575.144531 C 732.429688 588.160156 720.746094 589.398438 708.246094 585.605469 L 708.238281 585.605469 C 706.875 590.878906 704.875 596.03125 702.3125 600.945312 L 681.128906 600.945312 C 681.054688 600.734375 680.984375 600.519531 680.917969 600.3125 C 682.875 600.417969 684.851562 600.316406 686.777344 600.003906 C 685.207031 598.292969 683.636719 596.570312 682.0625 594.863281 C 682.027344 594.828125 681.996094 594.796875 681.964844 594.761719 C 681.167969 593.886719 680.363281 593.019531 679.566406 592.144531 C 679.515625 589.460938 679.878906 586.785156 680.597656 584.1875 Z M 680.601562 584.1875 "/>
<path style=" stroke:none;fill-rule:nonzero;fill:rgb(80.000001%,80.000001%,80.000001%);fill-opacity:1;" d="M 443.707031 601 C 443.707031 601.6875 444.328125 602.238281 445.105469 602.238281 L 742.808594 602.238281 C 743.585938 602.238281 744.207031 601.6875 744.207031 601 C 744.207031 600.3125 743.585938 599.761719 742.808594 599.761719 L 445.105469 599.761719 C 444.328125 599.761719 443.707031 600.3125 443.707031 601 Z M 443.707031 601 "/>
<path style=" stroke:none;fill-rule:nonzero;fill:rgb(24.705882%,23.921569%,33.725491%);fill-opacity:1;" d="M 384.339844 242.675781 L 384.339844 353.074219 C 384.339844 362.839844 375.378906 370.78125 364.359375 370.78125 L 239.773438 370.78125 C 228.753906 370.78125 219.792969 362.839844 219.792969 353.074219 L 219.792969 242.675781 C 219.792969 232.910156 228.753906 224.96875 239.773438 224.96875 L 364.359375 224.96875 C 375.378906 224.96875 384.339844 232.910156 384.339844 242.675781 Z M 364.359375 368.699219 C 374.097656 368.699219 381.992188 361.703125 381.992188 353.074219 L 381.992188 297.417969 C 381.992188 258.554688 346.4375 227.050781 302.585938 227.050781 L 239.773438 227.050781 C 230.035156 227.050781 222.140625 234.046875 222.140625 242.675781 L 222.140625 353.074219 C 222.140625 361.703125 230.035156 368.699219 239.773438 368.699219 Z M 364.359375 368.699219 "/>
<path style=" stroke:none;fill-rule:nonzero;fill:rgb(97.647059%,65.882355%,14.901961%);fill-opacity:1;" d="M 382.140625 297.875 C 382.140625 258.6875 344.761719 237.128906 302.066406 226.921875 C 247.328125 213.828125 207.234375 240.320312 221.992188 297.875 C 231.792969 336.089844 281.523438 393.117188 302.066406 358.414062 C 325.574219 318.707031 382.140625 337.0625 382.140625 297.875 Z M 382.140625 297.875 "/>
<path style=" stroke:none;fill-rule:nonzero;fill:rgb(24.705882%,23.921569%,33.725491%);fill-opacity:1;" d="M 318.652344 270.058594 L 278.429688 270.058594 C 277.414062 270.058594 276.589844 269.328125 276.589844 268.429688 C 276.589844 267.53125 277.414062 266.800781 278.429688 266.800781 L 318.652344 266.800781 C 319.664062 266.800781 320.488281 267.53125 320.488281 268.429688 C 320.488281 269.328125 319.664062 270.058594 318.652344 270.058594 Z M 318.652344 270.058594 "/>
<path style=" stroke:none;fill-rule:nonzero;fill:rgb(24.705882%,23.921569%,33.725491%);fill-opacity:1;" d="M 318.652344 304.808594 L 278.429688 304.808594 C 277.414062 304.808594 276.589844 304.078125 276.589844 303.179688 C 276.589844 302.28125 277.414062 301.546875 278.429688 301.546875 L 318.652344 301.546875 C 319.664062 301.546875 320.488281 302.28125 320.488281 303.179688 C 320.488281 304.078125 319.664062 304.808594 318.652344 304.808594 Z M 318.652344 304.808594 "/>
<path style=" stroke:none;fill-rule:nonzero;fill:rgb(24.705882%,23.921569%,33.725491%);fill-opacity:1;" d="M 340.234375 287.445312 L 256.847656 287.445312 C 255.832031 287.445312 255.007812 286.714844 255.007812 285.816406 C 255.007812 284.917969 255.832031 284.183594 256.847656 284.183594 L 340.234375 284.183594 C 341.25 284.183594 342.074219 284.917969 342.074219 285.816406 C 342.074219 286.714844 341.25 287.445312 340.234375 287.445312 Z M 340.234375 287.445312 "/>
<path style=" stroke:none;fill-rule:nonzero;fill:rgb(90.196079%,90.196079%,90.196079%);fill-opacity:1;" d="M 548.890625 316.890625 L 548.890625 370.515625 C 548.890625 375.257812 544.539062 379.113281 539.1875 379.113281 L 478.671875 379.113281 C 473.320312 379.113281 468.96875 375.257812 468.96875 370.515625 L 468.96875 316.890625 C 468.96875 312.148438 473.320312 308.289062 478.671875 308.289062 L 539.1875 308.289062 C 544.539062 308.289062 548.890625 312.148438 548.890625 316.890625 Z M 539.1875 378.101562 C 543.914062 378.101562 547.75 374.703125 547.75 370.515625 L 547.75 343.480469 C 547.75 324.605469 530.480469 309.300781 509.179688 309.300781 L 478.671875 309.300781 C 473.941406 309.300781 470.109375 312.699219 470.109375 316.890625 L 470.109375 370.515625 C 470.109375 374.703125 473.941406 378.101562 478.671875 378.101562 Z M 539.1875 378.101562 "/>
<path style=" stroke:none;fill-rule:nonzero;fill:rgb(94.901961%,94.901961%,94.901961%);fill-opacity:1;" d="M 547.820312 343.703125 C 547.820312 324.667969 530.148438 312.1875 508.929688 309.238281 C 482.066406 305.507812 466.484375 322.203125 470.035156 343.703125 C 473.148438 362.535156 498.949219 389.964844 508.929688 373.109375 C 520.347656 353.820312 547.820312 362.738281 547.820312 343.703125 Z M 547.820312 343.703125 "/>
<path style=" stroke:none;fill-rule:nonzero;fill:rgb(24.705882%,23.921569%,33.725491%);fill-opacity:1;" d="M 516.984375 330.191406 L 497.449219 330.191406 C 496.957031 330.191406 496.554688 329.835938 496.554688 329.398438 C 496.554688 328.964844 496.957031 328.609375 497.449219 328.609375 L 516.984375 328.609375 C 517.476562 328.609375 517.878906 328.964844 517.878906 329.398438 C 517.878906 329.835938 517.476562 330.191406 516.984375 330.191406 Z M 516.984375 330.191406 "/>
<path style=" stroke:none;fill-rule:nonzero;fill:rgb(24.705882%,23.921569%,33.725491%);fill-opacity:1;" d="M 516.984375 347.070312 L 497.449219 347.070312 C 496.957031 347.070312 496.554688 346.714844 496.554688 346.277344 C 496.554688 345.839844 496.957031 345.488281 497.449219 345.488281 L 516.984375 345.488281 C 517.476562 345.488281 517.878906 345.839844 517.878906 346.277344 C 517.878906 346.714844 517.476562 347.070312 516.984375 347.070312 Z M 516.984375 347.070312 "/>
<path style=" stroke:none;fill-rule:nonzero;fill:rgb(24.705882%,23.921569%,33.725491%);fill-opacity:1;" d="M 527.46875 338.636719 L 486.964844 338.636719 C 486.472656 338.636719 486.070312 338.28125 486.070312 337.84375 C 486.070312 337.40625 486.472656 337.054688 486.964844 337.054688 L 527.46875 337.054688 C 527.960938 337.054688 528.359375 337.40625 528.359375 337.84375 C 528.359375 338.28125 527.960938 338.636719 527.46875 338.636719 Z M 527.46875 338.636719 "/>
<path style=" stroke:none;fill-rule:nonzero;fill:rgb(62.7451%,38.039216%,41.568628%);fill-opacity:1;" d="M 538.523438 299.699219 L 560.882812 272.570312 L 580.15625 281.726562 L 555.363281 309.664062 C 555.433594 310.746094 555.328125 311.855469 555.023438 312.964844 C 553.371094 319 546.507812 322.703125 539.699219 321.234375 C 532.886719 319.769531 528.710938 313.6875 530.367188 307.652344 C 531.421875 303.804688 534.597656 300.914062 538.523438 299.699219 Z M 538.523438 299.699219 "/>
<path style=" stroke:none;fill-rule:nonzero;fill:rgb(97.647059%,65.882355%,14.901961%);fill-opacity:1;" d="M 620.027344 128.570312 C 614.925781 125.320312 608.953125 123.019531 602.378906 122 C 593.40625 120.613281 601.304688 132.050781 599.328125 143.207031 C 598.417969 148.378906 598.148438 153.492188 598.460938 157.226562 L 597.933594 160.488281 L 597.625 177.390625 L 596.894531 216.464844 L 576.933594 243.953125 L 545.519531 287.234375 L 545.820312 287.480469 C 546.195312 287.800781 546.765625 288.265625 547.472656 288.851562 C 551.160156 291.871094 558.679688 297.898438 563.425781 300.582031 C 565.070312 301.511719 566.371094 302.039062 567.070312 301.90625 C 567.292969 301.863281 567.757812 301.503906 568.425781 300.859375 C 572.914062 296.53125 586.859375 279.53125 600.429688 262.644531 C 612.789062 247.277344 624.839844 231.996094 629.195312 226.464844 L 629.273438 226.367188 L 626.503906 169.191406 L 628.285156 164.007812 C 630.183594 149.8125 632.367188 136.425781 620.027344 128.570312 Z M 620.027344 128.570312 "/>
<path style=" stroke:none;fill-rule:nonzero;fill:rgb(18.431373%,18.039216%,25.490198%);fill-opacity:1;" d="M 590.292969 36.511719 C 587.136719 34.585938 582.675781 28.296875 588.226562 26.417969 C 592.316406 25.035156 599.050781 28.554688 602.511719 30.335938 C 606.375 32.328125 609.375 35.375 609.617188 39.429688 C 609.984375 45.542969 602.140625 46.324219 597.402344 44.191406 "/>
<path style=" stroke:none;fill-rule:nonzero;fill:rgb(18.431373%,18.039216%,25.490198%);fill-opacity:1;" d="M 53.644531 40.78125 C 52.144531 42.417969 47.53125 44.5625 46.488281 41.421875 C 45.71875 39.113281 48.507812 35.585938 49.925781 33.773438 C 51.503906 31.75 53.78125 30.253906 56.625 30.316406 C 60.917969 30.414062 61.082031 34.757812 59.355469 37.253906 "/>
</g>
</svg>
