<?xml version="1.0" encoding="UTF-8"?>
<svg xmlns="http://www.w3.org/2000/svg" xmlns:xlink="http://www.w3.org/1999/xlink" width="678px" height="833px" viewBox="0 0 678 833" version="1.1">
<defs>
<filter id="alpha" filterUnits="objectBoundingBox" x="0%" y="0%" width="100%" height="100%">
  <feColorMatrix type="matrix" in="SourceGraphic" values="0 0 0 0 1 0 0 0 0 1 0 0 0 0 1 0 0 0 1 0"/>
</filter>
<mask id="mask0">
  <g filter="url(#alpha)">
<rect x="0" y="0" width="678" height="833" style="fill:rgb(0%,0%,0%);fill-opacity:0.301961;stroke:none;"/>
  </g>
</mask>
<clipPath id="clip1">
  <rect x="0" y="0" width="678" height="833"/>
</clipPath>
<g id="surface5" clip-path="url(#clip1)">
<path style=" stroke:none;fill-rule:nonzero;fill:rgb(32.54902%,42.745098%,99.607843%);fill-opacity:1;" d="M 249.238281 383.566406 C 249.238281 422.875 234.324219 454.742188 215.921875 454.742188 C 197.523438 454.742188 182.609375 422.875 182.609375 383.566406 C 182.609375 344.257812 197.523438 312.394531 215.921875 312.394531 C 234.324219 312.394531 249.238281 344.257812 249.238281 383.566406 Z M 249.238281 383.566406 "/>
</g>
<mask id="mask1">
  <g filter="url(#alpha)">
<rect x="0" y="0" width="678" height="833" style="fill:rgb(0%,0%,0%);fill-opacity:0.301961;stroke:none;"/>
  </g>
</mask>
<clipPath id="clip2">
  <rect x="0" y="0" width="678" height="833"/>
</clipPath>
<g id="surface8" clip-path="url(#clip2)">
<path style=" stroke:none;fill-rule:nonzero;fill:rgb(32.54902%,42.745098%,99.607843%);fill-opacity:1;" d="M 238.132812 383.566406 C 238.132812 409.773438 228.1875 431.015625 215.921875 431.015625 C 203.65625 431.015625 193.714844 409.773438 193.714844 383.566406 C 193.714844 357.363281 203.65625 336.117188 215.921875 336.117188 C 228.1875 336.117188 238.132812 357.363281 238.132812 383.566406 Z M 238.132812 383.566406 "/>
</g>
<mask id="mask2">
  <g filter="url(#alpha)">
<rect x="0" y="0" width="678" height="833" style="fill:rgb(0%,0%,0%);fill-opacity:0.301961;stroke:none;"/>
  </g>
</mask>
<clipPath id="clip3">
  <rect x="0" y="0" width="678" height="833"/>
</clipPath>
<g id="surface11" clip-path="url(#clip3)">
<path style=" stroke:none;fill-rule:nonzero;fill:rgb(32.54902%,42.745098%,99.607843%);fill-opacity:1;" d="M 529.550781 207.175781 C 529.550781 246.484375 514.636719 278.351562 496.238281 278.351562 C 477.839844 278.351562 462.925781 246.484375 462.925781 207.175781 C 462.925781 167.867188 477.839844 136.003906 496.238281 136.003906 C 514.636719 136.003906 529.550781 167.867188 529.550781 207.175781 Z M 529.550781 207.175781 "/>
</g>
<mask id="mask3">
  <g filter="url(#alpha)">
<rect x="0" y="0" width="678" height="833" style="fill:rgb(0%,0%,0%);fill-opacity:0.301961;stroke:none;"/>
  </g>
</mask>
<clipPath id="clip4">
  <rect x="0" y="0" width="678" height="833"/>
</clipPath>
<g id="surface14" clip-path="url(#clip4)">
<path style=" stroke:none;fill-rule:nonzero;fill:rgb(32.54902%,42.745098%,99.607843%);fill-opacity:1;" d="M 518.449219 207.175781 C 518.449219 233.382812 508.503906 254.625 496.238281 254.625 C 483.972656 254.625 474.03125 233.382812 474.03125 207.175781 C 474.03125 180.96875 483.972656 159.726562 496.238281 159.726562 C 508.503906 159.726562 518.449219 180.96875 518.449219 207.175781 Z M 518.449219 207.175781 "/>
</g>
<mask id="mask4">
  <g filter="url(#alpha)">
<rect x="0" y="0" width="678" height="833" style="fill:rgb(0%,0%,0%);fill-opacity:0.301961;stroke:none;"/>
  </g>
</mask>
<clipPath id="clip5">
  <rect x="0" y="0" width="678" height="833"/>
</clipPath>
<g id="surface17" clip-path="url(#clip5)">
<path style=" stroke:none;fill-rule:nonzero;fill:rgb(32.54902%,42.745098%,99.607843%);fill-opacity:1;" d="M 535.492188 701.214844 C 535.492188 740.523438 520.574219 772.386719 502.175781 772.386719 C 483.777344 772.386719 468.863281 740.523438 468.863281 701.214844 C 468.863281 661.90625 483.777344 630.039062 502.175781 630.039062 C 520.574219 630.039062 535.492188 661.90625 535.492188 701.214844 Z M 535.492188 701.214844 "/>
</g>
<mask id="mask5">
  <g filter="url(#alpha)">
<rect x="0" y="0" width="678" height="833" style="fill:rgb(0%,0%,0%);fill-opacity:0.301961;stroke:none;"/>
  </g>
</mask>
<clipPath id="clip6">
  <rect x="0" y="0" width="678" height="833"/>
</clipPath>
<g id="surface20" clip-path="url(#clip6)">
<path style=" stroke:none;fill-rule:nonzero;fill:rgb(32.54902%,42.745098%,99.607843%);fill-opacity:1;" d="M 524.386719 701.214844 C 524.386719 727.417969 514.441406 748.664062 502.175781 748.664062 C 489.910156 748.664062 479.96875 727.417969 479.96875 701.214844 C 479.96875 675.007812 489.910156 653.765625 502.175781 653.765625 C 514.441406 653.765625 524.386719 675.007812 524.386719 701.214844 Z M 524.386719 701.214844 "/>
</g>
<mask id="mask6">
  <g filter="url(#alpha)">
<rect x="0" y="0" width="678" height="833" style="fill:rgb(0%,0%,0%);fill-opacity:0.101961;stroke:none;"/>
  </g>
</mask>
<clipPath id="clip7">
  <rect x="0" y="0" width="678" height="833"/>
</clipPath>
<g id="surface23" clip-path="url(#clip7)">
<path style=" stroke:none;fill-rule:nonzero;fill:rgb(0%,0%,0%);fill-opacity:1;" d="M 11.332031 225.355469 C 15.28125 240.730469 25.214844 260.9375 30.277344 283.507812 C 31.601562 273.328125 33.214844 262.792969 33.214844 262.792969 C 33.214844 262.792969 39.402344 192.058594 21.097656 173.777344 C 18.0625 173.148438 15.03125 174.960938 12.589844 178.855469 C 9.980469 197.6875 8.75 215.292969 11.332031 225.355469 Z M 11.332031 225.355469 "/>
</g>
<mask id="mask7">
  <g filter="url(#alpha)">
<rect x="0" y="0" width="678" height="833" style="fill:rgb(0%,0%,0%);fill-opacity:0.101961;stroke:none;"/>
  </g>
</mask>
<clipPath id="clip8">
  <rect x="0" y="0" width="678" height="833"/>
</clipPath>
<g id="surface26" clip-path="url(#clip8)">
<path style=" stroke:none;fill-rule:nonzero;fill:rgb(0%,0%,0%);fill-opacity:1;" d="M 33.285156 312.257812 C 32.816406 331.621094 29.480469 354.019531 28.28125 370.308594 C 34.894531 383.679688 41.183594 395.476562 43.554688 395.671875 C 48.449219 396.078125 56.324219 394.636719 59.222656 396.972656 C 62.125 399.308594 63.824219 359.632812 63.824219 359.632812 C 63.824219 359.632812 62.09375 346.914062 54.371094 339.988281 C 49.160156 335.300781 39.171875 322.59375 33.285156 312.257812 Z M 33.285156 312.257812 "/>
</g>
</defs>
<g id="surface1">
<path style=" stroke:none;fill-rule:nonzero;fill:rgb(94.901961%,94.901961%,94.901961%);fill-opacity:1;" d="M 677.847656 791.84375 C 677.847656 768.84375 526.105469 750.195312 338.921875 750.195312 C 151.742188 750.195312 0 768.84375 0 791.84375 C 0 814.84375 151.742188 833.488281 338.921875 833.488281 C 526.105469 833.488281 677.847656 814.84375 677.847656 791.84375 Z M 677.847656 791.84375 "/>
<path style=" stroke:none;fill-rule:nonzero;fill:rgb(94.901961%,94.901961%,94.901961%);fill-opacity:1;" d="M 107.941406 0 L 617.101562 0 L 617.101562 34.609375 L 107.941406 34.609375 Z M 107.941406 0 "/>
<path style=" stroke:none;fill-rule:nonzero;fill:rgb(32.54902%,42.745098%,99.607843%);fill-opacity:1;" d="M 125.757812 16.792969 C 125.757812 21.742188 123.882812 25.75 121.566406 25.75 C 119.25 25.75 117.375 21.742188 117.375 16.792969 C 117.375 11.847656 119.25 7.835938 121.566406 7.835938 C 123.882812 7.835938 125.757812 11.847656 125.757812 16.792969 Z M 125.757812 16.792969 "/>
<path style=" stroke:none;fill-rule:nonzero;fill:rgb(32.54902%,42.745098%,99.607843%);fill-opacity:1;" d="M 139.382812 16.792969 C 139.382812 21.742188 137.507812 25.75 135.191406 25.75 C 132.875 25.75 131 21.742188 131 16.792969 C 131 11.847656 132.875 7.835938 135.191406 7.835938 C 137.507812 7.835938 139.382812 11.847656 139.382812 16.792969 Z M 139.382812 16.792969 "/>
<path style=" stroke:none;fill-rule:nonzero;fill:rgb(32.54902%,42.745098%,99.607843%);fill-opacity:1;" d="M 153.007812 16.792969 C 153.007812 21.742188 151.132812 25.75 148.816406 25.75 C 146.5 25.75 144.625 21.742188 144.625 16.792969 C 144.625 11.847656 146.5 7.835938 148.816406 7.835938 C 151.132812 7.835938 153.007812 11.847656 153.007812 16.792969 Z M 153.007812 16.792969 "/>
<path style=" stroke:none;fill-rule:nonzero;fill:rgb(24.705882%,23.921569%,33.72549%);fill-opacity:1;" d="M 108.300781 547.351562 L 107.941406 548.011719 L 107.941406 781.46875 L 617.101562 781.46875 L 617.101562 371.394531 L 611.03125 372.378906 Z M 108.300781 547.351562 "/>
<path style=" stroke:none;fill-rule:nonzero;fill:rgb(24.705882%,23.921569%,33.72549%);fill-opacity:1;" d="M 144.6875 231.5 L 286.871094 231.5 L 286.871094 243.75 L 144.6875 243.75 Z M 144.6875 231.5 "/>
<path style=" stroke:none;fill-rule:nonzero;fill:rgb(24.705882%,23.921569%,33.72549%);fill-opacity:1;" d="M 144.6875 258.449219 L 286.871094 258.449219 L 286.871094 270.695312 L 144.6875 270.695312 Z M 144.6875 258.449219 "/>
<path style=" stroke:none;fill-rule:nonzero;fill:rgb(24.705882%,23.921569%,33.72549%);fill-opacity:1;" d="M 144.6875 285.394531 L 192.84375 285.394531 L 192.84375 297.644531 L 144.6875 297.644531 Z M 144.6875 285.394531 "/>
<path style=" stroke:none;fill-rule:nonzero;fill:rgb(100%,100%,100%);fill-opacity:1;" d="M 434.640625 571.554688 L 576.824219 571.554688 L 576.824219 583.804688 L 434.640625 583.804688 Z M 434.640625 571.554688 "/>
<path style=" stroke:none;fill-rule:nonzero;fill:rgb(100%,100%,100%);fill-opacity:1;" d="M 434.640625 598.503906 L 576.824219 598.503906 L 576.824219 610.75 L 434.640625 610.75 Z M 434.640625 598.503906 "/>
<path style=" stroke:none;fill-rule:nonzero;fill:rgb(100%,100%,100%);fill-opacity:1;" d="M 434.640625 625.449219 L 482.800781 625.449219 L 482.800781 637.699219 L 434.640625 637.699219 Z M 434.640625 625.449219 "/>
<path style=" stroke:none;fill-rule:nonzero;fill:rgb(94.901961%,94.901961%,94.901961%);fill-opacity:1;" d="M 351.894531 758.226562 C 351.894531 764.824219 349.390625 770.175781 346.300781 770.175781 C 343.210938 770.175781 340.707031 764.824219 340.707031 758.226562 C 340.707031 751.628906 343.210938 746.277344 346.300781 746.277344 C 349.390625 746.277344 351.894531 751.628906 351.894531 758.226562 Z M 351.894531 758.226562 "/>
<path style=" stroke:none;fill-rule:nonzero;fill:rgb(94.901961%,94.901961%,94.901961%);fill-opacity:1;" d="M 368.113281 759.421875 C 368.113281 766.019531 365.609375 771.371094 362.519531 771.371094 C 359.433594 771.371094 356.929688 766.019531 356.929688 759.421875 C 356.929688 752.824219 359.433594 747.472656 362.519531 747.472656 C 365.609375 747.472656 368.113281 752.824219 368.113281 759.421875 Z M 368.113281 759.421875 "/>
<path style=" stroke:none;fill-rule:nonzero;fill:rgb(94.901961%,94.901961%,94.901961%);fill-opacity:1;" d="M 384.332031 760.617188 C 384.332031 767.214844 381.828125 772.566406 378.742188 772.566406 C 375.652344 772.566406 373.148438 767.214844 373.148438 760.617188 C 373.148438 754.015625 375.652344 748.667969 378.742188 748.667969 C 381.828125 748.667969 384.332031 754.015625 384.332031 760.617188 Z M 384.332031 760.617188 "/>
<path style=" stroke:none;fill-rule:nonzero;fill:rgb(24.705882%,23.921569%,33.72549%);fill-opacity:1;" d="M 367.046875 759.421875 C 367.046875 764.699219 365.042969 768.980469 362.574219 768.980469 C 360.101562 768.980469 358.097656 764.699219 358.097656 759.421875 C 358.097656 754.140625 360.101562 749.863281 362.574219 749.863281 C 365.042969 749.863281 367.046875 754.140625 367.046875 759.421875 Z M 367.046875 759.421875 "/>
<path style=" stroke:none;fill-rule:nonzero;fill:rgb(24.705882%,23.921569%,33.72549%);fill-opacity:1;" d="M 191.574219 371.703125 L 239.730469 371.703125 L 239.730469 395.179688 L 191.574219 395.179688 Z M 191.574219 371.703125 "/>
<path style=" stroke:none;fill-rule:nonzero;fill:rgb(100%,100%,100%);fill-opacity:1;" d="M 477.824219 689.351562 L 525.984375 689.351562 L 525.984375 712.828125 L 477.824219 712.828125 Z M 477.824219 689.351562 "/>
<use xlink:href="#surface5" mask="url(#mask0)"/>
<use xlink:href="#surface8" mask="url(#mask1)"/>
<path style=" stroke:none;fill-rule:nonzero;fill:rgb(32.54902%,42.745098%,99.607843%);fill-opacity:1;" d="M 231.347656 383.566406 C 231.347656 401.765625 224.441406 416.519531 215.921875 416.519531 C 207.40625 416.519531 200.5 401.765625 200.5 383.566406 C 200.5 365.367188 207.40625 350.617188 215.921875 350.617188 C 224.441406 350.617188 231.347656 365.367188 231.347656 383.566406 Z M 231.347656 383.566406 "/>
<use xlink:href="#surface11" mask="url(#mask2)"/>
<use xlink:href="#surface14" mask="url(#mask3)"/>
<path style=" stroke:none;fill-rule:nonzero;fill:rgb(32.54902%,42.745098%,99.607843%);fill-opacity:1;" d="M 511.660156 207.175781 C 511.660156 225.375 504.757812 240.128906 496.238281 240.128906 C 487.71875 240.128906 480.816406 225.375 480.816406 207.175781 C 480.816406 188.976562 487.71875 174.226562 496.238281 174.226562 C 504.757812 174.226562 511.660156 188.976562 511.660156 207.175781 Z M 511.660156 207.175781 "/>
<use xlink:href="#surface17" mask="url(#mask4)"/>
<use xlink:href="#surface20" mask="url(#mask5)"/>
<path style=" stroke:none;fill-rule:nonzero;fill:rgb(32.54902%,42.745098%,99.607843%);fill-opacity:1;" d="M 517.601562 701.214844 C 517.601562 719.414062 510.695312 734.164062 502.175781 734.164062 C 493.660156 734.164062 486.753906 719.414062 486.753906 701.214844 C 486.753906 683.015625 493.660156 668.261719 502.175781 668.261719 C 510.695312 668.261719 517.601562 683.015625 517.601562 701.214844 Z M 517.601562 701.214844 "/>
<path style=" stroke:none;fill-rule:nonzero;fill:rgb(32.54902%,42.745098%,99.607843%);fill-opacity:1;" d="M 69.1875 145.277344 L 55.476562 144.140625 L 56.160156 106.476562 L 69.871094 107.613281 Z M 69.1875 145.277344 "/>
<path style=" stroke:none;fill-rule:nonzero;fill:rgb(100%,72.54902%,72.54902%);fill-opacity:1;" d="M 118.011719 238.386719 C 118.011719 238.386719 137 219.003906 136.695312 235.742188 C 136.390625 252.480469 117.554688 263.496094 117.554688 263.496094 Z M 118.011719 238.386719 "/>
<path style=" stroke:none;fill-rule:nonzero;fill:rgb(18.431373%,18.039216%,25.490196%);fill-opacity:1;" d="M 107.59375 380.023438 C 107.59375 380.023438 116.550781 426.867188 119.863281 460.671875 C 123.171875 494.476562 128.210938 540.996094 121.730469 573.988281 C 115.246094 606.980469 96.808594 703.945312 96.621094 714.40625 C 96.429688 724.871094 98.199219 735.496094 94.28125 735.171875 C 90.363281 734.84375 69.046875 720.507812 68.179688 714.148438 C 67.3125 707.789062 75.453125 691.699219 75.453125 691.699219 L 95.550781 557.148438 L 74.582031 469.492188 L 59.457031 600.261719 L 56.496094 763.472656 C 56.496094 763.472656 41.957031 753.886719 39.84375 762.09375 C 39.84375 762.09375 33.332031 742.695312 32.503906 734.242188 C 31.675781 725.792969 35.578125 564.753906 35.578125 564.753906 C 35.578125 564.753906 22.234375 381.332031 33.007812 382.226562 C 43.78125 383.117188 85.980469 327.9375 107.59375 380.023438 Z M 107.59375 380.023438 "/>
<path style=" stroke:none;fill-rule:nonzero;fill:rgb(18.431373%,18.039216%,25.490196%);fill-opacity:1;" d="M 94.433594 726.800781 C 94.433594 726.800781 104.371094 773.726562 105.3125 775.898438 C 106.253906 778.074219 112.730469 799.566406 107.832031 799.160156 C 102.9375 798.753906 91.375 787.320312 82.863281 769.847656 C 74.351562 752.378906 63.128906 722.113281 64.148438 720.101562 C 65.164062 718.089844 72.136719 712.378906 72.136719 712.378906 Z M 94.433594 726.800781 "/>
<path style=" stroke:none;fill-rule:nonzero;fill:rgb(18.431373%,18.039216%,25.490196%);fill-opacity:1;" d="M 54.726562 752.847656 C 54.726562 752.847656 55.324219 773.855469 57.132812 782.386719 C 58.9375 790.917969 58.710938 803.472656 53.8125 803.066406 C 48.917969 802.660156 36.261719 797.421875 36.261719 797.421875 C 36.261719 797.421875 35.507812 784.785156 36.527344 782.773438 C 37.542969 780.765625 41.878906 758.070312 40.035156 751.632812 C 38.191406 745.191406 54.726562 752.847656 54.726562 752.847656 Z M 54.726562 752.847656 "/>
<path style=" stroke:none;fill-rule:nonzero;fill:rgb(100%,72.54902%,72.54902%);fill-opacity:1;" d="M 47.480469 71.183594 C 47.480469 71.183594 37.042969 105.941406 32.972656 113.988281 C 28.902344 122.03125 40.351562 139.746094 40.351562 139.746094 L 60.84375 145.632812 C 60.84375 145.632812 60.585938 105.796875 61.640625 101.695312 C 62.695312 97.589844 47.480469 71.183594 47.480469 71.183594 Z M 47.480469 71.183594 "/>
<path style=" stroke:none;fill-rule:nonzero;fill:rgb(32.54902%,42.745098%,99.607843%);fill-opacity:1;" d="M 65.292969 116.664062 C 65.292969 116.664062 61.070312 133.078125 57.152344 132.753906 C 53.234375 132.429688 32.972656 113.988281 32.105469 107.628906 C 31.242188 101.269531 25.394531 153.175781 25.394531 153.175781 L 74.976562 339.601562 L 87.074219 321.742188 L 81.210938 212.285156 L 76.398438 153.210938 Z M 65.292969 116.664062 "/>
<path style=" stroke:none;fill-rule:nonzero;fill:rgb(34.117647%,35.294118%,53.72549%);fill-opacity:1;" d="M 30.277344 283.507812 C 32.253906 292.347656 33.492188 301.566406 33.320312 311 C 33.3125 311.421875 33.304688 311.839844 33.285156 312.257812 C 32.816406 331.621094 29.480469 354.019531 28.28125 370.308594 C 27.410156 381.992188 27.660156 390.519531 30.859375 392.527344 C 38.617188 397.359375 29.726562 400.8125 59.746094 422.160156 C 89.765625 443.507812 95.003906 425.082031 95.082031 420.898438 C 95.15625 416.714844 90.828125 384.921875 91.847656 382.910156 C 92.863281 380.898438 106.082031 409.234375 110.074219 405.375 C 114.070312 401.515625 110.53125 380.265625 110.53125 380.265625 C 110.53125 380.265625 101.535156 335.511719 101.726562 325.050781 C 101.914062 314.589844 88.097656 265.246094 88.097656 265.246094 L 78.699219 134.539062 C 78.699219 134.539062 75.085938 117.476562 70.226562 114.976562 C 65.367188 112.480469 61.335938 118.433594 61.335938 118.433594 L 69.46875 156.828125 L 78.046875 224.597656 L 76.609375 249.625 C 76.609375 249.625 66.636719 204.792969 60.082031 187.484375 C 53.53125 170.175781 39.5625 129.203125 39.5625 129.203125 C 39.5625 129.203125 36.300781 105.691406 38.761719 98.667969 C 41.226562 91.621094 28.492188 90.566406 23.0625 119.453125 C 20.1875 134.765625 15.515625 157.597656 12.589844 178.855469 C 9.980469 197.6875 8.75 215.292969 11.332031 225.355469 C 15.28125 240.730469 25.214844 260.9375 30.277344 283.507812 Z M 30.277344 283.507812 "/>
<use xlink:href="#surface23" mask="url(#mask6)"/>
<path style=" stroke:none;fill-rule:nonzero;fill:rgb(34.117647%,35.294118%,53.72549%);fill-opacity:1;" d="M 84 220.898438 L 99.515625 230.566406 L 121.0625 232.351562 L 123.28125 272.351562 L 87.871094 277.800781 C 87.871094 277.800781 79.027344 224.679688 84 220.898438 Z M 84 220.898438 "/>
<path style=" stroke:none;fill-rule:nonzero;fill:rgb(100%,72.54902%,72.54902%);fill-opacity:1;" d="M 58.695312 355.390625 C 58.695312 355.390625 79.453125 362.75 74.714844 376.097656 C 69.976562 389.445312 51.585938 375.410156 51.585938 375.410156 Z M 58.695312 355.390625 "/>
<use xlink:href="#surface26" mask="url(#mask7)"/>
<path style=" stroke:none;fill-rule:nonzero;fill:rgb(34.117647%,35.294118%,53.72549%);fill-opacity:1;" d="M 21.324219 161.222656 C 21.324219 161.222656 4.75 155.65625 5.648438 214.40625 C 6.542969 273.15625 3.898438 310.660156 10.566406 321.691406 C 17.230469 332.71875 38.882812 382.710938 43.78125 383.117188 C 48.679688 383.523438 56.550781 382.082031 59.453125 384.417969 C 62.351562 386.753906 64.050781 347.078125 64.050781 347.078125 C 64.050781 347.078125 62.320312 334.359375 54.601562 327.433594 C 46.878906 320.507812 28.6875 295.949219 28.839844 287.578125 C 28.992188 279.210938 33.441406 250.238281 33.441406 250.238281 C 33.441406 250.238281 39.628906 179.503906 21.324219 161.222656 Z M 21.324219 161.222656 "/>
<path style=" stroke:none;fill-rule:nonzero;fill:rgb(100%,72.54902%,72.54902%);fill-opacity:1;" d="M 83.660156 76.585938 C 83.660156 102.027344 74.003906 122.652344 62.097656 122.652344 C 50.1875 122.652344 40.535156 102.027344 40.535156 76.585938 C 40.535156 51.140625 50.1875 30.515625 62.097656 30.515625 C 74.003906 30.515625 83.660156 51.140625 83.660156 76.585938 Z M 83.660156 76.585938 "/>
<path style=" stroke:none;fill-rule:nonzero;fill:rgb(18.431373%,18.039216%,25.490196%);fill-opacity:1;" d="M 76.613281 10.554688 C 77.136719 11.511719 77.757812 12.179688 78.429688 12.5 C 79.128906 12.765625 79.796875 11.773438 79.925781 10.28125 C 80.421875 12.464844 80.976562 14.796875 81.984375 15.917969 C 82.992188 17.039062 84.550781 16.097656 84.695312 13.691406 C 84.839844 15.519531 85.21875 17.226562 85.789062 18.625 C 86.414062 19.898438 87.546875 20.21875 88.09375 18.789062 C 87.652344 23.941406 87.921875 29.238281 87.785156 34.464844 C 87.648438 39.691406 86.996094 45.234375 85.144531 48.671875 C 82.449219 53.683594 78.394531 52.445312 74.851562 51.496094 C 74.3125 51.257812 73.757812 51.320312 73.234375 51.683594 C 71.910156 52.894531 71.96875 56.84375 71.949219 59.925781 C 71.726562 71.097656 67.757812 80.289062 62.566406 81.671875 C 61.160156 82.132812 59.722656 81.386719 58.574219 79.589844 C 57.566406 77.765625 57.050781 74.792969 55.898438 73.421875 C 54.019531 71.195312 51.746094 74.445312 50.371094 77.972656 C 49 81.5 47.648438 85.839844 45.523438 86.488281 C 42.710938 87.339844 40.570312 81.21875 39.519531 75.582031 C 36.59375 59.625 36.804688 41.816406 40.109375 26.195312 C 45.980469 -1.140625 66.035156 -5.464844 76.613281 10.554688 Z M 76.613281 10.554688 "/>
<path style=" stroke:none;fill-rule:nonzero;fill:rgb(94.901961%,94.901961%,94.901961%);fill-opacity:1;" d="M 594.234375 743.070312 C 601.828125 770.738281 617.144531 781.691406 617.144531 781.691406 C 617.144531 781.691406 620.148438 747.789062 612.554688 720.117188 C 604.960938 692.449219 589.644531 681.496094 589.644531 681.496094 C 589.644531 681.496094 586.640625 715.402344 594.234375 743.070312 Z M 594.234375 743.070312 "/>
<path style=" stroke:none;fill-rule:nonzero;fill:rgb(32.54902%,42.745098%,99.607843%);fill-opacity:1;" d="M 598.972656 733.414062 C 612.109375 748.953125 617.609375 781.398438 617.609375 781.398438 C 617.609375 781.398438 601.816406 788.644531 588.683594 773.105469 C 575.550781 757.5625 570.050781 725.121094 570.050781 725.121094 C 570.050781 725.121094 585.839844 717.871094 598.972656 733.414062 Z M 598.972656 733.414062 "/>
</g>
</svg>
