<?xml version="1.0" encoding="UTF-8"?>
<svg xmlns="http://www.w3.org/2000/svg" xmlns:xlink="http://www.w3.org/1999/xlink" width="744px" height="602px" viewBox="0 0 744 602" version="1.1">
<g id="surface1">
<path style=" stroke:none;fill-rule:nonzero;fill:rgb(100%,71.372551%,71.372551%);fill-opacity:1;" d="M 609.78125 575.363281 L 602.046875 572.996094 L 606.722656 526.503906 L 618.140625 529.992188 Z M 609.78125 575.363281 "/>
<path style=" stroke:none;fill-rule:nonzero;fill:rgb(18.431373%,18.039216%,25.490198%);fill-opacity:1;" d="M 579.242188 587.351562 C 578.902344 589.046875 579.550781 590.730469 580.6875 591.117188 L 595.949219 596.28125 C 595.949219 596.28125 599.019531 588.917969 605.816406 587.601562 L 603.996094 599.003906 L 611.867188 601.667969 L 614.519531 583.242188 C 614.519531 583.242188 618.550781 574.265625 615.164062 567.835938 C 611.777344 561.402344 615.179688 563.289062 615.179688 563.289062 L 615.691406 551.5 L 603.429688 549.300781 L 599.84375 566.863281 L 590.597656 582.371094 L 581.042969 584.957031 C 580.191406 585.1875 579.484375 586.128906 579.242188 587.351562 Z M 579.242188 587.351562 "/>
<path style=" stroke:none;fill-rule:nonzero;fill:rgb(100%,71.372551%,71.372551%);fill-opacity:1;" d="M 683.933594 564.390625 L 676.878906 569.15625 L 657.242188 529.875 L 667.652344 522.839844 Z M 683.933594 564.390625 "/>
<path style=" stroke:none;fill-rule:nonzero;fill:rgb(18.431373%,18.039216%,25.490198%);fill-opacity:1;" d="M 666.71875 599.40625 C 667.308594 600.976562 668.640625 601.707031 669.699219 601.035156 L 683.863281 592.011719 C 683.863281 592.011719 682.523438 583.816406 687.027344 577.050781 L 691.335938 587.257812 L 698.644531 582.601562 L 691.464844 566.355469 C 691.464844 566.355469 690.050781 556.117188 684.269531 554.109375 C 678.488281 552.097656 682.015625 550.640625 682.015625 550.640625 L 676.523438 541.257812 L 666.113281 549.984375 L 672.148438 566.367188 L 672.859375 585.988281 L 666.894531 596.058594 C 666.363281 596.953125 666.296875 598.269531 666.71875 599.40625 Z M 666.71875 599.40625 "/>
<path style=" stroke:none;fill-rule:nonzero;fill:rgb(100%,100%,100%);fill-opacity:1;" d="M 270.1875 391.703125 L 475.222656 391.703125 C 477.804688 391.703125 479.898438 388.972656 479.898438 385.605469 L 479.898438 7.234375 C 479.898438 3.867188 477.804688 1.140625 475.222656 1.140625 L 270.1875 1.140625 C 267.609375 1.140625 265.515625 3.867188 265.515625 7.234375 L 265.515625 385.605469 C 265.515625 388.972656 267.609375 391.703125 270.1875 391.703125 Z M 270.1875 391.703125 "/>
<path style=" stroke:none;fill-rule:nonzero;fill:rgb(90.196079%,90.196079%,90.196079%);fill-opacity:1;" d="M 480.773438 392.84375 L 264.640625 392.84375 L 264.640625 0 L 480.773438 0 Z M 266.390625 390.5625 L 479.023438 390.5625 L 479.023438 2.28125 L 266.390625 2.28125 Z M 266.390625 390.5625 "/>
<path style=" stroke:none;fill-rule:nonzero;fill:rgb(90.196079%,90.196079%,90.196079%);fill-opacity:1;" d="M 432.199219 62.933594 C 433.03125 62.933594 433.707031 63.8125 433.707031 64.894531 L 433.707031 68.824219 C 433.707031 69.910156 433.03125 70.789062 432.199219 70.789062 L 313.214844 70.789062 C 312.382812 70.789062 311.707031 69.910156 311.707031 68.824219 L 311.707031 64.894531 C 311.707031 63.8125 312.382812 62.933594 313.214844 62.933594 L 432.199219 62.933594 "/>
<path style=" stroke:none;fill-rule:nonzero;fill:rgb(90.196079%,90.196079%,90.196079%);fill-opacity:1;" d="M 432.199219 81.589844 C 433.03125 81.589844 433.707031 82.472656 433.707031 83.554688 L 433.707031 87.484375 C 433.707031 88.570312 433.03125 89.449219 432.199219 89.449219 L 313.214844 89.449219 C 312.382812 89.449219 311.707031 88.570312 311.707031 87.484375 L 311.707031 83.554688 C 311.707031 82.472656 312.382812 81.589844 313.214844 81.589844 L 432.199219 81.589844 "/>
<path style=" stroke:none;fill-rule:nonzero;fill:rgb(47.058824%,100%,38.82353%);fill-opacity:1;" d="M 432.199219 100.253906 C 433.03125 100.253906 433.707031 101.132812 433.707031 102.214844 L 433.707031 106.144531 C 433.707031 107.230469 433.03125 108.109375 432.199219 108.109375 L 313.214844 108.109375 C 312.382812 108.109375 311.707031 107.230469 311.707031 106.144531 L 311.707031 102.21875 C 311.707031 101.132812 312.382812 100.253906 313.214844 100.253906 L 432.199219 100.253906 "/>
<path style=" stroke:none;fill-rule:nonzero;fill:rgb(18.431373%,18.039216%,25.490198%);fill-opacity:1;" d="M 651.210938 149.207031 L 690.734375 149.207031 C 690.675781 146.785156 691.070312 144.382812 691.886719 142.203125 C 691.90625 144.621094 692.316406 147.007812 693.082031 149.207031 L 694.878906 149.207031 C 697.625 149.203125 699.847656 146.300781 699.851562 142.722656 L 699.851562 109.226562 C 699.851562 92.828125 689.097656 68.242188 677.414062 78.527344 C 677.039062 78.503906 671.117188 75.082031 670.738281 75.082031 C 660.460938 75.09375 656.925781 87.1875 653.820312 99.96875 C 650.285156 97.84375 647.847656 106.714844 646.085938 122.332031 C 645.570312 126.886719 645.113281 132.019531 644.703125 137.617188 C 643.570312 142.316406 645.574219 147.324219 649.175781 148.800781 C 649.835938 149.074219 650.523438 149.210938 651.214844 149.210938 Z M 651.210938 149.207031 "/>
<path style=" stroke:none;fill-rule:nonzero;fill:rgb(100%,71.372551%,71.372551%);fill-opacity:1;" d="M 573.652344 340.703125 C 571.691406 346.757812 572.5 352.988281 575.457031 354.613281 C 578.410156 356.242188 582.394531 352.648438 584.355469 346.585938 C 585.164062 344.179688 585.519531 341.554688 585.390625 338.933594 L 593.445312 313.128906 L 584.078125 308.457031 L 577.128906 334.394531 C 575.601562 336.101562 574.40625 338.265625 573.648438 340.699219 Z M 573.652344 340.703125 "/>
<path style=" stroke:none;fill-rule:nonzero;fill:rgb(47.058824%,100%,38.82353%);fill-opacity:1;" d="M 660.253906 137.871094 L 679.144531 143.023438 L 676.246094 154.359375 L 682.042969 241.070312 L 672.382812 268.988281 L 613.464844 262.6875 L 627.953125 224.898438 C 627.953125 224.898438 622.15625 193.40625 629.882812 187.105469 C 637.613281 180.804688 650.167969 149.3125 650.167969 149.3125 Z M 660.253906 137.871094 "/>
<path style=" stroke:none;fill-rule:nonzero;fill:rgb(18.431373%,18.039216%,25.490198%);fill-opacity:1;" d="M 677.863281 148.039062 L 694.597656 156.875 L 688.804688 267.722656 L 701.359375 363.457031 L 660.792969 372.277344 C 660.792969 372.277344 665.621094 160.65625 668.519531 156.875 C 671.417969 153.097656 677.863281 148.035156 677.863281 148.035156 Z M 677.863281 148.039062 "/>
<path style=" stroke:none;fill-rule:nonzero;fill:rgb(18.431373%,18.039216%,25.490198%);fill-opacity:1;" d="M 645.085938 161.863281 C 645.085938 161.863281 634.195312 152.878906 628.3125 159.53125 C 622.425781 166.183594 577.128906 327.007812 577.128906 327.007812 L 589.347656 333.929688 L 617.367188 257.3125 Z M 645.085938 161.863281 "/>
<path style=" stroke:none;fill-rule:nonzero;fill:rgb(18.431373%,18.039216%,25.490198%);fill-opacity:1;" d="M 613.886719 432.832031 L 602.839844 543.59375 L 618.296875 544.851562 C 618.296875 544.851562 626.332031 516.257812 635.496094 482.574219 C 637.449219 475.433594 639.449219 468.0625 641.429688 460.683594 C 643.574219 452.671875 645.707031 444.660156 647.734375 436.925781 C 652.746094 417.855469 657.144531 400.496094 659.652344 389.160156 C 660.089844 387.171875 660.476562 385.371094 660.792969 383.78125 C 667.550781 349.921875 671.417969 261.4375 671.417969 261.4375 L 615.394531 255.136719 L 614.796875 256.109375 L 602.839844 275.59375 L 603.402344 279.714844 L 618.296875 388.660156 L 613.890625 432.835938 Z M 613.886719 432.832031 "/>
<path style=" stroke:none;fill-rule:nonzero;fill:rgb(18.431373%,18.039216%,25.490198%);fill-opacity:1;" d="M 618.292969 388.660156 L 613.886719 432.835938 L 633.699219 478.320312 L 635.496094 482.578125 L 662.769531 547.222656 L 676.246094 537.257812 C 676.246094 537.257812 658.714844 484.71875 647.730469 436.925781 C 646.515625 431.671875 645.382812 426.46875 644.371094 421.40625 C 641.386719 406.582031 646.273438 379.523438 644.363281 372.066406 C 637.898438 346.898438 616.84375 296.550781 607.066406 273.742188 L 603.398438 279.710938 Z M 618.292969 388.660156 "/>
<path style=" stroke:none;fill-rule:nonzero;fill:rgb(18.431373%,18.039216%,25.490198%);fill-opacity:1;" d="M 650.410156 148.367188 L 630.851562 158.140625 L 579.660156 353.386719 L 610.570312 359.683594 L 625.058594 246.316406 Z M 650.410156 148.367188 "/>
<path style=" stroke:none;fill-rule:nonzero;fill:rgb(100%,71.372551%,71.372551%);fill-opacity:1;" d="M 699.324219 359.117188 C 699.820312 365.660156 702.8125 370.628906 706.003906 370.214844 C 709.199219 369.800781 711.382812 364.164062 710.882812 357.617188 C 710.710938 355 710.0625 352.472656 708.988281 350.25 L 706.613281 322.5625 L 696.671875 324.292969 L 700.070312 351.40625 C 699.351562 353.859375 699.097656 356.503906 699.324219 359.117188 Z M 699.324219 359.117188 "/>
<path style=" stroke:none;fill-rule:nonzero;fill:rgb(18.431373%,18.039216%,25.490198%);fill-opacity:1;" d="M 687.835938 156.882812 C 687.835938 156.882812 700.390625 153.101562 704.257812 161.921875 C 708.121094 170.738281 710.050781 342.050781 710.050781 342.050781 L 696.765625 343.308594 L 689.769531 258.917969 L 687.835938 156.886719 Z M 687.835938 156.882812 "/>
<path style=" stroke:none;fill-rule:nonzero;fill:rgb(100%,71.372551%,71.372551%);fill-opacity:1;" d="M 691.890625 108.628906 C 691.890625 94.167969 682.898438 82.445312 671.8125 82.445312 C 660.722656 82.445312 651.734375 94.167969 651.734375 108.628906 C 651.734375 123.09375 660.722656 134.816406 671.8125 134.816406 C 682.898438 134.816406 691.890625 123.09375 691.890625 108.628906 Z M 691.890625 108.628906 "/>
<path style=" stroke:none;fill-rule:nonzero;fill:rgb(18.431373%,18.039216%,25.490198%);fill-opacity:1;" d="M 679.871094 149.207031 L 689.785156 149.207031 C 690.289062 149.207031 690.71875 148.699219 690.742188 148.042969 L 690.746094 147.972656 C 690.800781 146.605469 692.269531 146.375 692.613281 147.667969 C 692.75 148.191406 692.90625 148.703125 693.082031 149.207031 L 694.058594 149.207031 L 694.058594 108.839844 C 694.058594 101.914062 689.753906 96.300781 684.445312 96.300781 C 679.910156 96.300781 675.996094 100.433594 675.042969 106.210938 C 675.042969 106.210938 668.304688 116.992188 672.277344 123.050781 C 676.25 129.109375 670.472656 134.042969 670.472656 134.042969 C 669.1875 141.847656 673.75 149.207031 679.871094 149.207031 Z M 679.871094 149.207031 "/>
<path style=" stroke:none;fill-rule:nonzero;fill:rgb(94.901961%,94.901961%,94.901961%);fill-opacity:1;" d="M 351.113281 196.230469 C 353.339844 194.359375 353.808594 190.351562 352.25 187.558594 L 344.960938 174.476562 C 343.257812 171.417969 339.976562 170.738281 337.628906 172.957031 C 337.421875 173.15625 337.226562 173.371094 337.042969 173.605469 C 324.695312 182.214844 318.050781 194.78125 325.441406 209.640625 C 325.441406 212.125 325.578125 214.601562 325.855469 217.054688 C 325.976562 218.121094 326.25 219.164062 326.714844 220.050781 C 328.101562 222.691406 330.542969 223.660156 332.691406 222.746094 L 344.613281 217.695312 C 347.148438 216.621094 348.519531 213.011719 347.582031 209.761719 C 346.375 205.558594 346.871094 199.796875 351.113281 196.230469 Z M 351.113281 196.230469 "/>
<path style=" stroke:none;fill-rule:nonzero;fill:rgb(90.196079%,90.196079%,90.196079%);fill-opacity:1;" d="M 379.414062 234.824219 C 375.984375 234.382812 373.054688 238.070312 373.054688 242.566406 L 373.054688 255.980469 C 373.054688 256.328125 373.078125 256.675781 373.117188 257.019531 C 373.558594 260.753906 376.238281 263.320312 379.105469 262.746094 C 395.816406 265.429688 407.238281 255.953125 407.921875 235.160156 C 408.03125 234.867188 408.125 234.566406 408.203125 234.257812 C 409.09375 230.664062 407.582031 226.8125 404.828125 225.648438 L 394.84375 221.417969 C 391.398438 219.960938 387.820312 222.875 387.214844 227.53125 C 386.671875 231.738281 384.542969 235.484375 379.414062 234.824219 Z M 379.414062 234.824219 "/>
<path style=" stroke:none;fill-rule:nonzero;fill:rgb(24.705882%,23.921569%,33.725491%);fill-opacity:1;" d="M 317.691406 247.941406 C 321.15625 274.765625 339.203125 284.941406 358.027344 286.550781 C 358.394531 286.625 358.765625 286.660156 359.140625 286.660156 C 363.199219 286.664062 366.492188 282.375 366.492188 277.078125 L 366.492188 254.648438 C 366.492188 248.375 362.550781 243.488281 357.738281 243.425781 C 353.089844 243.363281 350.058594 240.492188 348.8125 235.222656 C 347.390625 229.203125 342.320312 226.027344 337.726562 227.976562 L 322.023438 234.628906 C 319.992188 235.492188 318.34375 237.460938 317.515625 240.03125 C 316.691406 242.578125 316.753906 245.460938 317.691406 247.941406 Z M 317.691406 247.941406 "/>
<path style=" stroke:none;fill-rule:nonzero;fill:rgb(47.058824%,100%,38.82353%);fill-opacity:1;" d="M 414.414062 155.1875 C 411.515625 151.488281 406.867188 151.550781 404.027344 155.328125 C 403.777344 155.664062 403.542969 156.023438 403.332031 156.40625 L 389.378906 181.445312 C 387.597656 184.648438 388.617188 189.109375 391.402344 190.671875 C 397.933594 194.335938 397.25 202.554688 395.121094 207.585938 C 394.078125 210.050781 394.941406 213.136719 396.992188 214.007812 L 420.5 223.96875 C 424.367188 225.597656 428.515625 222.828125 429.765625 217.785156 C 429.890625 217.277344 429.984375 216.757812 430.042969 216.226562 C 430.445312 212.71875 430.648438 209.175781 430.648438 205.625 C 434.625 186.285156 429.121094 168.054688 414.414062 155.1875 Z M 414.414062 155.1875 "/>
<path style=" stroke:none;fill-rule:nonzero;fill:rgb(90.196079%,90.196079%,90.196079%);fill-opacity:1;" d="M 374.042969 184.222656 C 376.648438 186.136719 379.933594 185.210938 381.691406 182.058594 L 386.363281 173.667969 C 387.273438 172.042969 387.585938 169.980469 387.226562 168.023438 C 386.878906 166.105469 385.902344 164.480469 384.554688 163.582031 C 373.558594 150.621094 360.542969 149.828125 349.503906 163.515625 C 348.117188 164.425781 347.105469 166.089844 346.742188 168.058594 C 346.382812 170 346.691406 172.050781 347.59375 173.667969 L 353.054688 183.46875 C 354.933594 186.835938 358.566406 187.71875 361.152344 185.277344 C 364.90625 181.730469 370.363281 181.523438 374.042969 184.222656 Z M 374.042969 184.222656 "/>
<path style=" stroke:none;fill-rule:nonzero;fill:rgb(90.196079%,90.196079%,90.196079%);fill-opacity:1;" d="M 0 599.675781 L 744.03125 599.675781 L 744.03125 601.597656 L 0 601.597656 Z M 0 599.675781 "/>
<path style=" stroke:none;fill-rule:nonzero;fill:rgb(24.705882%,23.921569%,33.725491%);fill-opacity:1;" d="M 312.46875 353.210938 C 312.890625 350.894531 314.859375 350.132812 316.472656 350.21875 C 317.488281 350.308594 318.5 350.515625 319.488281 350.839844 C 320.523438 351.144531 321.550781 351.5 322.570312 351.878906 C 324.441406 352.574219 326.292969 353.417969 328.191406 353.960938 C 329.789062 354.53125 331.46875 354.5625 333.074219 354.054688 C 334.621094 353.5 335.839844 351.945312 336.292969 349.9375 C 336.753906 348.023438 336.089844 345.953125 334.71875 345.035156 C 333.449219 344.125 331.855469 344.726562 331.15625 346.378906 C 331.144531 346.40625 331.136719 346.429688 331.125 346.453125 C 330.539062 348.496094 331 350.796875 332.277344 352.203125 C 332.933594 353.003906 333.648438 353.714844 334.417969 354.324219 C 335.199219 355.015625 336.066406 355.523438 336.980469 355.820312 C 338.539062 356.359375 340.183594 355.519531 341.050781 353.746094 C 341.222656 353.324219 341.324219 352.859375 341.355469 352.378906 C 341.398438 351.730469 340.621094 351.730469 340.574219 352.378906 C 340.445312 354.246094 338.769531 355.117188 337.515625 354.914062 C 336.667969 354.730469 335.863281 354.320312 335.144531 353.710938 C 334.449219 353.183594 333.792969 352.582031 333.179688 351.90625 C 332.117188 350.707031 331.121094 348.734375 331.835938 346.863281 C 332.390625 345.660156 333.585938 345.273438 334.507812 345.996094 C 334.632812 346.09375 334.746094 346.207031 334.851562 346.335938 C 335.964844 347.527344 335.765625 349.683594 335.03125 351.097656 C 334.148438 352.574219 332.785156 353.421875 331.347656 353.390625 C 329.835938 353.394531 328.328125 353.085938 326.890625 352.476562 C 325.09375 351.8125 323.316406 351.070312 321.511719 350.441406 C 320.484375 350.085938 319.453125 349.765625 318.410156 349.515625 C 317.421875 349.230469 316.410156 349.140625 315.402344 349.246094 C 313.703125 349.347656 312.234375 350.820312 311.714844 352.9375 C 311.601562 353.574219 312.355469 353.847656 312.46875 353.210938 Z M 312.46875 353.210938 "/>
<path style=" stroke:none;fill-rule:nonzero;fill:rgb(90.196079%,90.196079%,90.196079%);fill-opacity:1;" d="M 343.347656 326.699219 C 343.582031 326.699219 343.773438 327.578125 343.773438 328.664062 L 343.773438 332.59375 C 343.773438 333.679688 343.582031 334.558594 343.347656 334.558594 L 309.714844 334.558594 C 309.480469 334.558594 309.289062 333.679688 309.289062 332.59375 L 309.289062 328.664062 C 309.289062 327.578125 309.480469 326.699219 309.714844 326.699219 L 343.347656 326.699219 "/>
<path style=" stroke:none;fill-rule:nonzero;fill:rgb(90.196079%,90.196079%,90.196079%);fill-opacity:1;" d="M 433.28125 326.699219 C 433.515625 326.699219 433.707031 327.578125 433.707031 328.664062 L 433.707031 332.59375 C 433.707031 333.679688 433.515625 334.558594 433.28125 334.558594 L 399.652344 334.558594 C 399.414062 334.558594 399.226562 333.679688 399.226562 332.59375 L 399.226562 328.664062 C 399.226562 327.578125 399.414062 326.699219 399.652344 326.699219 L 433.28125 326.699219 "/>
<path style=" stroke:none;fill-rule:nonzero;fill:rgb(47.058824%,100%,38.82353%);fill-opacity:1;" d="M 418.308594 348.832031 L 411.632812 351.707031 L 408.292969 353.148438 C 407.269531 353.71875 406.160156 353.984375 405.042969 353.925781 C 404.222656 353.855469 403.5 353.1875 403.175781 352.199219 C 403.035156 351.207031 403.359375 350.203125 404.003906 349.644531 C 405.597656 348.066406 407.613281 349.675781 408.742188 351.308594 C 410.121094 353.3125 410.902344 355.898438 412.199219 357.992188 C 413.351562 359.875 414.8125 361.394531 416.476562 362.4375 C 419.796875 364.589844 423.761719 364.148438 426.757812 361.292969 C 430.273438 357.753906 430.632812 351.617188 430.652344 346.265625 C 430.640625 345.75 430.308594 345.347656 429.914062 345.367188 C 429.539062 345.382812 429.238281 345.773438 429.226562 346.265625 C 429.207031 351.117188 428.996094 357.0625 425.605469 360.097656 C 422.355469 363.007812 418.085938 362.234375 415.09375 359.136719 C 413.550781 357.347656 412.269531 355.207031 411.304688 352.828125 C 410.238281 350.546875 408.910156 348.34375 406.902344 347.460938 C 405.121094 346.617188 403.136719 347.523438 402.148438 349.625 C 401.296875 351.496094 401.765625 353.914062 403.203125 355.023438 C 403.3125 355.109375 403.425781 355.1875 403.546875 355.253906 C 405.878906 356.703125 408.546875 355.003906 410.789062 354.039062 L 418.6875 350.632812 C 419.558594 350.257812 419.1875 348.460938 418.308594 348.835938 Z M 418.308594 348.832031 "/>
<path style=" stroke:none;fill-rule:nonzero;fill:rgb(90.196079%,90.196079%,90.196079%);fill-opacity:1;" d="M 121.652344 565.515625 C 121.566406 565.414062 121.496094 565.363281 121.453125 565.363281 C 120.363281 565.375 119.390625 566.121094 118.859375 567.355469 L 107.128906 595.757812 C 106.863281 596.375 106.730469 597.050781 106.734375 597.726562 C 106.738281 598.402344 106.878906 599.074219 107.15625 599.6875 C 107.710938 600.910156 133.609375 601.351562 133.609375 601.351562 C 134.699219 601.335938 137.6875 583.863281 121.652344 565.515625 Z M 121.652344 565.515625 "/>
<path style=" stroke:none;fill-rule:nonzero;fill:rgb(100%,71.372551%,71.372551%);fill-opacity:1;" d="M 76.832031 594.46875 L 85.730469 594.367188 L 89.664062 549.542969 L 76.527344 549.695312 Z M 76.832031 594.46875 "/>
<path style=" stroke:none;fill-rule:nonzero;fill:rgb(18.431373%,18.039216%,25.490198%);fill-opacity:1;" d="M 107.324219 593.859375 C 107.605469 594.464844 107.765625 596.425781 107.769531 597.132812 C 107.785156 599.308594 106.445312 601.089844 104.773438 601.109375 L 77.210938 601.421875 C 76.070312 601.433594 75.140625 600.242188 75.128906 598.757812 L 75.121094 597.261719 C 75.121094 597.261719 73.726562 592.777344 76.496094 587.203125 C 76.496094 587.203125 80.015625 591.503906 85.183594 584.644531 L 86.699219 580.996094 L 97.898438 591.484375 L 104.074219 592.402344 C 105.425781 592.605469 106.621094 592.339844 107.324219 593.859375 Z M 107.324219 593.859375 "/>
<path style=" stroke:none;fill-rule:nonzero;fill:rgb(100%,71.372551%,71.372551%);fill-opacity:1;" d="M 110.691406 555.769531 L 119.152344 559.390625 L 133.886719 518.574219 L 121.402344 513.230469 Z M 110.691406 555.769531 "/>
<path style=" stroke:none;fill-rule:nonzero;fill:rgb(18.431373%,18.039216%,25.490198%);fill-opacity:1;" d="M 139.730469 567.929688 C 139.847656 568.621094 139.519531 570.546875 139.347656 571.21875 C 138.828125 573.285156 137.121094 574.410156 135.535156 573.734375 L 109.34375 562.515625 C 108.261719 562.054688 107.675781 560.535156 108.03125 559.125 L 108.386719 557.703125 C 108.386719 557.703125 108.167969 552.875 112.164062 548.75 C 112.164062 548.75 114.4375 554.292969 121.019531 549.953125 L 123.347656 547.128906 L 131.382812 561.742188 L 137.007812 565.195312 C 138.238281 565.949219 139.4375 566.199219 139.730469 567.929688 Z M 139.730469 567.929688 "/>
<path style=" stroke:none;fill-rule:nonzero;fill:rgb(18.431373%,18.039216%,25.490198%);fill-opacity:1;" d="M 122.636719 295.878906 L 140.417969 370.238281 L 161.265625 437.070312 L 129.664062 533.238281 L 112.082031 524.300781 L 127.820312 441.070312 L 100.917969 378.925781 L 88.207031 565.480469 L 72.742188 563.066406 L 52.632812 339.597656 L 55.785156 291.003906 Z M 122.636719 295.878906 "/>
<path style=" stroke:none;fill-rule:nonzero;fill:rgb(90.196079%,90.196079%,90.196079%);fill-opacity:1;" d="M 104.441406 126.5625 L 85.226562 120.515625 L 79.925781 136.933594 C 79.925781 136.933594 53.960938 142.652344 52.632812 168.574219 C 52.632812 168.574219 47.457031 202.601562 50.769531 212.109375 C 54.082031 221.613281 62.25 255.226562 62.25 255.226562 C 62.25 255.226562 49.320312 297.105469 52.632812 299.691406 C 55.945312 302.28125 126.945312 311.71875 126.945312 306.53125 C 126.945312 301.347656 127.753906 239.753906 127.753906 239.753906 L 124.976562 146.433594 L 107.089844 137.796875 Z M 104.441406 126.5625 "/>
<path style=" stroke:none;fill-rule:nonzero;fill:rgb(100%,71.372551%,71.372551%);fill-opacity:1;" d="M 120.550781 97.136719 C 120.550781 83.191406 111.882812 71.882812 101.1875 71.882812 C 90.492188 71.882812 81.824219 83.191406 81.824219 97.136719 C 81.824219 111.082031 90.492188 122.386719 101.1875 122.386719 C 111.882812 122.386719 120.550781 111.082031 120.550781 97.136719 Z M 120.550781 97.136719 "/>
<path style=" stroke:none;fill-rule:nonzero;fill:rgb(18.431373%,18.039216%,25.490198%);fill-opacity:1;" d="M 88.367188 100.890625 C 89.910156 101.992188 88.449219 107.257812 89.414062 107.714844 C 90.53125 108.238281 94.597656 102.195312 94.644531 95.429688 C 94.660156 93.382812 94.300781 92.398438 94.644531 89.96875 C 95.101562 86.792969 96.496094 83.046875 97.785156 83.144531 C 98.550781 83.203125 99.300781 84.613281 99.355469 85.875 C 99.433594 87.640625 98.121094 88.335938 98.308594 89.289062 C 98.671875 91.097656 104.195312 92.347656 106.160156 89.289062 C 107.699219 86.886719 106.515625 82.679688 107.207031 82.460938 C 107.714844 82.304688 108.261719 84.621094 110.347656 87.238281 C 111.132812 88.226562 112.300781 89.695312 112.960938 89.289062 C 113.917969 88.699219 113.222656 84.566406 113.484375 84.511719 C 113.703125 84.464844 113.839844 87.371094 115.054688 89.96875 C 116.617188 93.308594 119.835938 95.878906 121.335938 94.746094 C 122.253906 94.050781 122.328125 92.121094 122.382812 90.652344 C 122.496094 87.558594 125.941406 80.445312 125.050781 77.140625 C 123.234375 70.40625 120.125 75.152344 118.71875 72.90625 C 116.816406 69.867188 115.105469 71.503906 111.914062 68.128906 C 108.796875 64.835938 108.769531 61.523438 106.683594 61.304688 C 104.804688 61.109375 104.136719 63.726562 101.972656 63.351562 C 100.140625 63.039062 99.742188 61.011719 98.308594 61.304688 C 97 61.578125 96.914062 63.363281 95.167969 64.035156 C 94.058594 64.464844 93.8125 63.84375 92.554688 64.035156 C 89.933594 64.433594 88.171875 67.546875 87.84375 68.128906 C 86.574219 70.378906 87.066406 71.328125 85.75 73.589844 C 84.613281 75.542969 82.097656 74.714844 81.152344 75.691406 C 78.0625 78.875 76.734375 84.75 76.710938 91.445312 C 76.691406 96.125 77.160156 98.492188 78.207031 104.398438 C 79.003906 108.886719 82.675781 114.683594 84.703125 117.269531 C 85.246094 117.960938 86.773438 119.90625 87.84375 119.316406 C 88.859375 118.753906 88.886719 116.234375 88.890625 115.902344 C 88.894531 114.757812 88.660156 113.34375 86.796875 109.761719 C 84.839844 105.996094 84.0625 105.570312 84.179688 104.300781 C 84.390625 102.0625 87.136719 100.011719 88.367188 100.890625 Z M 88.367188 100.890625 "/>
<path style=" stroke:none;fill-rule:nonzero;fill:rgb(100%,71.372551%,71.372551%);fill-opacity:1;" d="M 33.609375 352.757812 C 32.9375 360.101562 35.292969 366.507812 38.878906 367.066406 C 42.460938 367.625 45.910156 362.128906 46.585938 354.785156 C 46.882812 351.570312 46.59375 348.535156 45.878906 346.09375 L 48.4375 314.933594 L 37.199219 313.679688 L 35.871094 344.53125 C 34.734375 346.683594 33.90625 349.542969 33.609375 352.757812 Z M 33.609375 352.757812 "/>
<path style=" stroke:none;fill-rule:nonzero;fill:rgb(90.196079%,90.196079%,90.196079%);fill-opacity:1;" d="M 65.96875 145.828125 C 65.96875 145.828125 60.148438 145.933594 56.289062 155.75 C 54.238281 160.964844 40.914062 254.46875 40.914062 254.46875 L 37.171875 284.042969 L 39.09375 288.933594 C 36.039062 295.03125 35.195312 302.582031 36.792969 309.566406 L 33.136719 338.457031 L 50.335938 338.578125 L 63.757812 262.890625 L 75.042969 218.992188 Z M 65.96875 145.828125 "/>
<path style=" stroke:none;fill-rule:nonzero;fill:rgb(100%,71.372551%,71.372551%);fill-opacity:1;" d="M 153.835938 351.617188 C 154.507812 358.960938 152.152344 365.367188 148.570312 365.925781 C 144.984375 366.488281 141.535156 360.988281 140.859375 353.644531 C 140.566406 350.429688 140.851562 347.394531 141.566406 344.953125 L 139.007812 313.792969 L 150.246094 312.539062 L 151.574219 343.390625 C 152.710938 345.542969 153.539062 348.40625 153.835938 351.617188 Z M 153.835938 351.617188 "/>
<path style=" stroke:none;fill-rule:nonzero;fill:rgb(90.196079%,90.196079%,90.196079%);fill-opacity:1;" d="M 121.476562 144.6875 C 121.476562 144.6875 127.296875 144.792969 131.15625 154.609375 C 133.207031 159.828125 146.53125 253.328125 146.53125 253.328125 L 150.273438 282.902344 L 148.351562 287.792969 C 151.410156 293.894531 152.25 301.441406 150.652344 308.425781 L 154.308594 337.316406 L 137.109375 337.4375 L 123.691406 261.75 L 112.40625 217.851562 Z M 121.476562 144.6875 "/>
<path style=" stroke:none;fill-rule:nonzero;fill:rgb(18.431373%,18.039216%,25.490198%);fill-opacity:1;" d="M 647.675781 104.742188 C 648.390625 106.265625 652.179688 100.6875 658 100.074219 C 659.480469 99.914062 662.820312 107.308594 666.652344 107.417969 C 669.191406 107.484375 670.753906 107.457031 673.882812 107.417969 C 677.578125 107.363281 678.589844 107.257812 679.300781 106.078125 C 680.683594 103.792969 679.546875 99.726562 680.207031 99.390625 C 680.757812 99.113281 682.183594 101.625 682.917969 104.742188 C 684.453125 111.28125 678.941406 120.390625 678.398438 128.816406 C 677.820312 137.898438 683.511719 120.5 682.917969 128.816406 C 682.246094 138.179688 679.855469 137.472656 679.878906 140.855469 C 679.890625 141.363281 679.988281 141.804688 680.207031 142.195312 C 680.394531 142.542969 680.585938 142.675781 683.820312 143.53125 C 687.6875 144.5625 689.628906 145.070312 690.144531 144.867188 C 691.472656 144.359375 692.820312 141.539062 693.757812 139.519531 C 695.3125 136.214844 694.210938 139.546875 693.757812 135.503906 C 693.324219 131.601562 691.96875 131.09375 691.953125 127.480469 C 691.933594 122.933594 694.074219 121.554688 695.566406 116.78125 C 698.324219 107.953125 695.628906 97.734375 694.664062 94.042969 C 694.199219 92.273438 693.355469 90.03125 691.878906 86.328125 C 690.695312 83.355469 689.121094 80.738281 687.203125 78.777344 C 684.328125 75.835938 680.992188 73.824219 677.378906 73.023438 C 675.402344 72.585938 673.386719 72.816406 671.441406 73.507812 L 666.40625 75.300781 C 664.289062 76.050781 662.296875 77.417969 660.535156 79.316406 C 658.894531 79.324219 657.472656 80.890625 656.910156 83.171875 C 656.851562 83.410156 656.800781 83.550781 656.753906 83.53125 C 647.675781 79.328125 647.683594 91.769531 647.78125 99.542969 C 647.792969 100.335938 647.773438 101.039062 647.703125 101.613281 L 647.703125 101.652344 C 647.523438 103.191406 647.480469 104.316406 647.675781 104.742188 Z M 647.675781 104.742188 "/>
<path style=" stroke:none;fill-rule:nonzero;fill:rgb(24.705882%,23.921569%,33.725491%);fill-opacity:1;" d="M 434.113281 173.449219 L 529.679688 173.449219 L 529.679688 175.730469 L 434.113281 175.730469 Z M 434.113281 173.449219 "/>
<path style=" stroke:none;fill-rule:nonzero;fill:rgb(24.705882%,23.921569%,33.725491%);fill-opacity:1;" d="M 548.914062 189.378906 C 542.164062 189.378906 536.671875 182.21875 536.671875 173.414062 C 536.671875 164.613281 542.164062 157.453125 548.914062 157.453125 C 555.660156 157.453125 561.152344 164.613281 561.152344 173.414062 C 561.152344 182.21875 555.660156 189.378906 548.914062 189.378906 Z M 548.914062 159.734375 C 543.128906 159.734375 538.421875 165.871094 538.421875 173.414062 C 538.421875 180.960938 543.128906 187.097656 548.914062 187.097656 C 554.699219 187.097656 559.402344 180.960938 559.402344 173.414062 C 559.402344 165.871094 554.699219 159.734375 548.914062 159.734375 Z M 548.914062 159.734375 "/>
<path style=" stroke:none;fill-rule:nonzero;fill:rgb(47.058824%,100%,38.82353%);fill-opacity:1;" d="M 555.03125 173.414062 C 555.03125 169.007812 552.292969 165.433594 548.914062 165.433594 C 545.53125 165.433594 542.792969 169.007812 542.792969 173.414062 C 542.792969 177.824219 545.53125 181.394531 548.914062 181.394531 C 552.292969 181.394531 555.03125 177.824219 555.03125 173.414062 Z M 555.03125 173.414062 "/>
<path style=" stroke:none;fill-rule:nonzero;fill:rgb(24.705882%,23.921569%,33.725491%);fill-opacity:1;" d="M 215.816406 257.820312 L 311.378906 257.820312 L 311.378906 260.101562 L 215.816406 260.101562 Z M 215.816406 257.820312 "/>
<path style=" stroke:none;fill-rule:nonzero;fill:rgb(24.705882%,23.921569%,33.725491%);fill-opacity:1;" d="M 184.34375 257.785156 C 184.34375 248.984375 189.835938 241.824219 196.582031 241.824219 C 203.332031 241.824219 208.824219 248.984375 208.824219 257.785156 C 208.824219 266.589844 203.332031 273.75 196.582031 273.75 C 189.835938 273.75 184.34375 266.589844 184.34375 257.785156 Z M 186.09375 257.785156 C 186.09375 265.332031 190.796875 271.46875 196.582031 271.46875 C 202.367188 271.46875 207.074219 265.332031 207.074219 257.785156 C 207.074219 250.242188 202.367188 244.105469 196.582031 244.105469 C 190.796875 244.105469 186.09375 250.242188 186.09375 257.785156 Z M 186.09375 257.785156 "/>
<path style=" stroke:none;fill-rule:nonzero;fill:rgb(47.058824%,100%,38.82353%);fill-opacity:1;" d="M 202.703125 257.785156 C 202.703125 253.378906 199.964844 249.804688 196.582031 249.804688 C 193.203125 249.804688 190.464844 253.378906 190.464844 257.785156 C 190.464844 262.195312 193.203125 265.769531 196.582031 265.769531 C 199.964844 265.769531 202.703125 262.195312 202.703125 257.785156 Z M 202.703125 257.785156 "/>
</g>
</svg>
