<?xml version="1.0" encoding="UTF-8"?>
<svg xmlns="http://www.w3.org/2000/svg" xmlns:xlink="http://www.w3.org/1999/xlink" width="744px" height="602px" viewBox="0 0 744 602" version="1.1">
<g id="surface1">
<path style=" stroke:none;fill-rule:nonzero;fill:rgb(94.901961%,94.901961%,94.901961%);fill-opacity:1;" d="M 645.132812 583.929688 C 647.976562 584.054688 649.550781 581.617188 647.398438 580.195312 L 647.183594 579.609375 C 647.210938 579.5625 647.238281 579.515625 647.269531 579.46875 C 650.148438 574.738281 659.902344 574.769531 662.757812 579.507812 C 665.289062 583.710938 668.515625 587.925781 669.308594 592.371094 C 669.664062 594.332031 669.503906 596.332031 668.871094 598.257812 C 674.808594 589.320312 677.933594 579.5625 677.933594 569.75 C 677.933594 567.285156 677.734375 564.820312 677.335938 562.363281 C 677.007812 560.351562 676.550781 558.351562 675.964844 556.371094 C 672.789062 545.660156 665.910156 535.464844 655.988281 526.945312 C 651.21875 525.148438 647.238281 522.339844 644.835938 518.972656 C 643.972656 517.757812 643.296875 516.449219 642.976562 515.121094 C 643.519531 515.167969 645.023438 509.472656 644.613281 509.121094 C 645.371094 508.332031 646.726562 507.9375 647.550781 507.164062 C 651.660156 503.328125 657.320312 503.996094 660.277344 509.214844 C 666.589844 511.410156 666.652344 515.050781 662.777344 518.554688 C 660.3125 520.78125 659.972656 523.796875 657.8125 526.183594 C 658.035156 526.378906 658.265625 526.570312 658.488281 526.765625 C 662.566406 530.371094 666.097656 534.25 669.070312 538.320312 C 668.230469 533.796875 669.472656 528.34375 671.585938 524.828125 C 673.996094 520.824219 678.511719 517.453125 682.484375 513.988281 C 687.261719 509.832031 697.054688 511.644531 697.894531 516.917969 C 697.902344 516.96875 697.910156 517.019531 697.917969 517.070312 C 697.328125 517.300781 696.75 517.542969 696.183594 517.800781 C 692.960938 519.269531 694.074219 522.714844 697.894531 523.121094 L 697.980469 523.128906 C 697.765625 524.59375 697.402344 526.050781 696.867188 527.476562 C 701.96875 541.070312 690.957031 546.023438 675.234375 546.246094 C 674.886719 546.367188 674.550781 546.488281 674.203125 546.605469 C 675.796875 549.695312 677.070312 552.867188 678.011719 556.082031 C 678.855469 558.921875 679.445312 561.792969 679.773438 564.671875 C 680.183594 568.308594 680.148438 571.964844 679.703125 575.597656 L 679.730469 575.46875 C 680.859375 571.46875 684.007812 567.734375 688.582031 565.144531 C 695.398438 561.289062 705.023438 559.867188 712.375 556.765625 C 715.914062 555.273438 720.449219 557.203125 719.832031 560.03125 L 719.800781 560.167969 C 718.707031 560.472656 717.636719 560.828125 716.605469 561.226562 C 716.015625 561.457031 715.4375 561.699219 714.871094 561.957031 C 711.648438 563.425781 712.761719 566.871094 716.582031 567.277344 L 716.667969 567.285156 C 716.730469 567.292969 716.785156 567.296875 716.847656 567.304688 C 714.96875 570.378906 712.351562 573.230469 709.078125 575.6875 C 705.890625 587.554688 692.191406 588.679688 677.539062 585.226562 L 677.53125 585.226562 C 675.929688 590.03125 673.589844 594.730469 670.582031 599.207031 L 645.753906 599.207031 C 645.664062 599.019531 645.585938 598.820312 645.503906 598.632812 C 647.800781 598.730469 650.113281 598.636719 652.375 598.347656 C 650.53125 596.792969 648.691406 595.222656 646.847656 593.664062 C 646.804688 593.632812 646.769531 593.601562 646.730469 593.570312 C 645.796875 592.773438 644.855469 591.984375 643.921875 591.1875 L 643.917969 591.183594 C 643.859375 588.738281 644.285156 586.296875 645.128906 583.929688 Z M 645.132812 583.929688 "/>
<path style=" stroke:none;fill-rule:nonzero;fill:rgb(94.901961%,94.901961%,94.901961%);fill-opacity:1;" d="M 106.902344 583.929688 C 104.058594 584.054688 102.484375 581.617188 104.636719 580.195312 L 104.851562 579.609375 C 104.824219 579.5625 104.796875 579.515625 104.765625 579.46875 C 101.886719 574.738281 92.132812 574.769531 89.277344 579.507812 C 86.746094 583.710938 83.519531 587.925781 82.726562 592.371094 C 82.371094 594.332031 82.53125 596.332031 83.164062 598.257812 C 77.226562 589.320312 74.101562 579.5625 74.101562 569.75 C 74.101562 567.285156 74.300781 564.820312 74.699219 562.363281 C 75.027344 560.351562 75.484375 558.351562 76.070312 556.371094 C 79.246094 545.660156 86.125 535.464844 96.046875 526.945312 C 100.816406 525.148438 104.796875 522.339844 107.199219 518.972656 C 108.0625 517.757812 108.738281 516.449219 109.058594 515.121094 C 108.515625 515.167969 107.011719 509.472656 107.421875 509.121094 C 106.664062 508.332031 105.308594 507.9375 104.484375 507.164062 C 100.375 503.328125 94.714844 503.996094 91.757812 509.214844 C 85.445312 511.410156 85.382812 515.050781 89.257812 518.554688 C 91.722656 520.78125 92.0625 523.796875 94.222656 526.183594 C 94 526.378906 93.769531 526.570312 93.546875 526.765625 C 89.46875 530.371094 85.9375 534.25 82.964844 538.320312 C 83.804688 533.796875 82.5625 528.34375 80.449219 524.828125 C 78.039062 520.824219 73.523438 517.453125 69.550781 513.988281 C 64.773438 509.832031 54.980469 511.644531 54.140625 516.917969 C 54.132812 516.96875 54.125 517.019531 54.117188 517.070312 C 54.707031 517.300781 55.285156 517.542969 55.851562 517.800781 C 59.074219 519.269531 57.960938 522.714844 54.140625 523.121094 L 54.054688 523.128906 C 54.269531 524.59375 54.632812 526.050781 55.167969 527.476562 C 50.066406 541.070312 61.078125 546.023438 76.800781 546.246094 C 77.148438 546.367188 77.484375 546.488281 77.832031 546.605469 C 76.238281 549.695312 74.964844 552.867188 74.023438 556.082031 C 73.175781 558.921875 72.589844 561.792969 72.261719 564.671875 C 71.851562 568.308594 71.886719 571.964844 72.332031 575.597656 L 72.304688 575.46875 C 71.175781 571.46875 68.023438 567.734375 63.453125 565.144531 C 56.636719 561.289062 47.011719 559.867188 39.660156 556.765625 C 36.121094 555.273438 31.585938 557.203125 32.203125 560.03125 L 32.234375 560.167969 C 33.328125 560.472656 34.394531 560.828125 35.429688 561.226562 C 36.019531 561.457031 36.597656 561.699219 37.164062 561.957031 C 40.386719 563.425781 39.273438 566.871094 35.453125 567.277344 L 35.367188 567.285156 C 35.304688 567.292969 35.25 567.296875 35.1875 567.304688 C 37.066406 570.378906 39.683594 573.230469 42.957031 575.6875 C 46.144531 587.554688 59.84375 588.679688 74.496094 585.226562 L 74.503906 585.226562 C 76.105469 590.03125 78.445312 594.730469 81.453125 599.207031 L 106.28125 599.207031 C 106.371094 599.019531 106.449219 598.820312 106.53125 598.632812 C 104.234375 598.730469 101.921875 598.636719 99.660156 598.347656 C 101.503906 596.792969 103.34375 595.222656 105.1875 593.664062 C 105.230469 593.632812 105.265625 593.601562 105.300781 593.570312 C 106.238281 592.773438 107.179688 591.984375 108.113281 591.1875 L 108.113281 591.183594 C 108.171875 588.738281 107.746094 586.296875 106.90625 583.929688 Z M 106.902344 583.929688 "/>
<path style=" stroke:none;fill-rule:nonzero;fill:rgb(80.000001%,80.000001%,80.000001%);fill-opacity:1;" d="M 0 600.542969 C 0 601.171875 0.730469 601.675781 1.640625 601.675781 L 741.90625 601.675781 C 742.816406 601.675781 743.546875 601.171875 743.546875 600.542969 C 743.546875 599.917969 742.816406 599.414062 741.90625 599.414062 L 1.640625 599.414062 C 0.730469 599.414062 0 599.917969 0 600.542969 Z M 0 600.542969 "/>
<path style=" stroke:none;fill-rule:nonzero;fill:rgb(62.7451%,38.039216%,41.568628%);fill-opacity:1;" d="M 533.710938 578.808594 L 548.335938 578.722656 L 554.808594 538.945312 L 533.226562 539.070312 Z M 533.710938 578.808594 "/>
<path style=" stroke:none;fill-rule:nonzero;fill:rgb(18.431373%,18.039216%,25.490198%);fill-opacity:1;" d="M 577.6875 591.144531 L 554.332031 580.226562 L 554.242188 573.015625 L 549.21875 573.25 L 533.652344 573.988281 L 529.835938 574.164062 L 527.066406 599.652344 L 538.035156 599.582031 L 539.90625 592.4375 L 544.996094 599.546875 L 574.070312 599.378906 C 577.679688 599.355469 580.582031 597.316406 580.550781 594.835938 C 580.53125 593.355469 579.460938 591.976562 577.6875 591.144531 Z M 577.6875 591.144531 "/>
<path style=" stroke:none;fill-rule:nonzero;fill:rgb(62.7451%,38.039216%,41.568628%);fill-opacity:1;" d="M 459.3125 578.808594 L 473.933594 578.722656 L 480.40625 538.945312 L 458.824219 539.070312 Z M 459.3125 578.808594 "/>
<path style=" stroke:none;fill-rule:nonzero;fill:rgb(18.431373%,18.039216%,25.490198%);fill-opacity:1;" d="M 503.285156 591.144531 L 479.929688 580.226562 L 479.84375 573.015625 L 474.820312 573.25 L 459.253906 573.988281 L 455.433594 574.164062 L 452.664062 599.652344 L 463.636719 599.582031 L 465.503906 592.4375 L 470.59375 599.546875 L 499.667969 599.378906 C 503.28125 599.355469 506.183594 597.316406 506.152344 594.835938 C 506.132812 593.355469 505.0625 591.976562 503.285156 591.144531 Z M 503.285156 591.144531 "/>
<path style=" stroke:none;fill-rule:nonzero;fill:rgb(62.7451%,38.039216%,41.568628%);fill-opacity:1;" d="M 574.632812 49.167969 C 570.355469 54.125 572.722656 60.535156 579.917969 63.480469 C 583.214844 64.832031 586.949219 65.210938 590.445312 64.757812 L 590.457031 64.769531 L 609.246094 78.953125 L 631.316406 73.441406 L 602.359375 51.648438 L 602.257812 51.722656 C 601.253906 49.214844 598.90625 46.960938 595.40625 45.523438 C 588.210938 42.578125 578.910156 44.207031 574.632812 49.167969 Z M 574.632812 49.167969 "/>
<path style=" stroke:none;fill-rule:nonzero;fill:rgb(18.431373%,18.039216%,25.490198%);fill-opacity:1;" d="M 591.09375 257.207031 L 531.820312 258.5 L 475.664062 267.097656 C 475.664062 267.097656 481.28125 271.828125 462.5625 284.726562 C 462.5625 284.726562 437.605469 314.828125 455.074219 344.066406 L 459.972656 420.542969 C 459.972656 420.542969 464.148438 426.601562 460.382812 426.992188 C 456.621094 427.382812 456.890625 431.914062 460.886719 434.871094 C 464.886719 437.824219 461.257812 440.648438 461.257812 440.648438 C 468.960938 444.1875 463.28125 453.71875 462.5625 461.027344 C 462.5625 461.027344 440.734375 543.476562 457.410156 569.71875 L 479.457031 570.667969 L 516.757812 461.980469 L 534.9375 344.929688 L 543.675781 460.167969 C 543.675781 460.167969 510.257812 539.265625 531.359375 570.667969 L 555.234375 569.71875 L 596.085938 460.167969 C 596.085938 460.167969 602.960938 410.414062 607.46875 367.386719 C 607.796875 364.242188 605.902344 357.140625 608.417969 358.078125 C 610.929688 359.015625 604.585938 351.535156 609.136719 350.527344 C 613.6875 349.519531 606.03125 341.734375 609.859375 342.304688 C 613.6875 342.875 607.40625 280.390625 606.796875 274.507812 C 604.300781 250.425781 591.09375 257.207031 591.09375 257.207031 Z M 591.09375 257.207031 "/>
<path style=" stroke:none;fill-rule:nonzero;fill:rgb(90.196079%,90.196079%,90.196079%);fill-opacity:1;" d="M 560.027344 155.578125 C 553.726562 155.578125 547.648438 153.894531 542.972656 150.742188 C 536.703125 146.511719 534.21875 140.476562 536.328125 134.609375 C 538.757812 127.847656 546.796875 122.867188 556.808594 121.925781 L 639.789062 114.117188 L 597.164062 72.816406 L 621.140625 64.429688 L 683.332031 113.640625 C 687.683594 117.082031 689.128906 121.746094 687.203125 126.113281 C 685.273438 130.480469 680.308594 133.796875 673.914062 134.988281 L 566.519531 154.980469 C 564.363281 155.382812 562.179688 155.578125 560.027344 155.578125 Z M 560.027344 155.578125 "/>
<path style=" stroke:none;fill-rule:nonzero;fill:rgb(90.196079%,90.196079%,90.196079%);fill-opacity:1;" d="M 611.722656 274.414062 L 461.546875 279.164062 C 457.421875 274.847656 458.539062 268.355469 464.3125 260.226562 C 486.125 229.539062 469.558594 171.480469 458.417969 141.25 C 455.292969 132.769531 463.683594 124.335938 476.320312 123.464844 L 490.480469 122.492188 L 503.566406 94.953125 L 549.410156 94.953125 L 568.425781 109.929688 L 600.699219 123.441406 C 594.828125 165.144531 569.792969 224.03125 605.453125 253.5625 C 613.253906 260.023438 615.464844 267.007812 611.722656 274.414062 Z M 611.722656 274.414062 "/>
<path style=" stroke:none;fill-rule:nonzero;fill:rgb(18.431373%,18.039216%,25.490198%);fill-opacity:1;" d="M 523.6875 90.96875 C 520.210938 91.855469 516.65625 92.6875 512.957031 93.308594 C 508.148438 94.117188 505.4375 94.492188 500.796875 93.25 C 500.632812 93.207031 500.480469 93.164062 500.332031 93.121094 C 483.003906 88.140625 470.714844 76.261719 470.335938 62.324219 C 470.3125 62.097656 470.3125 61.859375 470.3125 61.628906 C 470.3125 60.503906 470.382812 59.386719 470.546875 58.289062 C 470.753906 56.757812 471.101562 55.257812 471.597656 53.792969 L 471.550781 53.785156 C 467.792969 51.140625 466.347656 47.515625 466.828125 43.871094 C 467.4375 39.109375 471.328125 34.3125 477.570312 31.613281 C 482.214844 29.609375 487.511719 28.273438 493.191406 27.816406 C 494.667969 27.699219 496.160156 27.636719 497.679688 27.636719 L 511.777344 27.636719 C 514.769531 27.160156 517.746094 26.832031 520.628906 26.675781 L 520.652344 26.675781 C 549.023438 25.050781 571.398438 38.015625 569.308594 53.785156 C 569.292969 53.804688 569.269531 53.820312 569.253906 53.839844 C 568.652344 54.515625 568.121094 55.160156 567.648438 55.773438 C 567.191406 56.347656 566.804688 56.898438 566.472656 57.417969 C 563.882812 61.449219 576.1875 123.996094 571.773438 124.945312 C 569.261719 125.484375 559.140625 78.941406 560.957031 87.792969 C 563.242188 98.894531 536.757812 87.640625 523.6875 90.96875 Z M 523.6875 90.96875 "/>
<path style=" stroke:none;fill-rule:nonzero;fill:rgb(62.7451%,38.039216%,41.568628%);fill-opacity:1;" d="M 557.429688 63.636719 C 557.429688 50.9375 542.492188 40.640625 524.0625 40.640625 C 505.628906 40.640625 490.691406 50.9375 490.691406 63.636719 C 490.691406 76.339844 505.628906 86.636719 524.0625 86.636719 C 542.492188 86.636719 557.429688 76.339844 557.429688 63.636719 Z M 557.429688 63.636719 "/>
<path style=" stroke:none;fill-rule:nonzero;fill:rgb(18.431373%,18.039216%,25.490198%);fill-opacity:1;" d="M 553.078125 53.914062 C 552.523438 54.113281 551.972656 54.300781 551.417969 54.488281 C 550.839844 54.679688 550.257812 54.871094 549.671875 55.050781 C 538.503906 58.542969 529.40625 58.929688 523.890625 53.914062 C 523.734375 51.285156 522.882812 48.675781 521.347656 46.253906 C 521.632812 48.9375 520.566406 51.675781 518.402344 53.914062 L 507.289062 53.914062 C 495.839844 59.148438 489.96875 63.957031 497.914062 81.144531 C 498.429688 82.277344 501.976562 122.394531 502.992188 125.476562 C 485.664062 120.898438 470.714844 72.261719 470.335938 59.445312 C 470.3125 59.238281 470.3125 59.019531 470.3125 58.808594 C 470.3125 57.773438 470.382812 56.746094 470.546875 55.734375 C 470.753906 54.328125 471.101562 52.949219 471.597656 51.601562 L 471.550781 51.59375 C 467.792969 49.160156 466.347656 45.828125 466.828125 42.476562 C 469.71875 39.867188 473.3125 37.640625 477.433594 35.925781 C 481.117188 34.691406 485.007812 33.6875 489.039062 32.921875 C 489.140625 32.90625 489.226562 32.890625 489.328125 32.875 C 490.546875 32.644531 491.800781 32.4375 493.050781 32.253906 C 495.609375 31.886719 498.207031 31.609375 500.867188 31.441406 C 501.058594 31.433594 501.242188 31.425781 501.414062 31.425781 C 502.503906 31.425781 503.515625 31.632812 504.398438 31.988281 C 504.40625 31.988281 504.40625 31.996094 504.421875 31.996094 C 505.0625 32.253906 505.632812 32.601562 506.082031 33.015625 C 506.847656 33.6875 507.289062 34.53125 507.289062 35.445312 L 519.667969 35.445312 C 520.125 35.445312 520.582031 35.457031 521.035156 35.472656 C 538.28125 35.945312 552.136719 41.027344 553.027344 52.707031 C 553.0625 53.113281 553.078125 53.507812 553.078125 53.914062 Z M 553.078125 53.914062 "/>
<path style=" stroke:none;fill-rule:nonzero;fill:rgb(18.431373%,18.039216%,25.490198%);fill-opacity:1;" d="M 501.863281 39.6875 C 501.863281 31.316406 492.023438 24.535156 479.878906 24.535156 C 467.738281 24.535156 457.894531 31.316406 457.894531 39.6875 C 457.894531 48.054688 467.738281 54.835938 479.878906 54.835938 C 492.023438 54.835938 501.863281 48.054688 501.863281 39.6875 Z M 501.863281 39.6875 "/>
<path style=" stroke:none;fill-rule:nonzero;fill:rgb(18.431373%,18.039216%,25.490198%);fill-opacity:1;" d="M 510.0625 32.679688 C 507.566406 40.867188 495.242188 45.765625 483.453125 43.761719 C 471.664062 41.757812 464.464844 33.546875 467.371094 25.421875 C 470.277344 17.296875 484.585938 19.640625 493.980469 14.339844 C 507.269531 6.839844 513.429688 21.632812 510.0625 32.679688 Z M 510.0625 32.679688 "/>
<path style=" stroke:none;fill-rule:nonzero;fill:rgb(62.7451%,38.039216%,41.568628%);fill-opacity:1;" d="M 550.515625 206.28125 C 548.785156 200.636719 540.746094 197.027344 532.558594 198.214844 C 528.804688 198.761719 525.683594 200.226562 523.558594 202.191406 L 523.535156 202.1875 L 495.773438 200.523438 L 484.957031 214.882812 L 527.679688 217.398438 L 527.679688 217.296875 C 530.882812 218.671875 534.828125 219.234375 538.8125 218.65625 C 547.003906 217.464844 552.242188 211.925781 550.515625 206.28125 Z M 550.515625 206.28125 "/>
<path style=" stroke:none;fill-rule:nonzero;fill:rgb(90.196079%,90.196079%,90.196079%);fill-opacity:1;" d="M 423.332031 218.644531 C 415.394531 218.644531 408.136719 215.890625 403.882812 211.269531 C 399.605469 206.617188 399.109375 200.878906 402.5625 195.910156 L 447.902344 130.683594 C 451.695312 125.226562 459.179688 121.664062 467.925781 121.148438 C 476.652344 120.628906 484.921875 123.265625 490.003906 128.199219 C 495.855469 133.878906 496.085938 141.324219 490.589844 147.171875 L 445.054688 195.609375 L 518.285156 200.28125 L 511.871094 218.277344 L 423.472656 218.644531 Z M 423.332031 218.644531 "/>
<path style=" stroke:none;fill-rule:nonzero;fill:rgb(0%,74.901962%,65.098041%);fill-opacity:1;" d="M 593.828125 72.117188 C 593.828125 72.097656 593.832031 72.082031 593.832031 72.066406 C 593.882812 71.820312 594.269531 71.773438 594.394531 71.757812 C 595.066406 71.675781 598.796875 71.738281 599.308594 72.402344 C 599.464844 72.605469 600.421875 72.550781 601.117188 72.507812 C 601.609375 72.480469 602.113281 72.453125 602.554688 72.476562 C 613.8125 73.121094 622.484375 73.007812 627.632812 72.148438 C 631.527344 71.496094 634.789062 69.828125 636.8125 67.449219 C 638.832031 65.078125 639.371094 62.316406 638.277344 59.664062 L 635.203125 52.070312 C 634.140625 49.445312 631.648438 47.277344 628.183594 45.96875 C 624.695312 44.648438 620.671875 44.363281 616.851562 45.160156 C 609.722656 46.652344 599.417969 51.109375 592.03125 54.582031 C 591.730469 54.726562 591.300781 54.878906 590.890625 55.027344 C 590.535156 55.152344 590.035156 55.332031 589.800781 55.449219 C 589.851562 55.53125 589.828125 55.601562 589.820312 55.628906 C 589.742188 55.851562 589.425781 55.890625 589.027344 55.9375 C 588.78125 55.96875 588.203125 56.035156 588.105469 56.148438 C 588.089844 56.164062 588.105469 56.203125 588.113281 56.222656 C 588.230469 56.457031 588.074219 56.578125 587.976562 56.632812 C 587.675781 56.785156 587.390625 56.652344 586.871094 56.410156 C 586.472656 56.222656 585.539062 55.789062 585.25 55.921875 C 585.171875 55.957031 584.820312 56.203125 585.253906 57.675781 C 585.378906 58.09375 585.257812 58.472656 584.910156 58.761719 C 584.0625 59.460938 582.125 59.449219 582.042969 59.445312 L 576.828125 59.113281 C 567.199219 58.496094 557.832031 60.894531 551.128906 65.695312 L 551.050781 65.75 L 546.027344 66.640625 L 549.863281 76.890625 L 555.019531 75.976562 L 555.152344 76.015625 C 562.988281 78.476562 572.21875 77.347656 583.375 72.566406 L 586.542969 71.207031 L 586.65625 71.207031 C 588.742188 71.207031 591.320312 71.289062 591.753906 71.695312 C 591.824219 71.757812 591.863281 71.832031 591.863281 71.910156 C 592.179688 72.027344 593.191406 72.117188 593.828125 72.117188 Z M 593.828125 72.117188 "/>
<path style=" stroke:none;fill-rule:nonzero;fill:rgb(24.705882%,23.921569%,33.725491%);fill-opacity:1;" d="M 542.160156 78.621094 C 542.3125 79.027344 542.921875 79.277344 543.511719 79.171875 L 550.753906 77.882812 C 551.347656 77.777344 551.707031 77.359375 551.554688 76.953125 L 547.265625 65.488281 C 547.113281 65.078125 546.507812 64.832031 545.914062 64.9375 L 538.671875 66.222656 C 538.078125 66.328125 537.71875 66.746094 537.875 67.15625 Z M 542.160156 78.621094 "/>
<path style=" stroke:none;fill-rule:nonzero;fill:rgb(24.705882%,23.921569%,33.725491%);fill-opacity:1;" d="M 545.886719 73.167969 C 545.886719 71.59375 544.035156 70.320312 541.753906 70.320312 C 539.46875 70.320312 537.621094 71.59375 537.621094 73.167969 C 537.621094 74.742188 539.46875 76.015625 541.753906 76.015625 C 544.035156 76.015625 545.886719 74.742188 545.886719 73.167969 Z M 545.886719 73.167969 "/>
<path style=" stroke:none;fill-rule:nonzero;fill:rgb(100%,71.372551%,71.372551%);fill-opacity:1;" d="M 306.816406 586.039062 L 287.886719 586.039062 L 278.878906 535.714844 L 306.820312 535.714844 Z M 306.816406 586.039062 "/>
<path style=" stroke:none;fill-rule:nonzero;fill:rgb(18.431373%,18.039216%,25.490198%);fill-opacity:1;" d="M 307.484375 599.652344 L 249.265625 599.648438 L 249.265625 599.144531 C 249.265625 590.519531 259.410156 583.527344 271.925781 583.527344 L 271.929688 583.527344 L 282.5625 577.964844 L 302.402344 583.527344 L 307.484375 583.527344 Z M 307.484375 599.652344 "/>
<path style=" stroke:none;fill-rule:nonzero;fill:rgb(100%,71.372551%,71.372551%);fill-opacity:1;" d="M 231.039062 586.039062 L 212.109375 586.039062 L 203.101562 535.714844 L 231.042969 535.714844 Z M 231.039062 586.039062 "/>
<path style=" stroke:none;fill-rule:nonzero;fill:rgb(18.431373%,18.039216%,25.490198%);fill-opacity:1;" d="M 231.707031 599.652344 L 173.488281 599.648438 L 173.488281 599.144531 C 173.488281 590.519531 183.632812 583.527344 196.148438 583.527344 L 206.785156 577.964844 L 226.625 583.527344 L 231.707031 583.527344 Z M 231.707031 599.652344 "/>
<path style=" stroke:none;fill-rule:nonzero;fill:rgb(100%,71.372551%,71.372551%);fill-opacity:1;" d="M 229.191406 39.53125 C 235.003906 43.925781 234.546875 50.738281 228.167969 54.746094 C 225.242188 56.578125 221.585938 57.496094 217.917969 57.542969 L 217.910156 57.554688 L 184.613281 96.855469 L 161.046875 88.945312 L 201.9375 46.003906 L 202.0625 46.0625 C 202.320312 43.386719 204.011719 40.773438 207.113281 38.824219 C 213.492188 34.820312 223.375 35.136719 229.191406 39.53125 Z M 229.191406 39.53125 "/>
<path style=" stroke:none;fill-rule:nonzero;fill:rgb(18.431373%,18.039216%,25.490198%);fill-opacity:1;" d="M 210.789062 253.527344 C 210.789062 253.527344 181.429688 399.230469 198.476562 427.621094 L 200.835938 553.914062 L 232.972656 553.914062 L 260.894531 434.476562 C 260.894531 434.476562 258.054688 431.539062 263.734375 427.621094 C 269.417969 423.707031 269.417969 427.621094 269.417969 423.707031 C 269.417969 419.789062 253.792969 406.085938 253.792969 406.085938 L 267.605469 350.28125 L 278.96875 553.914062 L 308.800781 552.9375 C 308.800781 552.9375 337.210938 487.34375 332.949219 456.992188 C 332.949219 456.992188 330.109375 436.433594 330.109375 433.496094 C 330.109375 430.558594 325.847656 425.664062 330.109375 422.726562 C 334.371094 419.789062 335.574219 412.40625 333.550781 411.203125 C 331.53125 410 331.53125 404.542969 331.53125 404.542969 L 362.78125 325.804688 L 362.78125 265.507812 Z M 210.789062 253.527344 "/>
<path style=" stroke:none;fill-rule:nonzero;fill:rgb(90.196079%,90.196079%,90.196079%);fill-opacity:1;" d="M 311.640625 72.242188 L 269.023438 75.179688 L 248.398438 94.011719 L 223.566406 106.5625 L 223.566406 210.46875 L 228.699219 234.535156 C 217.539062 240.066406 201.65625 249.242188 208.035156 259.222656 C 208.035156 259.222656 329.371094 286.3125 363.464844 262.816406 L 360.621094 203.429688 L 369.230469 121.773438 C 370.933594 105.589844 355.976562 90.789062 333.355469 86.28125 L 315.378906 82.699219 Z M 311.640625 72.242188 "/>
<path style=" stroke:none;fill-rule:nonzero;fill:rgb(100%,71.372551%,71.372551%);fill-opacity:1;" d="M 355.175781 317.546875 C 363.671875 316.503906 369.332031 310.910156 367.816406 305.054688 C 367.125 302.371094 365.035156 300.109375 362.167969 298.535156 L 362.167969 298.519531 L 367.855469 244.03125 L 343.058594 235.574219 L 339.292969 300.96875 L 339.445312 300.972656 C 337.285156 303.203125 336.3125 305.984375 337.050781 308.835938 C 338.566406 314.691406 346.679688 318.589844 355.175781 317.546875 Z M 355.175781 317.546875 "/>
<path style=" stroke:none;fill-rule:nonzero;fill:rgb(90.196079%,90.196079%,90.196079%);fill-opacity:1;" d="M 369.234375 263.96875 L 341.679688 264.917969 L 331.242188 226.402344 L 307.796875 119.878906 C 306.441406 113.730469 308.953125 107.453125 314.683594 102.648438 C 320.414062 97.847656 328.871094 94.9375 337.886719 94.667969 C 354.914062 94.144531 369.453125 102.921875 370.980469 114.625 L 382.371094 201.90625 Z M 369.234375 263.96875 "/>
<path style=" stroke:none;fill-rule:nonzero;fill:rgb(90.196079%,90.196079%,90.196079%);fill-opacity:1;" d="M 224.988281 105.527344 L 227.828125 146.644531 L 162.660156 147.714844 C 138.890625 148.105469 123.976562 130.160156 136.492188 116.230469 L 171.082031 74.21875 L 193.5625 87.945312 L 176.6875 116.296875 Z M 224.988281 105.527344 "/>
<path style=" stroke:none;fill-rule:nonzero;fill:rgb(100%,71.372551%,71.372551%);fill-opacity:1;" d="M 321.671875 37.59375 C 321.671875 22.445312 303.855469 10.167969 281.878906 10.167969 C 259.902344 10.167969 242.085938 22.445312 242.085938 37.59375 C 242.085938 52.738281 259.902344 65.015625 281.878906 65.015625 C 303.855469 65.015625 321.671875 52.738281 321.671875 37.59375 Z M 321.671875 37.59375 "/>
<path style=" stroke:none;fill-rule:nonzero;fill:rgb(18.431373%,18.039216%,25.490198%);fill-opacity:1;" d="M 321.492188 56.328125 C 317.152344 60.070312 313.449219 62.261719 307.46875 63.828125 C 307.371094 63.257812 307.316406 62.679688 307.332031 62.101562 C 306.503906 62.878906 305.691406 63.65625 304.851562 64.4375 C 301.128906 65.226562 296.582031 65.84375 290.699219 66.46875 L 287.808594 60.382812 C 287.351562 57.628906 290 55.09375 292.945312 53.203125 C 295.894531 51.324219 299.339844 49.710938 301.363281 47.316406 C 303.390625 44.925781 303.363281 41.355469 299.988281 39.851562 C 296.667969 38.363281 292.105469 39.585938 288.359375 38.703125 C 284.03125 37.6875 282.007812 34.042969 282.722656 30.929688 C 283.441406 27.8125 286.179688 25.125 288.839844 22.570312 C 282.640625 24.433594 273.257812 24.671875 264.125 23.558594 C 264.453125 21.59375 263.765625 19.535156 262.042969 17.949219 C 261.878906 19.761719 260.652344 21.507812 258.722656 22.734375 C 249.945312 21.109375 242.09375 18.222656 238.511719 14.332031 C 240.09375 14.046875 241.679688 13.75 243.265625 13.464844 C 242.808594 11.226562 242.355469 8.992188 241.898438 6.761719 C 243.828125 7.417969 245.769531 8.082031 247.714844 8.738281 C 248.085938 7.976562 248.652344 7.3125 249.367188 6.722656 C 251.007812 6.363281 252.703125 6.144531 254.425781 6.058594 C 254.976562 6.039062 255.539062 6.023438 256.105469 6.023438 C 256.929688 6.023438 257.785156 6.039062 258.613281 6.105469 C 257.578125 5.460938 256.53125 4.824219 255.5 4.171875 C 255.375 4.09375 255.265625 4.019531 255.140625 3.941406 C 257.027344 3.382812 259.066406 2.953125 260.996094 2.585938 C 269.429688 0.96875 278.164062 -0.652344 286.816406 0.269531 C 292.34375 0.855469 297.839844 2.785156 301.429688 5.65625 C 304.628906 8.222656 309.152344 9.742188 313.964844 10.414062 C 316.277344 10.734375 318.515625 11.449219 320.378906 12.441406 C 319.207031 12.960938 317.96875 13.417969 316.671875 13.78125 C 319.125 14.1875 321.5625 14.597656 324.015625 15.015625 C 326.300781 17.09375 327.859375 19.570312 329.042969 22.058594 C 334.527344 33.519531 332.433594 46.910156 321.492188 56.328125 Z M 321.492188 56.328125 "/>
<path style=" stroke:none;fill-rule:nonzero;fill:rgb(0%,74.901962%,65.098041%);fill-opacity:1;" d="M 183.15625 49.660156 C 183.160156 49.679688 183.160156 49.699219 183.15625 49.714844 C 183.132812 49.96875 182.742188 50.039062 182.613281 50.058594 C 181.933594 50.179688 178.089844 50.308594 177.488281 49.65625 C 177.304688 49.453125 176.332031 49.5625 175.617188 49.636719 C 175.117188 49.691406 174.601562 49.75 174.144531 49.746094 C 162.496094 49.671875 153.59375 50.246094 148.394531 51.398438 C 144.460938 52.269531 141.292969 54.15625 139.472656 56.707031 C 137.660156 59.253906 137.410156 62.121094 138.824219 64.789062 L 142.820312 72.4375 C 144.203125 75.082031 147.003906 77.179688 150.710938 78.34375 C 154.445312 79.519531 158.613281 79.601562 162.453125 78.582031 C 169.617188 76.675781 179.722656 71.554688 186.933594 67.597656 C 187.230469 67.433594 187.652344 67.253906 188.0625 67.082031 C 188.410156 66.933594 188.90625 66.722656 189.132812 66.589844 C 189.070312 66.507812 189.089844 66.433594 189.09375 66.402344 C 189.152344 66.171875 189.472656 66.117188 189.875 66.046875 C 190.125 66.003906 190.710938 65.902344 190.800781 65.78125 C 190.8125 65.765625 190.796875 65.726562 190.78125 65.707031 C 190.640625 65.472656 190.785156 65.335938 190.882812 65.277344 C 191.171875 65.101562 191.480469 65.226562 192.042969 65.449219 C 192.472656 65.617188 193.476562 66.015625 193.761719 65.863281 C 193.835938 65.824219 194.171875 65.550781 193.5625 64.0625 C 193.390625 63.636719 193.472656 63.246094 193.800781 62.929688 C 194.59375 62.164062 196.585938 62.074219 196.671875 62.074219 L 202.070312 62.144531 C 212.039062 62.277344 221.40625 59.320312 227.769531 54.03125 L 227.847656 53.96875 L 232.910156 52.789062 L 227.839844 42.453125 L 222.636719 43.664062 L 222.5 43.628906 C 214.167969 41.507812 204.800781 43.152344 193.859375 48.652344 L 190.75 50.214844 L 190.632812 50.21875 C 188.488281 50.332031 185.828125 50.382812 185.335938 49.988281 C 185.257812 49.921875 185.210938 49.847656 185.199219 49.769531 C 184.863281 49.667969 183.8125 49.628906 183.15625 49.660156 Z M 183.15625 49.660156 "/>
<path style=" stroke:none;fill-rule:nonzero;fill:rgb(24.705882%,23.921569%,33.725491%);fill-opacity:1;" d="M 235.570312 40.273438 C 235.367188 39.859375 234.714844 39.636719 234.117188 39.777344 L 226.8125 41.476562 C 226.214844 41.617188 225.890625 42.066406 226.09375 42.480469 L 231.765625 54.042969 C 231.96875 54.457031 232.617188 54.675781 233.21875 54.539062 L 240.523438 52.835938 C 241.121094 52.695312 241.441406 52.25 241.242188 51.835938 Z M 235.570312 40.273438 "/>
<path style=" stroke:none;fill-rule:nonzero;fill:rgb(24.705882%,23.921569%,33.725491%);fill-opacity:1;" d="M 240.851562 45.855469 C 240.851562 44.234375 238.941406 42.917969 236.589844 42.917969 C 234.234375 42.917969 232.328125 44.234375 232.328125 45.855469 C 232.328125 47.476562 234.234375 48.792969 236.589844 48.792969 C 238.941406 48.792969 240.851562 47.476562 240.851562 45.855469 Z M 240.851562 45.855469 "/>
</g>
</svg>
