<?xml version="1.0" encoding="UTF-8"?>
<svg xmlns="http://www.w3.org/2000/svg" xmlns:xlink="http://www.w3.org/1999/xlink" width="744px" height="602px" viewBox="0 0 744 602" version="1.1">
<g id="surface1">
<path style=" stroke:none;fill-rule:nonzero;fill:rgb(18.431373%,18.039216%,25.490198%);fill-opacity:1;" d="M 634.1875 206.4375 C 642.152344 221.359375 648.425781 236.753906 665.992188 236.753906 C 683.558594 236.753906 697.796875 223.179688 697.796875 206.4375 C 697.796875 189.691406 683.558594 176.117188 665.992188 176.117188 C 648.140625 175.90625 619.367188 178.65625 634.1875 206.4375 Z M 634.1875 206.4375 "/>
<path style=" stroke:none;fill-rule:nonzero;fill:rgb(62.7451%,38.039216%,41.568628%);fill-opacity:1;" d="M 659.1875 571.03125 L 645.59375 573.917969 L 627.441406 525.320312 L 647.503906 521.058594 Z M 659.1875 571.03125 "/>
<path style=" stroke:none;fill-rule:nonzero;fill:rgb(18.431373%,18.039216%,25.490198%);fill-opacity:1;" d="M 665.589844 582.855469 L 621.761719 592.164062 L 621.640625 591.636719 C 619.539062 582.65625 625.472656 573.753906 634.894531 571.753906 L 634.898438 571.753906 L 661.664062 566.066406 Z M 665.589844 582.855469 "/>
<path style=" stroke:none;fill-rule:nonzero;fill:rgb(62.7451%,38.039216%,41.568628%);fill-opacity:1;" d="M 699.566406 588.402344 L 685.636719 588.402344 L 679.011719 537.203125 L 699.566406 537.203125 Z M 699.566406 588.402344 "/>
<path style=" stroke:none;fill-rule:nonzero;fill:rgb(18.431373%,18.039216%,25.490198%);fill-opacity:1;" d="M 703.117188 601.269531 L 658.214844 601.269531 L 658.214844 600.726562 C 658.214844 591.527344 666.039062 584.070312 675.691406 584.070312 L 703.117188 584.070312 Z M 703.117188 601.269531 "/>
<path style=" stroke:none;fill-rule:nonzero;fill:rgb(18.431373%,18.039216%,25.490198%);fill-opacity:1;" d="M 699.65625 561.574219 L 681.882812 561.574219 C 679.332031 561.5625 677.171875 559.769531 676.820312 557.359375 L 660.707031 438.566406 C 660.597656 437.800781 659.9375 437.214844 659.128906 437.164062 C 658.316406 437.117188 657.585938 437.621094 657.375 438.367188 L 647.828125 472.285156 L 656.433594 549.542969 C 656.734375 552.007812 655.042969 554.292969 652.503906 554.851562 L 638.40625 557.953125 C 635.808594 558.511719 633.195312 557.085938 632.382812 554.671875 L 609.679688 479.566406 C 607.851562 474.0625 607.222656 468.257812 607.832031 462.515625 L 614.933594 394.808594 L 615.472656 394.832031 L 710.3125 399.1875 L 704.765625 556.871094 C 704.679688 559.496094 702.414062 561.582031 699.65625 561.574219 Z M 699.65625 561.574219 "/>
<path style=" stroke:none;fill-rule:nonzero;fill:rgb(62.7451%,38.039216%,41.568628%);fill-opacity:1;" d="M 692.324219 210.75 C 692.324219 196.0625 679.835938 184.15625 664.425781 184.15625 C 649.019531 184.15625 636.527344 196.0625 636.527344 210.75 C 636.527344 225.4375 649.019531 237.34375 664.425781 237.34375 C 679.835938 237.34375 692.324219 225.4375 692.324219 210.75 Z M 692.324219 210.75 "/>
<path style=" stroke:none;fill-rule:nonzero;fill:rgb(80.000001%,80.000001%,80.000001%);fill-opacity:1;" d="M 708.1875 406.480469 C 708.09375 406.480469 708.003906 406.480469 707.910156 406.472656 L 613.351562 401.628906 C 611.769531 401.546875 610.316406 400.769531 609.414062 399.527344 C 608.515625 398.28125 608.273438 396.707031 608.761719 395.269531 L 616.246094 373.117188 C 624.257812 349.367188 625.625 324.035156 620.21875 299.625 C 617.347656 286.707031 620.464844 273.234375 628.765625 262.65625 C 636.929688 252.226562 649.414062 245.660156 663.023438 244.632812 C 663.484375 244.597656 663.949219 244.566406 664.417969 244.539062 C 678.832031 243.730469 692.859375 249.15625 702.601562 259.316406 C 712.34375 269.476562 716.757812 283.28125 714.617188 296.890625 L 708.023438 339.089844 L 713.28125 401.21875 C 713.394531 402.574219 712.910156 403.914062 711.941406 404.914062 C 710.976562 405.910156 709.613281 406.480469 708.1875 406.480469 Z M 708.1875 406.480469 "/>
<path style=" stroke:none;fill-rule:nonzero;fill:rgb(62.7451%,38.039216%,41.568628%);fill-opacity:1;" d="M 591.832031 412.089844 C 594.628906 410.28125 596.445312 407.386719 596.789062 404.183594 C 597.136719 400.976562 595.972656 397.789062 593.613281 395.480469 L 611.820312 360.898438 L 590.875 363.265625 L 576.796875 395.742188 C 572.902344 399.863281 572.859375 406.109375 576.695312 410.28125 C 580.53125 414.453125 587.035156 415.230469 591.832031 412.089844 Z M 591.832031 412.089844 "/>
<path style=" stroke:none;fill-rule:nonzero;fill:rgb(62.7451%,38.039216%,41.568628%);fill-opacity:1;" d="M 716.816406 417.726562 C 714.375 415.496094 713.09375 412.355469 713.316406 409.140625 C 713.539062 405.921875 715.242188 402.96875 717.972656 401.066406 L 706.082031 364.070312 L 726.320312 369.738281 L 734.507812 404 C 737.625 408.683594 736.570312 414.851562 732.058594 418.351562 C 727.542969 421.855469 720.996094 421.585938 716.816406 417.726562 Z M 716.816406 417.726562 "/>
<path style=" stroke:none;fill-rule:nonzero;fill:rgb(80.000001%,80.000001%,80.000001%);fill-opacity:1;" d="M 714.851562 398.34375 C 712.285156 398.351562 710.113281 396.539062 709.789062 394.113281 L 700.332031 326.089844 L 685.238281 272.9375 C 683.945312 268.382812 684.921875 263.519531 687.878906 259.738281 C 690.835938 255.960938 695.453125 253.683594 700.398438 253.570312 C 708.390625 253.40625 715.308594 258.832031 716.679688 266.339844 L 739.164062 391.878906 C 739.410156 393.257812 739.023438 394.671875 738.101562 395.757812 C 737.179688 396.847656 735.808594 397.503906 734.34375 397.566406 L 715.074219 398.339844 C 715 398.34375 714.925781 398.34375 714.851562 398.34375 Z M 714.851562 398.34375 "/>
<path style=" stroke:none;fill-rule:nonzero;fill:rgb(80.000001%,80.000001%,80.000001%);fill-opacity:1;" d="M 601.96875 390.707031 C 601.601562 390.707031 601.238281 390.667969 600.878906 390.59375 L 582.015625 386.761719 C 580.582031 386.46875 579.347656 385.601562 578.628906 384.382812 C 577.90625 383.164062 577.773438 381.707031 578.257812 380.386719 L 622.4375 260.195312 C 625.113281 253.019531 632.878906 248.773438 640.726562 250.195312 C 645.582031 251.097656 649.734375 254.078125 651.988281 258.277344 C 654.246094 262.472656 654.351562 267.425781 652.277344 271.707031 L 628.054688 321.777344 L 606.828125 387.269531 C 606.179688 389.308594 604.207031 390.707031 601.96875 390.707031 Z M 601.96875 390.707031 "/>
<path style=" stroke:none;fill-rule:nonzero;fill:rgb(18.431373%,18.039216%,25.490198%);fill-opacity:1;" d="M 634.824219 195.71875 C 641.199219 199.910156 648.765625 202.136719 656.507812 202.109375 C 653.746094 203.933594 650.601562 205.167969 647.292969 205.722656 C 657.585938 207.828125 668.226562 207.882812 678.542969 205.890625 C 680.835938 205.539062 683.050781 204.816406 685.085938 203.75 C 687.136719 202.65625 688.605469 200.785156 689.125 198.601562 C 689.808594 194.867188 686.757812 191.472656 683.585938 189.1875 C 673.75 182.207031 661.148438 179.808594 649.253906 182.648438 C 645.417969 183.59375 641.578125 185.191406 639.085938 188.125 C 636.597656 191.0625 635.859375 195.585938 638.230469 198.609375 Z M 634.824219 195.71875 "/>
<path style=" stroke:none;fill-rule:nonzero;fill:rgb(24.705882%,23.921569%,33.725491%);fill-opacity:1;" d="M 489.246094 0 L 9.90625 0 C 4.4375 0.00390625 0.00390625 4.230469 0 9.441406 L 0 454.792969 C 0.00390625 460.003906 4.4375 464.226562 9.90625 464.234375 L 51.933594 464.234375 L 51.933594 461.535156 L 9.90625 461.535156 C 6 461.53125 2.832031 458.515625 2.828125 454.792969 L 2.828125 9.441406 C 2.832031 5.71875 6 2.699219 9.90625 2.695312 L 489.246094 2.695312 C 493.15625 2.695312 496.328125 5.714844 496.332031 9.441406 L 496.332031 454.792969 C 496.335938 456.109375 495.925781 457.398438 495.164062 458.496094 C 494.484375 459.460938 493.5625 460.25 492.484375 460.789062 C 491.480469 461.28125 490.371094 461.539062 489.246094 461.535156 L 447.21875 461.535156 L 447.21875 464.234375 L 489.246094 464.234375 C 492.144531 464.234375 494.894531 463.023438 496.777344 460.917969 C 496.855469 460.839844 496.925781 460.75 496.992188 460.660156 C 497.582031 459.972656 498.0625 459.199219 498.410156 458.375 C 498.910156 457.242188 499.164062 456.023438 499.160156 454.792969 L 499.160156 9.441406 C 499.15625 4.226562 494.71875 0 489.246094 0 Z M 489.246094 0 "/>
<path style=" stroke:none;fill-rule:nonzero;fill:rgb(24.705882%,23.921569%,33.725491%);fill-opacity:1;" d="M 1.410156 37.84375 L 497.742188 37.84375 L 497.742188 40.542969 L 1.410156 40.542969 Z M 1.410156 37.84375 "/>
<path style=" stroke:none;fill-rule:nonzero;fill:rgb(24.705882%,23.921569%,33.725491%);fill-opacity:1;" d="M 33.972656 20.246094 C 33.972656 15.773438 30.171875 12.148438 25.480469 12.148438 C 20.789062 12.148438 16.984375 15.773438 16.984375 20.246094 C 16.984375 24.71875 20.789062 28.34375 25.480469 28.34375 C 30.171875 28.34375 33.972656 24.71875 33.972656 20.246094 Z M 33.972656 20.246094 "/>
<path style=" stroke:none;fill-rule:nonzero;fill:rgb(24.705882%,23.921569%,33.725491%);fill-opacity:1;" d="M 58.394531 20.246094 C 58.394531 15.773438 54.59375 12.148438 49.902344 12.148438 C 45.210938 12.148438 41.40625 15.773438 41.40625 20.246094 C 41.40625 24.71875 45.210938 28.34375 49.902344 28.34375 C 54.59375 28.34375 58.394531 24.71875 58.394531 20.246094 Z M 58.394531 20.246094 "/>
<path style=" stroke:none;fill-rule:nonzero;fill:rgb(24.705882%,23.921569%,33.725491%);fill-opacity:1;" d="M 82.816406 20.246094 C 82.816406 15.773438 79.015625 12.148438 74.324219 12.148438 C 69.632812 12.148438 65.828125 15.773438 65.828125 20.246094 C 65.828125 24.71875 69.632812 28.34375 74.324219 28.34375 C 79.015625 28.34375 82.816406 24.71875 82.816406 20.246094 Z M 82.816406 20.246094 "/>
<path style=" stroke:none;fill-rule:nonzero;fill:rgb(24.705882%,23.921569%,33.725491%);fill-opacity:1;" d="M 369.414062 100.320312 L 129.746094 100.320312 C 121.589844 100.320312 114.980469 94.019531 114.980469 86.246094 C 114.980469 78.472656 121.589844 72.171875 129.746094 72.171875 L 369.414062 72.171875 C 377.570312 72.171875 384.183594 78.472656 384.183594 86.246094 C 384.183594 94.019531 377.570312 100.320312 369.414062 100.320312 Z M 129.746094 74.335938 C 122.84375 74.335938 117.25 79.667969 117.25 86.246094 C 117.25 92.824219 122.84375 98.15625 129.746094 98.15625 L 369.414062 98.15625 C 376.316406 98.15625 381.910156 92.824219 381.910156 86.246094 C 381.910156 79.667969 376.316406 74.335938 369.414062 74.335938 Z M 129.746094 74.335938 "/>
<path style=" stroke:none;fill-rule:nonzero;fill:rgb(24.705882%,23.921569%,33.725491%);fill-opacity:1;" d="M 430.183594 296.941406 L 68.976562 296.941406 C 58.316406 296.929688 49.675781 288.695312 49.664062 278.535156 L 49.664062 168.09375 C 49.675781 157.933594 58.316406 149.699219 68.976562 149.6875 L 430.183594 149.6875 C 440.84375 149.699219 449.484375 157.933594 449.496094 168.09375 L 449.496094 278.535156 C 449.484375 288.695312 440.84375 296.929688 430.183594 296.941406 Z M 68.976562 151.851562 C 59.570312 151.863281 51.949219 159.128906 51.9375 168.09375 L 51.9375 278.535156 C 51.949219 287.5 59.570312 294.765625 68.976562 294.773438 L 430.183594 294.773438 C 439.589844 294.765625 447.210938 287.5 447.222656 278.535156 L 447.222656 168.09375 C 447.210938 159.128906 439.589844 151.863281 430.183594 151.851562 Z M 68.976562 151.851562 "/>
<path style=" stroke:none;fill-rule:nonzero;fill:rgb(32.549021%,42.745098%,99.607843%);fill-opacity:1;" d="M 296.945312 217.359375 L 170.863281 217.359375 C 165.847656 217.359375 161.777344 213.480469 161.777344 208.695312 C 161.777344 203.914062 165.847656 200.035156 170.863281 200.035156 L 296.945312 200.035156 C 301.964844 200.035156 306.035156 203.914062 306.035156 208.695312 C 306.035156 213.480469 301.964844 217.359375 296.945312 217.359375 Z M 296.945312 217.359375 "/>
<path style=" stroke:none;fill-rule:nonzero;fill:rgb(32.549021%,42.745098%,99.607843%);fill-opacity:1;" d="M 413.941406 246.59375 L 170.863281 246.59375 C 165.847656 246.59375 161.777344 242.714844 161.777344 237.929688 C 161.777344 233.148438 165.847656 229.269531 170.863281 229.269531 L 413.941406 229.269531 C 418.960938 229.269531 423.03125 233.148438 423.03125 237.929688 C 423.03125 242.714844 418.960938 246.59375 413.941406 246.59375 Z M 413.941406 246.59375 "/>
<path style=" stroke:none;fill-rule:nonzero;fill:rgb(32.549021%,42.745098%,99.607843%);fill-opacity:1;" d="M 144.285156 223.3125 C 144.285156 205.375 129.027344 190.832031 110.207031 190.832031 C 91.386719 190.832031 76.128906 205.375 76.128906 223.3125 C 76.128906 241.253906 91.386719 255.796875 110.207031 255.796875 C 129.027344 255.796875 144.285156 241.253906 144.285156 223.3125 Z M 144.285156 223.3125 "/>
<path style=" stroke:none;fill-rule:nonzero;fill:rgb(100%,100%,100%);fill-opacity:1;" d="M 413.929688 281.78125 L 382.125 281.78125 C 377.105469 281.78125 373.039062 277.902344 373.039062 273.121094 C 373.039062 268.335938 377.105469 264.457031 382.125 264.457031 L 413.929688 264.457031 C 418.949219 264.457031 423.015625 268.335938 423.015625 273.121094 C 423.015625 277.902344 418.949219 281.78125 413.929688 281.78125 Z M 413.929688 281.78125 "/>
<path style=" stroke:none;fill-rule:nonzero;fill:rgb(80.000001%,80.000001%,80.000001%);fill-opacity:1;" d="M 413.929688 281.78125 L 382.125 281.78125 C 377.105469 281.78125 373.039062 277.902344 373.039062 273.121094 C 373.039062 268.335938 377.105469 264.457031 382.125 264.457031 L 413.929688 264.457031 C 418.949219 264.457031 423.015625 268.335938 423.015625 273.121094 C 423.015625 277.902344 418.949219 281.78125 413.929688 281.78125 Z M 413.929688 281.78125 "/>
<path style=" stroke:none;fill-rule:nonzero;fill:rgb(24.705882%,23.921569%,33.725491%);fill-opacity:1;" d="M 430.179688 348.910156 L 68.972656 348.910156 C 58.3125 348.925781 49.675781 357.15625 49.660156 367.316406 L 49.660156 477.757812 C 49.675781 487.914062 58.3125 496.148438 68.972656 496.164062 L 430.179688 496.164062 C 440.839844 496.152344 449.480469 487.917969 449.488281 477.757812 L 449.488281 367.316406 C 449.480469 357.15625 440.839844 348.921875 430.179688 348.910156 Z M 447.21875 477.757812 C 447.210938 486.722656 439.585938 493.988281 430.179688 493.996094 L 68.972656 493.996094 C 59.566406 493.988281 51.945312 486.722656 51.933594 477.757812 L 51.933594 367.316406 C 51.945312 358.351562 59.566406 351.085938 68.972656 351.078125 L 430.179688 351.078125 C 439.585938 351.082031 447.210938 358.351562 447.21875 367.316406 Z M 447.21875 477.757812 "/>
<path style=" stroke:none;fill-rule:nonzero;fill:rgb(32.549021%,42.745098%,99.607843%);fill-opacity:1;" d="M 296.945312 416.582031 L 170.863281 416.582031 C 165.847656 416.582031 161.777344 412.703125 161.777344 407.921875 C 161.777344 403.136719 165.847656 399.257812 170.863281 399.257812 L 296.945312 399.257812 C 301.964844 399.257812 306.035156 403.136719 306.035156 407.921875 C 306.035156 412.703125 301.964844 416.582031 296.945312 416.582031 Z M 296.945312 416.582031 "/>
<path style=" stroke:none;fill-rule:nonzero;fill:rgb(32.549021%,42.745098%,99.607843%);fill-opacity:1;" d="M 413.941406 445.816406 L 170.863281 445.816406 C 165.847656 445.816406 161.777344 441.9375 161.777344 437.152344 C 161.777344 432.371094 165.847656 428.492188 170.863281 428.492188 L 413.941406 428.492188 C 418.960938 428.492188 423.03125 432.371094 423.03125 437.152344 C 423.03125 441.9375 418.960938 445.816406 413.941406 445.816406 Z M 413.941406 445.816406 "/>
<path style=" stroke:none;fill-rule:nonzero;fill:rgb(32.549021%,42.745098%,99.607843%);fill-opacity:1;" d="M 144.285156 422.535156 C 144.285156 404.597656 129.027344 390.054688 110.207031 390.054688 C 91.386719 390.054688 76.128906 404.597656 76.128906 422.535156 C 76.128906 440.476562 91.386719 455.019531 110.207031 455.019531 C 129.027344 455.019531 144.285156 440.476562 144.285156 422.535156 Z M 144.285156 422.535156 "/>
<path style=" stroke:none;fill-rule:nonzero;fill:rgb(80.000001%,80.000001%,80.000001%);fill-opacity:1;" d="M 413.929688 481.003906 L 382.125 481.003906 C 377.105469 481.003906 373.039062 477.125 373.039062 472.34375 C 373.039062 467.558594 377.105469 463.679688 382.125 463.679688 L 413.929688 463.679688 C 418.949219 463.679688 423.015625 467.558594 423.015625 472.34375 C 423.015625 477.125 418.949219 481.003906 413.929688 481.003906 Z M 413.929688 481.003906 "/>
<path style=" stroke:none;fill-rule:nonzero;fill:rgb(24.705882%,23.921569%,33.725491%);fill-opacity:1;" d="M 743.171875 602.269531 L 584.148438 602.269531 C 583.523438 602.269531 583.015625 601.785156 583.015625 601.1875 C 583.015625 600.589844 583.523438 600.105469 584.148438 600.105469 L 743.171875 600.105469 C 743.800781 600.105469 744.308594 600.589844 744.308594 601.1875 C 744.308594 601.785156 743.800781 602.269531 743.171875 602.269531 Z M 743.171875 602.269531 "/>
</g>
</svg>
