<?xml version="1.0" encoding="UTF-8"?>
<svg xmlns="http://www.w3.org/2000/svg" xmlns:xlink="http://www.w3.org/1999/xlink" width="744px" height="602px" viewBox="0 0 744 602" version="1.1">
<g id="surface1">
<path style=" stroke:none;fill-rule:nonzero;fill:rgb(80.000001%,80.000001%,80.000001%);fill-opacity:1;" d="M 350.539062 94.683594 L 280.589844 94.683594 C 278.394531 94.683594 276.617188 92.453125 276.617188 89.703125 C 276.617188 86.949219 278.394531 84.71875 280.589844 84.71875 L 350.539062 84.71875 C 352.734375 84.71875 354.511719 86.949219 354.511719 89.703125 C 354.511719 92.453125 352.734375 94.683594 350.539062 94.683594 Z M 350.539062 94.683594 "/>
<path style=" stroke:none;fill-rule:nonzero;fill:rgb(80.000001%,80.000001%,80.000001%);fill-opacity:1;" d="M 404.589844 129.570312 L 280.589844 129.570312 C 278.394531 129.570312 276.617188 127.339844 276.617188 124.585938 C 276.617188 121.832031 278.394531 119.601562 280.589844 119.601562 L 404.589844 119.601562 C 406.785156 119.601562 408.5625 121.832031 408.5625 124.585938 C 408.5625 127.339844 406.785156 129.570312 404.589844 129.570312 Z M 404.589844 129.570312 "/>
<path style=" stroke:none;fill-rule:nonzero;fill:rgb(80.000001%,80.000001%,80.000001%);fill-opacity:1;" d="M 373.589844 164.453125 L 280.589844 164.453125 C 278.394531 164.453125 276.617188 162.222656 276.617188 159.46875 C 276.617188 156.71875 278.394531 154.488281 280.589844 154.488281 L 373.589844 154.488281 C 375.785156 154.488281 377.5625 156.71875 377.5625 159.46875 C 377.5625 162.222656 375.785156 164.453125 373.589844 164.453125 Z M 373.589844 164.453125 "/>
<path style=" stroke:none;fill-rule:nonzero;fill:rgb(80.000001%,80.000001%,80.000001%);fill-opacity:1;" d="M 404.589844 199.335938 L 280.589844 199.335938 C 278.394531 199.335938 276.617188 197.105469 276.617188 194.355469 C 276.617188 191.601562 278.394531 189.371094 280.589844 189.371094 L 404.589844 189.371094 C 406.785156 189.371094 408.5625 191.601562 408.5625 194.355469 C 408.5625 197.105469 406.785156 199.335938 404.589844 199.335938 Z M 404.589844 199.335938 "/>
<path style=" stroke:none;fill-rule:nonzero;fill:rgb(74.901962%,0%,14.117648%);fill-opacity:1;" d="M 189.792969 140.082031 C 189.792969 90.832031 157.953125 50.90625 118.675781 50.90625 C 79.398438 50.90625 47.558594 90.832031 47.558594 140.082031 C 47.558594 189.328125 79.398438 229.253906 118.675781 229.253906 C 157.953125 229.253906 189.792969 189.328125 189.792969 140.082031 Z M 189.792969 140.082031 "/>
<path style=" stroke:none;fill-rule:nonzero;fill:rgb(24.705882%,23.921569%,33.725491%);fill-opacity:1;" d="M 122.652344 55.9375 L 114.703125 55.9375 L 114.703125 45.972656 L 122.652344 45.972656 Z M 116.292969 53.945312 L 121.0625 53.945312 L 121.0625 47.964844 L 116.292969 47.964844 Z M 116.292969 53.945312 "/>
<path style=" stroke:none;fill-rule:nonzero;fill:rgb(24.705882%,23.921569%,33.725491%);fill-opacity:1;" d="M 121.25 49.957031 L 163.378906 49.957031 L 163.378906 51.953125 L 121.25 51.953125 Z M 121.25 49.957031 "/>
<path style=" stroke:none;fill-rule:nonzero;fill:rgb(24.705882%,23.921569%,33.725491%);fill-opacity:1;" d="M 165.03125 50.957031 C 165.03125 49.808594 164.292969 48.878906 163.378906 48.878906 C 162.460938 48.878906 161.722656 49.808594 161.722656 50.957031 C 161.722656 52.101562 162.460938 53.03125 163.378906 53.03125 C 164.292969 53.03125 165.03125 52.101562 165.03125 50.957031 Z M 165.03125 50.957031 "/>
<path style=" stroke:none;fill-rule:nonzero;fill:rgb(24.705882%,23.921569%,33.725491%);fill-opacity:1;" d="M 74.351562 49.957031 L 115.683594 49.957031 L 115.683594 51.953125 L 74.351562 51.953125 Z M 74.351562 49.957031 "/>
<path style=" stroke:none;fill-rule:nonzero;fill:rgb(24.705882%,23.921569%,33.725491%);fill-opacity:1;" d="M 76.007812 50.957031 C 76.007812 49.808594 75.265625 48.878906 74.351562 48.878906 C 73.4375 48.878906 72.695312 49.808594 72.695312 50.957031 C 72.695312 52.101562 73.4375 53.03125 74.351562 53.03125 C 75.265625 53.03125 76.007812 52.101562 76.007812 50.957031 Z M 76.007812 50.957031 "/>
<path style=" stroke:none;fill-rule:nonzero;fill:rgb(24.705882%,23.921569%,33.725491%);fill-opacity:1;" d="M 193.582031 144.828125 L 185.632812 144.828125 L 185.632812 134.863281 L 193.582031 134.863281 Z M 187.222656 142.835938 L 191.992188 142.835938 L 191.992188 136.855469 L 187.222656 136.855469 Z M 187.222656 142.835938 "/>
<path style=" stroke:none;fill-rule:nonzero;fill:rgb(24.705882%,23.921569%,33.725491%);fill-opacity:1;" d="M 188.8125 144.066406 L 190.402344 144.066406 L 190.402344 195.894531 L 188.8125 195.894531 Z M 188.8125 144.066406 "/>
<path style=" stroke:none;fill-rule:nonzero;fill:rgb(24.705882%,23.921569%,33.725491%);fill-opacity:1;" d="M 191.261719 195.894531 C 191.261719 194.75 190.523438 193.820312 189.609375 193.820312 C 188.695312 193.820312 187.953125 194.75 187.953125 195.894531 C 187.953125 197.042969 188.695312 197.96875 189.609375 197.96875 C 190.523438 197.96875 191.261719 197.042969 191.261719 195.894531 Z M 191.261719 195.894531 "/>
<path style=" stroke:none;fill-rule:nonzero;fill:rgb(24.705882%,23.921569%,33.725491%);fill-opacity:1;" d="M 188.8125 84.265625 L 190.402344 84.265625 L 190.402344 136.09375 L 188.8125 136.09375 Z M 188.8125 84.265625 "/>
<path style=" stroke:none;fill-rule:nonzero;fill:rgb(24.705882%,23.921569%,33.725491%);fill-opacity:1;" d="M 191.261719 84.265625 C 191.261719 83.117188 190.523438 82.191406 189.609375 82.191406 C 188.695312 82.191406 187.953125 83.117188 187.953125 84.265625 C 187.953125 85.410156 188.695312 86.339844 189.609375 86.339844 C 190.523438 86.339844 191.261719 85.410156 191.261719 84.265625 Z M 191.261719 84.265625 "/>
<path style=" stroke:none;fill-rule:nonzero;fill:rgb(24.705882%,23.921569%,33.725491%);fill-opacity:1;" d="M 51.300781 144.828125 L 43.351562 144.828125 L 43.351562 134.863281 L 51.300781 134.863281 Z M 44.941406 142.835938 L 49.710938 142.835938 L 49.710938 136.855469 L 44.941406 136.855469 Z M 44.941406 142.835938 "/>
<path style=" stroke:none;fill-rule:nonzero;fill:rgb(24.705882%,23.921569%,33.725491%);fill-opacity:1;" d="M 46.53125 144.066406 L 48.121094 144.066406 L 48.121094 195.894531 L 46.53125 195.894531 Z M 46.53125 144.066406 "/>
<path style=" stroke:none;fill-rule:nonzero;fill:rgb(24.705882%,23.921569%,33.725491%);fill-opacity:1;" d="M 48.980469 195.894531 C 48.980469 194.75 48.238281 193.820312 47.324219 193.820312 C 46.410156 193.820312 45.671875 194.75 45.671875 195.894531 C 45.671875 197.042969 46.410156 197.96875 47.324219 197.96875 C 48.238281 197.96875 48.980469 197.042969 48.980469 195.894531 Z M 48.980469 195.894531 "/>
<path style=" stroke:none;fill-rule:nonzero;fill:rgb(24.705882%,23.921569%,33.725491%);fill-opacity:1;" d="M 46.53125 82.273438 L 48.121094 82.273438 L 48.121094 136.09375 L 46.53125 136.09375 Z M 46.53125 82.273438 "/>
<path style=" stroke:none;fill-rule:nonzero;fill:rgb(24.705882%,23.921569%,33.725491%);fill-opacity:1;" d="M 48.980469 84.265625 C 48.980469 83.117188 48.238281 82.191406 47.324219 82.191406 C 46.410156 82.191406 45.671875 83.117188 45.671875 84.265625 C 45.671875 85.410156 46.410156 86.339844 47.324219 86.339844 C 48.238281 86.339844 48.980469 85.410156 48.980469 84.265625 Z M 48.980469 84.265625 "/>
<path style=" stroke:none;fill-rule:nonzero;fill:rgb(24.705882%,23.921569%,33.725491%);fill-opacity:1;" d="M 122.652344 234.347656 L 114.703125 234.347656 L 114.703125 224.378906 L 122.652344 224.378906 Z M 116.292969 232.351562 L 121.0625 232.351562 L 121.0625 226.371094 L 116.292969 226.371094 Z M 116.292969 232.351562 "/>
<path style=" stroke:none;fill-rule:nonzero;fill:rgb(24.705882%,23.921569%,33.725491%);fill-opacity:1;" d="M 122.042969 228.367188 L 164.171875 228.367188 L 164.171875 230.359375 L 122.042969 230.359375 Z M 122.042969 228.367188 "/>
<path style=" stroke:none;fill-rule:nonzero;fill:rgb(24.705882%,23.921569%,33.725491%);fill-opacity:1;" d="M 165.03125 229.363281 C 165.03125 228.214844 164.292969 227.285156 163.378906 227.285156 C 162.460938 227.285156 161.722656 228.214844 161.722656 229.363281 C 161.722656 230.507812 162.460938 231.4375 163.378906 231.4375 C 164.292969 231.4375 165.03125 230.507812 165.03125 229.363281 Z M 165.03125 229.363281 "/>
<path style=" stroke:none;fill-rule:nonzero;fill:rgb(24.705882%,23.921569%,33.725491%);fill-opacity:1;" d="M 74.351562 228.367188 L 115.683594 228.367188 L 115.683594 230.359375 L 74.351562 230.359375 Z M 74.351562 228.367188 "/>
<path style=" stroke:none;fill-rule:nonzero;fill:rgb(24.705882%,23.921569%,33.725491%);fill-opacity:1;" d="M 76.007812 229.363281 C 76.007812 228.214844 75.265625 227.285156 74.351562 227.285156 C 73.4375 227.285156 72.695312 228.214844 72.695312 229.363281 C 72.695312 230.507812 73.4375 231.4375 74.351562 231.4375 C 75.265625 231.4375 76.007812 230.507812 76.007812 229.363281 Z M 76.007812 229.363281 "/>
<path style=" stroke:none;fill-rule:nonzero;fill:rgb(24.705882%,23.921569%,33.725491%);fill-opacity:1;" d="M 446.71875 303.988281 L 13.511719 303.988281 C 6.054688 303.980469 0.0078125 296.398438 0 287.046875 L 0 16.945312 C 0.0078125 7.589844 6.054688 0.0117188 13.511719 0 L 446.71875 0 C 454.175781 0.0117188 460.222656 7.589844 460.230469 16.945312 L 460.230469 287.046875 C 460.222656 296.398438 454.175781 303.980469 446.71875 303.988281 Z M 13.511719 1.992188 C 6.929688 2.003906 1.597656 8.691406 1.589844 16.945312 L 1.589844 287.046875 C 1.597656 295.300781 6.929688 301.988281 13.511719 301.996094 L 446.71875 301.996094 C 453.300781 301.988281 458.632812 295.300781 458.640625 287.046875 L 458.640625 16.945312 C 458.632812 8.691406 453.300781 2.003906 446.71875 1.992188 Z M 13.511719 1.992188 "/>
<path style=" stroke:none;fill-rule:nonzero;fill:rgb(80.000001%,80.000001%,80.000001%);fill-opacity:1;" d="M 266.28125 89.703125 C 266.28125 86.949219 264.503906 84.71875 262.308594 84.71875 C 260.113281 84.71875 258.332031 86.949219 258.332031 89.703125 C 258.332031 92.453125 260.113281 94.683594 262.308594 94.683594 C 264.503906 94.683594 266.28125 92.453125 266.28125 89.703125 Z M 266.28125 89.703125 "/>
<path style=" stroke:none;fill-rule:nonzero;fill:rgb(80.000001%,80.000001%,80.000001%);fill-opacity:1;" d="M 266.28125 124.585938 C 266.28125 121.832031 264.503906 119.601562 262.308594 119.601562 C 260.113281 119.601562 258.332031 121.832031 258.332031 124.585938 C 258.332031 127.339844 260.113281 129.570312 262.308594 129.570312 C 264.503906 129.570312 266.28125 127.339844 266.28125 124.585938 Z M 266.28125 124.585938 "/>
<path style=" stroke:none;fill-rule:nonzero;fill:rgb(80.000001%,80.000001%,80.000001%);fill-opacity:1;" d="M 266.28125 159.46875 C 266.28125 156.71875 264.503906 154.488281 262.308594 154.488281 C 260.113281 154.488281 258.332031 156.71875 258.332031 159.46875 C 258.332031 162.222656 260.113281 164.453125 262.308594 164.453125 C 264.503906 164.453125 266.28125 162.222656 266.28125 159.46875 Z M 266.28125 159.46875 "/>
<path style=" stroke:none;fill-rule:nonzero;fill:rgb(80.000001%,80.000001%,80.000001%);fill-opacity:1;" d="M 266.28125 194.355469 C 266.28125 191.601562 264.503906 189.371094 262.308594 189.371094 C 260.113281 189.371094 258.332031 191.601562 258.332031 194.355469 C 258.332031 197.105469 260.113281 199.335938 262.308594 199.335938 C 264.503906 199.335938 266.28125 197.105469 266.28125 194.355469 Z M 266.28125 194.355469 "/>
<path style=" stroke:none;fill-rule:nonzero;fill:rgb(100%,39.607844%,51.764709%);fill-opacity:1;" d="M 348.199219 238.234375 L 323.925781 238.234375 C 322.277344 238.234375 320.9375 236.558594 320.9375 234.488281 L 320.9375 198.570312 C 320.9375 196.503906 322.277344 194.824219 323.925781 194.824219 L 348.199219 194.824219 C 349.851562 194.824219 351.1875 196.503906 351.1875 198.570312 L 351.1875 234.488281 C 351.1875 236.558594 349.851562 238.234375 348.199219 238.234375 Z M 348.199219 238.234375 "/>
<path style=" stroke:none;fill-rule:nonzero;fill:rgb(94.901961%,94.901961%,94.901961%);fill-opacity:1;" d="M 601.5625 600.554688 L 598.867188 601.382812 C 600.085938 601.601562 601.300781 601.808594 602.515625 602 L 647.460938 602 C 650.828125 601.460938 654.179688 600.796875 657.515625 600.007812 C 677.589844 595.363281 696.753906 585.847656 713.917969 571.988281 C 724.464844 563.386719 734.523438 552.8125 739.980469 538.609375 C 747.398438 519.324219 744.808594 494.90625 734.21875 478.113281 C 730.363281 472.050781 725.617188 466.976562 720.238281 463.160156 C 719.433594 462.582031 718.625 462.035156 717.796875 461.515625 C 708.835938 455.867188 698.769531 453.558594 688.792969 454.859375 C 671.820312 457.179688 656.164062 470.179688 647.125 488.335938 C 637.132812 508.390625 635.21875 532.929688 633.550781 556.480469 C 630.519531 544.261719 619.152344 536.796875 609.179688 539.496094 C 599.210938 542.1875 591.515625 553.859375 590.277344 566.558594 C 589.058594 578.976562 593.558594 591.722656 601.054688 600.007812 C 601.222656 600.1875 601.386719 600.375 601.5625 600.554688 Z M 601.5625 600.554688 "/>
<path style=" stroke:none;fill-rule:nonzero;fill:rgb(100%,100%,100%);fill-opacity:1;" d="M 636.21875 602 L 638.46875 602 C 638.691406 601.777344 638.863281 601.484375 638.96875 601.152344 C 639.097656 600.773438 639.214844 600.386719 639.351562 600.007812 C 656.761719 547.222656 684.375 500.699219 719.707031 464.636719 C 720.082031 464.300781 720.285156 463.738281 720.238281 463.160156 C 720.144531 462.390625 719.730469 461.746094 719.152344 461.460938 C 718.578125 461.179688 717.921875 461.308594 717.441406 461.796875 C 703.433594 476.097656 690.589844 492.09375 679.085938 509.558594 C 661.09375 536.765625 646.53125 567.269531 635.902344 600.007812 C 635.894531 600.035156 635.886719 600.054688 635.878906 600.085938 C 635.617188 600.746094 635.757812 601.542969 636.21875 602 Z M 636.21875 602 "/>
<path style=" stroke:none;fill-rule:nonzero;fill:rgb(100%,72.156864%,72.156864%);fill-opacity:1;" d="M 557.421875 380.769531 C 557.429688 374.503906 561.476562 369.429688 566.472656 369.421875 C 566.558594 369.421875 566.644531 369.429688 566.734375 369.433594 L 594.71875 341.464844 L 574.664062 316.316406 C 572.421875 313.515625 571.542969 309.425781 572.359375 305.59375 C 573.175781 301.757812 575.566406 298.765625 578.621094 297.742188 C 581.679688 296.714844 584.941406 297.816406 587.171875 300.628906 L 619.410156 341.046875 L 575.515625 381.074219 C 575.382812 387.28125 571.300781 392.199219 566.351562 392.117188 C 561.398438 392.03125 557.421875 386.976562 557.421875 380.769531 Z M 557.421875 380.769531 "/>
<path style=" stroke:none;fill-rule:nonzero;fill:rgb(100%,72.156864%,72.156864%);fill-opacity:1;" d="M 524.570312 588.09375 L 515.105469 583.664062 L 524.230469 535.78125 L 538.199219 542.320312 Z M 524.570312 588.09375 "/>
<path style=" stroke:none;fill-rule:nonzero;fill:rgb(18.431373%,18.039216%,25.490198%);fill-opacity:1;" d="M 508.949219 576.917969 L 527.609375 585.652344 L 523.316406 600.066406 L 493.570312 586.140625 L 493.722656 585.628906 C 496.011719 577.953125 502.824219 574.054688 508.949219 576.917969 Z M 508.949219 576.917969 "/>
<path style=" stroke:none;fill-rule:nonzero;fill:rgb(100%,72.156864%,72.156864%);fill-opacity:1;" d="M 609.71875 588.273438 L 599.617188 588.273438 L 594.808594 539.414062 L 609.722656 539.414062 Z M 609.71875 588.273438 "/>
<path style=" stroke:none;fill-rule:nonzero;fill:rgb(18.431373%,18.039216%,25.490198%);fill-opacity:1;" d="M 591.964844 584.65625 L 611.882812 584.65625 L 611.882812 600.039062 L 580.132812 600.039062 L 580.132812 599.492188 C 580.132812 591.296875 585.429688 584.65625 591.964844 584.65625 Z M 591.964844 584.65625 "/>
<path style=" stroke:none;fill-rule:nonzero;fill:rgb(18.431373%,18.039216%,25.490198%);fill-opacity:1;" d="M 596.335938 569.699219 C 595.582031 568.789062 595.1875 567.511719 595.25 566.203125 C 597.054688 528.886719 581.367188 461.054688 576.519531 441.15625 C 576.253906 440.027344 575.542969 439.152344 574.636719 438.835938 C 573.714844 438.503906 572.722656 438.785156 572.003906 439.578125 C 545.800781 468.195312 537.984375 548.933594 536.679688 564.824219 C 536.582031 566.027344 536.101562 567.125 535.351562 567.875 C 534.597656 568.625 533.632812 568.960938 532.679688 568.8125 L 519.605469 566.761719 C 518.609375 566.605469 517.710938 565.933594 517.128906 564.90625 C 516.550781 563.878906 516.339844 562.59375 516.550781 561.363281 L 550.839844 362.582031 L 550.859375 362.460938 L 550.921875 362.367188 C 559.214844 349.890625 583.234375 354.75 584.253906 354.960938 L 584.359375 354.984375 L 584.441406 355.070312 C 615.292969 387.148438 613.730469 535.835938 613.101562 565.316406 C 613.050781 567.582031 611.664062 569.441406 609.867188 569.65625 L 599.15625 570.933594 C 599.042969 570.949219 598.929688 570.953125 598.816406 570.953125 C 597.890625 570.957031 597 570.503906 596.335938 569.699219 Z M 596.335938 569.699219 "/>
<path style=" stroke:none;fill-rule:nonzero;fill:rgb(100%,72.156864%,72.156864%);fill-opacity:1;" d="M 597.726562 250.453125 C 597.726562 236.933594 588.988281 225.976562 578.203125 225.976562 C 567.421875 225.976562 558.683594 236.933594 558.683594 250.453125 C 558.683594 263.976562 567.421875 274.933594 578.203125 274.933594 C 588.988281 274.933594 597.726562 263.976562 597.726562 250.453125 Z M 597.726562 250.453125 "/>
<path style=" stroke:none;fill-rule:nonzero;fill:rgb(74.901962%,0%,14.117648%);fill-opacity:1;" d="M 597.375 296.558594 C 597.375 296.558594 579.246094 269.691406 564.414062 291.390625 C 554.867188 305.351562 549.820312 323.277344 550.257812 341.65625 L 550.816406 365.269531 L 585.011719 358.554688 Z M 597.375 296.558594 "/>
<path style=" stroke:none;fill-rule:nonzero;fill:rgb(18.431373%,18.039216%,25.490198%);fill-opacity:1;" d="M 575.039062 254.691406 L 566.652344 242.300781 C 564.492188 239.105469 562.230469 235.628906 561.925781 231.457031 C 561.589844 226.886719 563.808594 222.441406 566.839844 219.867188 C 569.871094 217.292969 573.59375 216.324219 577.246094 215.96875 C 584.015625 215.308594 591.140625 216.710938 596.707031 221.589844 C 602.273438 226.46875 605.914062 235.277344 604.558594 243.621094 C 603.488281 250.191406 599.550781 256.484375 601.082031 262.910156 C 602.757812 269.941406 609.625 272.097656 615.230469 274.191406 C 624.640625 277.710938 633.628906 284.640625 638.5625 295.289062 C 643.492188 305.9375 643.472656 320.621094 636.898438 329.769531 C 632.640625 335.691406 626.21875 338.6875 619.871094 339.136719 C 613.519531 339.589844 607.199219 337.714844 601.179688 335.148438 C 595.632812 332.785156 590.148438 329.75 585.78125 324.851562 C 581.417969 319.957031 578.269531 312.953125 578.40625 305.613281 C 578.535156 298.613281 581.527344 292.242188 582.753906 285.414062 C 584.726562 273.777344 581.570312 261.707031 574.492188 253.789062 "/>
<path style=" stroke:none;fill-rule:nonzero;fill:rgb(74.901962%,0%,14.117648%);fill-opacity:1;" d="M 554.308594 475.753906 L 530.035156 475.753906 C 528.386719 475.75 527.050781 474.074219 527.046875 472.007812 L 527.046875 436.089844 C 527.050781 434.019531 528.386719 432.34375 530.035156 432.339844 L 554.308594 432.339844 C 555.960938 432.34375 557.296875 434.019531 557.300781 436.089844 L 557.300781 472.007812 C 557.296875 474.074219 555.960938 475.75 554.308594 475.753906 Z M 554.308594 475.753906 "/>
<path style=" stroke:none;fill-rule:nonzero;fill:rgb(100%,72.156864%,72.156864%);fill-opacity:1;" d="M 547.117188 445.035156 C 544.71875 440.347656 545.46875 434.160156 548.867188 430.578125 L 562.152344 299.320312 C 562.75 293.519531 566.683594 289.171875 571.347656 289.160156 L 571.46875 289.160156 C 574.195312 289.207031 576.765625 290.753906 578.5 293.390625 C 580.234375 296.027344 580.953125 299.484375 580.46875 302.847656 L 561.789062 432.480469 L 561.792969 432.484375 C 563.375 435.191406 563.898438 438.644531 563.222656 441.886719 C 562.546875 445.132812 560.738281 447.820312 558.304688 449.207031 C 557.171875 449.851562 555.945312 450.183594 554.703125 450.179688 C 551.640625 450.195312 548.78125 448.257812 547.117188 445.035156 Z M 547.117188 445.035156 "/>
<path style=" stroke:none;fill-rule:nonzero;fill:rgb(24.705882%,23.921569%,33.725491%);fill-opacity:1;" d="M 679.15625 602 L 474.875 602 C 474.433594 602 474.078125 601.554688 474.078125 601.003906 C 474.078125 600.453125 474.433594 600.007812 474.875 600.007812 L 679.15625 600.007812 C 679.59375 600.007812 679.949219 600.453125 679.949219 601.003906 C 679.949219 601.554688 679.59375 602 679.15625 602 Z M 679.15625 602 "/>
</g>
</svg>
