<?xml version="1.0" encoding="UTF-8"?>
<svg xmlns="http://www.w3.org/2000/svg" xmlns:xlink="http://www.w3.org/1999/xlink" width="744px" height="602px" viewBox="0 0 744 602" version="1.1">
<g id="surface1">
<path style=" stroke:none;fill-rule:nonzero;fill:rgb(89.411765%,89.411765%,89.411765%);fill-opacity:1;" d="M 645.558594 597.71875 C 645.632812 597.40625 652.523438 565.789062 640.324219 537.582031 L 639.082031 538.765625 C 650.886719 566.070312 644.226562 596.722656 644.15625 597.027344 Z M 645.558594 597.71875 "/>
<path style=" stroke:none;fill-rule:nonzero;fill:rgb(89.411765%,89.411765%,89.411765%);fill-opacity:1;" d="M 631.605469 541.636719 C 632.710938 549.410156 637.855469 554.378906 643.09375 552.742188 C 648.335938 551.101562 651.6875 543.472656 650.582031 535.703125 C 649.476562 527.933594 640.109375 508.59375 634.867188 510.234375 C 629.625 511.871094 630.5 533.867188 631.605469 541.636719 Z M 631.605469 541.636719 "/>
<path style=" stroke:none;fill-rule:nonzero;fill:rgb(89.411765%,89.411765%,89.411765%);fill-opacity:1;" d="M 633.371094 577.980469 C 638.050781 585.476562 646.417969 585.269531 646.417969 585.269531 C 646.417969 585.269531 647.199219 572.917969 642.523438 565.425781 C 637.847656 557.929688 629.480469 558.132812 629.480469 558.132812 C 629.480469 558.132812 628.695312 570.488281 633.371094 577.980469 Z M 633.371094 577.980469 "/>
<path style=" stroke:none;fill-rule:nonzero;fill:rgb(89.411765%,89.411765%,89.411765%);fill-opacity:1;" d="M 704.261719 599.914062 C 704.429688 599.167969 720.695312 524.5625 691.910156 457.988281 L 688.972656 460.78125 C 716.832031 525.226562 701.113281 597.554688 700.953125 598.277344 Z M 704.261719 599.914062 "/>
<path style=" stroke:none;fill-rule:nonzero;fill:rgb(89.411765%,89.411765%,89.411765%);fill-opacity:1;" d="M 671.328125 467.5625 C 673.941406 485.894531 686.078125 497.621094 698.445312 493.753906 C 710.8125 489.886719 718.722656 471.894531 716.117188 453.558594 C 713.507812 435.222656 691.398438 389.582031 679.027344 393.449219 C 666.660156 397.316406 668.722656 449.226562 671.328125 467.5625 Z M 671.328125 467.5625 "/>
<path style=" stroke:none;fill-rule:nonzero;fill:rgb(89.411765%,89.411765%,89.411765%);fill-opacity:1;" d="M 675.5 553.328125 C 686.539062 571.015625 706.285156 570.535156 706.285156 570.535156 C 706.285156 570.535156 708.136719 541.382812 697.097656 523.695312 C 686.058594 506.011719 666.3125 506.492188 666.3125 506.492188 C 666.3125 506.492188 664.460938 535.644531 675.5 553.328125 Z M 675.5 553.328125 "/>
<path style=" stroke:none;fill-rule:nonzero;fill:rgb(90.196079%,90.196079%,90.196079%);fill-opacity:1;" d="M 429.015625 594.296875 L 418.226562 587.558594 L 410.820312 507.34375 L 312.234375 507.34375 L 304.210938 587.230469 L 294.554688 594.390625 C 293.605469 595.09375 293.105469 596.675781 293.347656 598.210938 C 293.59375 599.746094 294.519531 600.828125 295.582031 600.828125 L 428.128906 600.828125 C 429.21875 600.828125 430.160156 599.6875 430.375 598.101562 C 430.589844 596.515625 430.023438 594.925781 429.015625 594.296875 Z M 429.015625 594.296875 "/>
<path style=" stroke:none;fill-rule:nonzero;fill:rgb(80.000001%,80.000001%,80.000001%);fill-opacity:1;" d="M 604.214844 518.015625 L 119.925781 518.015625 C 114.636719 518 110.351562 511.636719 110.351562 503.792969 L 110.351562 402.539062 L 613.785156 402.539062 L 613.785156 503.792969 C 613.785156 511.636719 609.503906 518 604.214844 518.015625 Z M 604.214844 518.015625 "/>
<path style=" stroke:none;fill-rule:nonzero;fill:rgb(24.705882%,23.921569%,33.725491%);fill-opacity:1;" d="M 614.292969 450.394531 L 109.910156 450.394531 L 109.910156 17.148438 C 109.917969 7.683594 115.09375 0.0117188 121.476562 0 L 602.726562 0 C 609.109375 0.0117188 614.285156 7.683594 614.292969 17.148438 Z M 614.292969 450.394531 "/>
<path style=" stroke:none;fill-rule:nonzero;fill:rgb(100%,100%,100%);fill-opacity:1;" d="M 584.171875 31.445312 L 140.035156 31.445312 C 135.113281 31.453125 131.125 37.371094 131.121094 44.667969 L 131.121094 405.726562 C 131.125 413.023438 135.113281 418.941406 140.035156 418.949219 L 584.171875 418.949219 C 589.09375 418.9375 593.078125 413.023438 593.082031 405.726562 L 593.082031 44.667969 C 593.078125 37.371094 589.09375 31.457031 584.171875 31.445312 Z M 584.171875 31.445312 "/>
<path style=" stroke:none;fill-rule:nonzero;fill:rgb(94.117647%,94.117647%,94.117647%);fill-opacity:1;" d="M 218.761719 31.445312 L 218.761719 418.949219 L 140.035156 418.949219 C 135.113281 418.941406 131.125 413.023438 131.121094 405.726562 L 131.121094 44.667969 C 131.125 37.371094 135.113281 31.453125 140.035156 31.445312 Z M 218.761719 31.445312 "/>
<path style=" stroke:none;fill-rule:nonzero;fill:rgb(100%,71.372551%,71.372551%);fill-opacity:1;" d="M 153.8125 227.199219 C 152.019531 226.59375 150.136719 227.199219 148.671875 228.847656 C 147.207031 230.5 146.308594 233.027344 146.222656 235.75 L 125.03125 245.015625 L 133.804688 255.996094 L 152.582031 245.515625 C 155.75 245.425781 158.371094 241.839844 158.683594 237.167969 C 159 232.492188 156.90625 228.210938 153.8125 227.199219 Z M 153.8125 227.199219 "/>
<path style=" stroke:none;fill-rule:nonzero;fill:rgb(74.901962%,0%,14.117648%);fill-opacity:1;" d="M 68.191406 296.910156 C 63.863281 296.902344 60.179688 292.253906 59.480469 285.921875 C 58.78125 279.589844 61.277344 273.441406 65.375 271.386719 L 108.316406 249.894531 L 141.8125 231.804688 L 145.925781 253.136719 L 116.355469 282.027344 L 70.039062 296.621094 C 69.433594 296.8125 68.8125 296.910156 68.191406 296.910156 Z M 68.191406 296.910156 "/>
<path style=" stroke:none;fill-rule:nonzero;fill:rgb(100%,71.372551%,71.372551%);fill-opacity:1;" d="M 95.0625 590.804688 L 101.09375 590.804688 L 103.960938 556.324219 L 95.0625 556.324219 Z M 95.0625 590.804688 "/>
<path style=" stroke:none;fill-rule:nonzero;fill:rgb(18.431373%,18.039216%,25.490198%);fill-opacity:1;" d="M 93.527344 587.886719 L 105.398438 587.886719 C 109.578125 587.886719 112.96875 592.910156 112.96875 599.105469 L 112.96875 599.472656 L 93.527344 599.472656 Z M 93.527344 587.886719 "/>
<path style=" stroke:none;fill-rule:nonzero;fill:rgb(100%,71.372551%,71.372551%);fill-opacity:1;" d="M 48.835938 590.804688 L 54.863281 590.804688 L 57.734375 556.324219 L 48.835938 556.324219 Z M 48.835938 590.804688 "/>
<path style=" stroke:none;fill-rule:nonzero;fill:rgb(18.431373%,18.039216%,25.490198%);fill-opacity:1;" d="M 47.296875 587.886719 L 59.171875 587.886719 C 63.351562 587.886719 66.738281 592.910156 66.738281 599.105469 L 66.738281 599.472656 L 47.296875 599.472656 Z M 47.296875 587.886719 "/>
<path style=" stroke:none;fill-rule:nonzero;fill:rgb(18.431373%,18.039216%,25.490198%);fill-opacity:1;" d="M 48.777344 383.980469 C 46.015625 393.511719 45.414062 404.109375 47.054688 414.191406 L 45.332031 585.234375 L 58.574219 585.234375 L 65.988281 491.171875 L 78.285156 429.191406 L 91.5625 477.316406 L 91.5625 577.617188 L 104.347656 576.484375 L 111.234375 470.023438 L 103.363281 394.191406 Z M 48.777344 383.980469 "/>
<path style=" stroke:none;fill-rule:nonzero;fill:rgb(74.901962%,0%,14.117648%);fill-opacity:1;" d="M 97.21875 250.910156 L 85.90625 245.804688 L 82.957031 237.054688 L 68.425781 237.054688 L 64.757812 246.535156 C 64.757812 246.535156 50.003906 254.554688 49.511719 293.199219 C 49.023438 331.847656 47.054688 393.824219 47.054688 393.824219 L 105.230469 406.121094 Z M 97.21875 250.910156 "/>
<path style=" stroke:none;fill-rule:nonzero;fill:rgb(100%,71.372551%,71.372551%);fill-opacity:1;" d="M 113.917969 399.203125 C 114.691406 396.726562 114.683594 393.871094 113.898438 391.402344 C 113.117188 388.933594 111.632812 387.109375 109.855469 386.417969 L 108.148438 353.757812 L 99.082031 364.199219 L 102.089844 393.609375 C 101.492188 398.222656 103.3125 402.769531 106.328125 404.195312 C 109.347656 405.621094 112.609375 403.476562 113.917969 399.203125 Z M 113.917969 399.203125 "/>
<path style=" stroke:none;fill-rule:nonzero;fill:rgb(74.901962%,0%,14.117648%);fill-opacity:1;" d="M 98.449219 382.371094 L 85.535156 333.476562 L 85.535156 263.273438 C 85.535156 256.332031 89.1875 250.59375 93.863281 250.191406 C 98.535156 249.789062 102.609375 254.859375 103.152344 261.753906 L 108.402344 328.503906 L 113.375 380.84375 Z M 98.449219 382.371094 "/>
<path style=" stroke:none;fill-rule:nonzero;fill:rgb(100%,72.549021%,72.549021%);fill-opacity:1;" d="M 92.996094 204.175781 C 92.996094 192.285156 86.496094 182.648438 78.476562 182.648438 C 70.460938 182.648438 63.957031 192.285156 63.957031 204.175781 C 63.957031 216.066406 70.460938 225.703125 78.476562 225.703125 C 86.496094 225.703125 92.996094 216.066406 92.996094 204.175781 Z M 92.996094 204.175781 "/>
<path style=" stroke:none;fill-rule:nonzero;fill:rgb(18.431373%,18.039216%,25.490198%);fill-opacity:1;" d="M 79.429688 197.632812 C 78.75 198.925781 77.816406 200.09375 77.667969 201.714844 C 77.558594 202.917969 77.914062 204.109375 77.945312 205.320312 C 77.953125 207.863281 76.621094 209.972656 74.914062 210.140625 C 74.339844 209.066406 73.507812 208.363281 72.59375 208.175781 C 71.660156 208.015625 70.769531 208.78125 70.394531 210.058594 C 69.960938 211.867188 70.960938 213.699219 71.121094 215.601562 C 71.140625 217.007812 70.988281 218.40625 70.667969 219.730469 C 70.300781 221.910156 70.203125 224.21875 69.554688 226.253906 C 68.910156 228.289062 67.476562 230.039062 65.988281 229.589844 C 64.742188 229.210938 63.894531 227.417969 63.546875 225.597656 C 63.195312 223.78125 63.210938 221.851562 62.960938 220 C 62.136719 213.980469 58.644531 209.519531 57.269531 203.722656 C 55.515625 196.292969 57.625 187.796875 61.261719 182.066406 C 62.734375 179.554688 64.652344 177.710938 66.800781 176.75 C 69.070312 175.894531 71.464844 176.507812 73.792969 176.144531 C 76.28125 175.75 78.617188 174.253906 81.035156 173.300781 C 83.453125 172.347656 86.15625 171.988281 88.351562 173.761719 C 89.886719 174.996094 90.996094 177.128906 92.425781 178.613281 C 94.0625 180.304688 96.046875 181.09375 98.035156 180.839844 L 95.660156 182.378906 C 96.570312 183.617188 97.667969 184.507812 98.859375 184.976562 C 97.890625 186.117188 96.6875 186.742188 95.449219 186.75 C 95.972656 188.144531 96.859375 189.15625 97.902344 189.546875 C 96.101562 190.800781 94.1875 192.085938 92.203125 191.804688 C 91.234375 191.667969 90.304688 191.15625 89.34375 190.890625 C 87.300781 190.328125 85.203125 190.910156 83.160156 191.492188 C 82.085938 191.796875 80.769531 192.089844 80.230469 193.617188 C 79.777344 194.890625 80.121094 196.308594 79.429688 197.632812 Z M 79.429688 197.632812 "/>
<path style=" stroke:none;fill-rule:nonzero;fill:rgb(74.901962%,0%,14.117648%);fill-opacity:1;" d="M 198.105469 225.195312 C 198.105469 206.230469 187.734375 190.851562 174.941406 190.851562 C 162.148438 190.851562 151.777344 206.230469 151.777344 225.195312 C 151.777344 244.164062 162.148438 259.539062 174.941406 259.539062 C 187.734375 259.539062 198.105469 244.164062 198.105469 225.195312 Z M 198.105469 225.195312 "/>
<path style=" stroke:none;fill-rule:nonzero;fill:rgb(100%,100%,100%);fill-opacity:1;" d="M 188.839844 225.199219 L 176.332031 225.199219 L 176.332031 206.652344 L 173.550781 206.652344 L 173.550781 225.199219 L 161.042969 225.199219 L 161.042969 229.316406 L 173.550781 229.316406 L 173.550781 247.863281 L 176.332031 247.863281 L 176.332031 229.316406 L 188.839844 229.316406 Z M 188.839844 225.199219 "/>
<path style=" stroke:none;fill-rule:nonzero;fill:rgb(100%,100%,100%);fill-opacity:1;" d="M 372.1875 76.765625 C 370.703125 76.769531 369.496094 78.554688 369.496094 80.761719 L 369.496094 147.648438 C 369.496094 149.855469 370.703125 151.640625 372.1875 151.644531 L 554.050781 151.644531 C 555.535156 151.640625 556.742188 149.855469 556.742188 147.648438 L 556.742188 80.761719 C 556.742188 78.554688 555.535156 76.769531 554.050781 76.765625 Z M 372.1875 76.765625 "/>
<path style=" stroke:none;fill-rule:nonzero;fill:rgb(90.196079%,90.196079%,90.196079%);fill-opacity:1;" d="M 372.1875 76.765625 C 370.703125 76.769531 369.496094 78.554688 369.496094 80.761719 L 369.496094 147.648438 C 369.496094 149.855469 370.703125 151.640625 372.1875 151.644531 L 554.050781 151.644531 C 555.535156 151.640625 556.742188 149.855469 556.742188 147.648438 L 556.742188 80.761719 C 556.742188 78.554688 555.535156 76.769531 554.050781 76.765625 Z M 372.1875 76.765625 "/>
<path style=" stroke:none;fill-rule:nonzero;fill:rgb(100%,100%,100%);fill-opacity:1;" d="M 372.527344 147.148438 L 553.710938 147.148438 L 553.710938 81.261719 L 372.527344 81.261719 Z M 372.527344 147.148438 "/>
<path style=" stroke:none;fill-rule:nonzero;fill:rgb(89.411765%,89.411765%,89.411765%);fill-opacity:1;" d="M 393.125 100.222656 C 391.824219 100.222656 390.769531 101.789062 390.769531 103.71875 C 390.769531 105.648438 391.824219 107.214844 393.125 107.214844 L 533.105469 107.214844 C 534.40625 107.214844 535.464844 105.652344 535.464844 103.71875 C 535.464844 101.789062 534.410156 100.222656 533.109375 100.222656 Z M 393.125 100.222656 "/>
<path style=" stroke:none;fill-rule:nonzero;fill:rgb(89.411765%,89.411765%,89.411765%);fill-opacity:1;" d="M 393.125 121.195312 C 391.824219 121.199219 390.773438 122.761719 390.773438 124.691406 C 390.773438 126.621094 391.824219 128.183594 393.125 128.1875 L 533.105469 128.1875 C 534.40625 128.191406 535.464844 126.628906 535.46875 124.699219 C 535.472656 122.769531 534.417969 121.199219 533.117188 121.195312 Z M 393.125 121.195312 "/>
<path style=" stroke:none;fill-rule:nonzero;fill:rgb(100%,100%,100%);fill-opacity:1;" d="M 245.722656 190.257812 C 244.238281 190.261719 243.03125 192.046875 243.03125 194.253906 L 243.03125 261.140625 C 243.03125 263.34375 244.238281 265.132812 245.722656 265.136719 L 427.585938 265.136719 C 429.070312 265.132812 430.277344 263.34375 430.277344 261.140625 L 430.277344 194.253906 C 430.277344 192.046875 429.070312 190.261719 427.585938 190.257812 Z M 245.722656 190.257812 "/>
<path style=" stroke:none;fill-rule:nonzero;fill:rgb(90.196079%,90.196079%,90.196079%);fill-opacity:1;" d="M 245.722656 190.257812 C 244.238281 190.261719 243.03125 192.046875 243.03125 194.253906 L 243.03125 261.140625 C 243.03125 263.34375 244.238281 265.132812 245.722656 265.136719 L 427.585938 265.136719 C 429.070312 265.132812 430.277344 263.34375 430.277344 261.140625 L 430.277344 194.253906 C 430.277344 192.046875 429.070312 190.261719 427.585938 190.257812 Z M 245.722656 190.257812 "/>
<path style=" stroke:none;fill-rule:nonzero;fill:rgb(100%,100%,100%);fill-opacity:1;" d="M 246.058594 260.640625 L 427.246094 260.640625 L 427.246094 194.753906 L 246.058594 194.753906 Z M 246.058594 260.640625 "/>
<path style=" stroke:none;fill-rule:nonzero;fill:rgb(89.411765%,89.411765%,89.411765%);fill-opacity:1;" d="M 266.660156 213.714844 C 265.359375 213.714844 264.304688 215.28125 264.304688 217.210938 C 264.304688 219.140625 265.359375 220.707031 266.660156 220.707031 L 406.640625 220.707031 C 407.941406 220.707031 409 219.144531 409 217.210938 C 409 215.28125 407.945312 213.714844 406.644531 213.714844 Z M 266.660156 213.714844 "/>
<path style=" stroke:none;fill-rule:nonzero;fill:rgb(89.411765%,89.411765%,89.411765%);fill-opacity:1;" d="M 266.660156 234.6875 C 265.359375 234.691406 264.308594 236.253906 264.308594 238.183594 C 264.308594 240.109375 265.359375 241.675781 266.660156 241.679688 L 406.640625 241.679688 C 407.941406 241.683594 409 240.121094 409.003906 238.191406 C 409.007812 236.261719 407.953125 234.691406 406.652344 234.6875 Z M 266.660156 234.6875 "/>
<path style=" stroke:none;fill-rule:nonzero;fill:rgb(100%,71.764708%,71.764708%);fill-opacity:1;" d="M 467.398438 369.777344 C 469.039062 369.507812 470.511719 368.179688 471.425781 366.140625 C 472.339844 364.105469 472.601562 361.574219 472.132812 359.230469 L 488.25 342.160156 L 478.648438 336.675781 L 464.8125 353.726562 C 462.148438 355.179688 460.636719 359.359375 461.296875 363.453125 C 461.957031 367.546875 464.578125 370.265625 467.398438 369.777344 Z M 467.398438 369.777344 "/>
<path style=" stroke:none;fill-rule:nonzero;fill:rgb(24.705882%,23.921569%,33.725491%);fill-opacity:1;" d="M 476.347656 358.535156 L 471 344.996094 L 471.113281 344.800781 L 492.683594 308.386719 L 509.433594 266.035156 L 523.980469 268.785156 L 524.195312 275.304688 L 524.152344 275.402344 L 501.042969 326.90625 L 501.019531 326.9375 Z M 476.347656 358.535156 "/>
<path style=" stroke:none;fill-rule:nonzero;fill:rgb(100%,71.764708%,71.764708%);fill-opacity:1;" d="M 547.621094 587.652344 L 539.398438 587.648438 L 535.484375 540.609375 L 547.625 540.609375 Z M 547.621094 587.652344 "/>
<path style=" stroke:none;fill-rule:nonzero;fill:rgb(18.431373%,18.039216%,25.490198%);fill-opacity:1;" d="M 549.71875 599.472656 L 523.199219 599.472656 L 523.199219 598.972656 C 523.199219 590.519531 527.820312 583.667969 533.519531 583.667969 L 549.71875 583.667969 Z M 549.71875 599.472656 "/>
<path style=" stroke:none;fill-rule:nonzero;fill:rgb(100%,71.764708%,71.764708%);fill-opacity:1;" d="M 476.832031 587.25 L 468.832031 584.417969 L 472.394531 537.316406 L 484.199219 541.496094 Z M 476.832031 587.25 "/>
<path style=" stroke:none;fill-rule:nonzero;fill:rgb(18.431373%,18.039216%,25.490198%);fill-opacity:1;" d="M 477.019531 599.472656 L 451.222656 590.339844 L 451.300781 589.855469 C 452.625 581.632812 458.195312 576.558594 463.738281 578.523438 L 479.496094 584.101562 Z M 477.019531 599.472656 "/>
<path style=" stroke:none;fill-rule:nonzero;fill:rgb(18.431373%,18.039216%,25.490198%);fill-opacity:1;" d="M 508.796875 244.53125 L 508.796875 224 C 508.796875 208.808594 517.105469 196.492188 527.351562 196.492188 C 537.597656 196.492188 545.90625 208.808594 545.90625 224 L 545.90625 244.53125 C 545.902344 246.570312 544.789062 248.222656 543.414062 248.226562 L 511.289062 248.226562 C 509.914062 248.222656 508.800781 246.570312 508.796875 244.53125 Z M 508.796875 244.53125 "/>
<path style=" stroke:none;fill-rule:nonzero;fill:rgb(100%,71.764708%,71.764708%);fill-opacity:1;" d="M 536.375 227.746094 C 536.375 216.605469 530.285156 207.578125 522.773438 207.578125 C 515.261719 207.578125 509.171875 216.605469 509.171875 227.746094 C 509.171875 238.882812 515.261719 247.914062 522.773438 247.914062 C 530.285156 247.914062 536.375 238.882812 536.375 227.746094 Z M 536.375 227.746094 "/>
<path style=" stroke:none;fill-rule:nonzero;fill:rgb(18.431373%,18.039216%,25.490198%);fill-opacity:1;" d="M 504.410156 225.644531 C 504.417969 213.632812 510.984375 203.898438 519.085938 203.882812 L 521.855469 203.882812 C 529.957031 203.898438 536.523438 213.632812 536.53125 225.644531 L 536.53125 226.054688 L 530.679688 226.054688 L 528.683594 217.769531 L 528.285156 226.054688 L 525.257812 226.054688 L 524.253906 221.875 L 524.050781 226.054688 L 504.410156 226.054688 Z M 504.410156 225.644531 "/>
<path style=" stroke:none;fill-rule:nonzero;fill:rgb(24.705882%,23.921569%,33.725491%);fill-opacity:1;" d="M 530.707031 334.191406 L 496.074219 332.234375 L 494.136719 298.640625 C 492.644531 292.492188 492.621094 287.210938 494.066406 282.949219 C 495.308594 279.449219 497.398438 276.769531 499.914062 275.453125 L 507.492188 261.882812 C 509.46875 258.351562 512.40625 256.316406 515.5 256.347656 L 535.191406 256.546875 C 535.667969 256.125 538.542969 253.953125 544.222656 257.605469 C 550.378906 261.5625 548.949219 275.308594 548.9375 275.449219 L 548.921875 275.578125 L 548.855469 275.664062 L 535.757812 292.015625 Z M 530.707031 334.191406 "/>
<path style=" stroke:none;fill-rule:nonzero;fill:rgb(18.431373%,18.039216%,25.490198%);fill-opacity:1;" d="M 496.347656 328.625 L 479.96875 372.910156 L 467.546875 574.386719 L 481.582031 580.742188 L 506.421875 423.132812 L 535.25 576.269531 L 552.070312 576.890625 L 540.617188 400.175781 L 530.605469 331.753906 Z M 496.347656 328.625 "/>
<path style=" stroke:none;fill-rule:nonzero;fill:rgb(100%,100%,100%);fill-opacity:1;" d="M 390.324219 295.800781 C 388.90625 295.121094 387.390625 296.269531 386.929688 298.367188 L 373.019531 361.996094 C 372.5625 364.09375 373.335938 366.34375 374.75 367.027344 L 547.75 450.175781 C 549.164062 450.855469 550.683594 449.707031 551.140625 447.609375 L 565.054688 383.980469 C 565.511719 381.882812 564.734375 379.632812 563.320312 378.949219 Z M 390.324219 295.800781 "/>
<path style=" stroke:none;fill-rule:nonzero;fill:rgb(90.196079%,90.196079%,90.196079%);fill-opacity:1;" d="M 390.324219 295.800781 C 388.90625 295.121094 387.390625 296.269531 386.929688 298.367188 L 373.019531 361.996094 C 372.5625 364.09375 373.335938 366.34375 374.75 367.027344 L 547.75 450.175781 C 549.164062 450.855469 550.683594 449.707031 551.140625 447.609375 L 565.054688 383.980469 C 565.511719 381.882812 564.734375 379.632812 563.320312 378.949219 Z M 390.324219 295.800781 "/>
<path style=" stroke:none;fill-rule:nonzero;fill:rgb(100%,100%,100%);fill-opacity:1;" d="M 376.003906 362.90625 L 548.363281 445.746094 L 562.066406 383.070312 L 389.707031 300.230469 Z M 376.003906 362.90625 "/>
<path style=" stroke:none;fill-rule:nonzero;fill:rgb(74.901962%,0%,14.117648%);fill-opacity:1;" d="M 405.363281 327.6875 C 404.125 327.09375 402.792969 328.097656 402.394531 329.933594 C 401.992188 331.769531 402.667969 333.742188 403.90625 334.335938 L 537.066406 398.335938 C 537.867188 398.722656 538.746094 398.449219 539.375 397.613281 C 540 396.777344 540.277344 395.507812 540.101562 394.285156 C 539.925781 393.0625 539.324219 392.074219 538.519531 391.6875 Z M 405.363281 327.6875 "/>
<path style=" stroke:none;fill-rule:nonzero;fill:rgb(74.901962%,0%,14.117648%);fill-opacity:1;" d="M 401 347.636719 C 399.761719 347.046875 398.4375 348.050781 398.035156 349.886719 C 397.632812 351.71875 398.308594 353.6875 399.546875 354.285156 L 532.703125 418.289062 C 533.941406 418.886719 535.273438 417.886719 535.675781 416.050781 C 536.082031 414.214844 535.40625 412.242188 534.167969 411.640625 L 534.15625 411.636719 Z M 401 347.636719 "/>
<path style=" stroke:none;fill-rule:nonzero;fill:rgb(100%,71.764708%,71.764708%);fill-opacity:1;" d="M 540.117188 400.320312 C 541.34375 398.6875 542.019531 396.332031 541.964844 393.886719 C 541.90625 391.441406 541.125 389.160156 539.824219 387.65625 L 546.21875 359.863281 L 536.257812 363.699219 L 531.710938 389.503906 C 530.117188 392.988281 530.53125 397.6875 532.675781 400.449219 C 534.820312 403.207031 538.015625 403.152344 540.117188 400.320312 Z M 540.117188 400.320312 "/>
<path style=" stroke:none;fill-rule:nonzero;fill:rgb(24.705882%,23.921569%,33.725491%);fill-opacity:1;" d="M 542.972656 383.453125 L 533.308594 377.066406 L 536.554688 328.582031 L 533.535156 279.691406 L 546.4375 269.363281 L 549.171875 274.476562 L 549.175781 274.59375 L 550.625 336.414062 L 550.617188 336.460938 Z M 542.972656 383.453125 "/>
<path style=" stroke:none;fill-rule:nonzero;fill:rgb(80.000001%,80.000001%,80.000001%);fill-opacity:1;" d="M 742.546875 601.664062 L 237.09375 601.664062 C 236.570312 601.683594 236.101562 601.171875 235.957031 600.421875 C 235.867188 599.917969 235.941406 599.382812 236.152344 598.972656 C 236.367188 598.558594 236.699219 598.320312 237.050781 598.316406 L 742.457031 598.316406 C 743.011719 598.289062 743.503906 598.832031 743.652344 599.628906 C 743.726562 600.125 743.644531 600.640625 743.429688 601.039062 C 743.214844 601.433594 742.890625 601.664062 742.546875 601.664062 Z M 742.546875 601.664062 "/>
<path style=" stroke:none;fill-rule:nonzero;fill:rgb(80.000001%,80.000001%,80.000001%);fill-opacity:1;" d="M 170.125 601.664062 L 1.175781 601.664062 C 0.648438 601.683594 0.179688 601.171875 0.0351562 600.421875 C -0.0546875 599.917969 0.0195312 599.382812 0.234375 598.972656 C 0.449219 598.558594 0.777344 598.320312 1.128906 598.316406 L 170.035156 598.316406 C 170.589844 598.289062 171.085938 598.832031 171.230469 599.628906 C 171.304688 600.125 171.222656 600.640625 171.007812 601.039062 C 170.792969 601.433594 170.46875 601.664062 170.125 601.664062 Z M 170.125 601.664062 "/>
</g>
</svg>
