<?xml version="1.0" encoding="UTF-8"?>
<svg xmlns="http://www.w3.org/2000/svg" xmlns:xlink="http://www.w3.org/1999/xlink" width="744px" height="602px" viewBox="0 0 744 602" version="1.1">
<g id="surface1">
<path style=" stroke:none;fill-rule:nonzero;fill:rgb(72.941178%,0%,74.901962%);fill-opacity:1;" d="M 451.863281 374.765625 L 450.652344 389.621094 C 450.351562 393.230469 447.308594 395.90625 443.84375 395.605469 L 325.101562 385.074219 C 321.640625 384.761719 319.070312 381.585938 319.363281 377.972656 L 320.574219 363.121094 C 320.871094 359.507812 323.917969 356.832031 327.382812 357.132812 L 446.121094 367.667969 C 449.585938 367.976562 452.152344 371.152344 451.863281 374.765625 Z M 451.863281 374.765625 "/>
<path style=" stroke:none;fill-rule:nonzero;fill:rgb(72.941178%,0%,74.901962%);fill-opacity:1;" d="M 475.53125 447.222656 L 462.378906 453.070312 C 459.183594 454.492188 455.898438 453.964844 455.050781 451.898438 L 426.003906 380.910156 C 425.15625 378.84375 427.066406 376.003906 430.261719 374.585938 L 443.414062 368.734375 C 446.605469 367.3125 449.894531 367.839844 450.738281 369.910156 L 479.785156 440.894531 C 480.632812 442.960938 478.722656 445.800781 475.53125 447.222656 Z M 475.53125 447.222656 "/>
<path style=" stroke:none;fill-rule:nonzero;fill:rgb(90.196079%,90.196079%,90.196079%);fill-opacity:1;" d="M 405.90625 424.222656 L 183.199219 424.222656 C 188.453125 384.585938 169.566406 345.710938 135.808594 326.679688 C 102.050781 307.648438 60.507812 312.457031 31.574219 338.742188 C 2.640625 365.027344 -7.613281 407.273438 5.847656 444.746094 C 19.304688 482.21875 53.65625 507.046875 92.03125 507.050781 C 103.289062 507.0625 114.457031 504.914062 124.96875 500.714844 L 124.96875 593.914062 C 124.96875 598.378906 128.4375 601.996094 132.71875 601.996094 L 405.90625 601.996094 C 410.1875 601.996094 413.65625 598.378906 413.65625 593.914062 L 413.65625 432.304688 C 413.65625 427.839844 410.1875 424.222656 405.90625 424.222656 Z M 405.90625 424.222656 "/>
<path style=" stroke:none;fill-rule:nonzero;fill:rgb(24.705882%,23.921569%,33.725491%);fill-opacity:1;" d="M 422.375 580.785156 L 149.1875 580.785156 C 144.375 580.777344 140.472656 576.710938 140.46875 571.695312 L 140.46875 410.082031 C 140.472656 405.066406 144.375 401 149.1875 400.992188 L 422.375 400.992188 C 427.1875 401 431.089844 405.066406 431.09375 410.082031 L 431.09375 571.695312 C 431.089844 576.710938 427.1875 580.777344 422.375 580.785156 Z M 149.1875 403.011719 C 145.445312 403.015625 142.410156 406.179688 142.40625 410.082031 L 142.40625 571.695312 C 142.410156 575.597656 145.445312 578.757812 149.1875 578.765625 L 422.375 578.765625 C 426.117188 578.757812 429.152344 575.597656 429.15625 571.695312 L 429.15625 410.082031 C 429.152344 406.179688 426.117188 403.015625 422.375 403.011719 Z M 149.1875 403.011719 "/>
<path style=" stroke:none;fill-rule:nonzero;fill:rgb(72.941178%,0%,74.901962%);fill-opacity:1;" d="M 422.800781 385.875 L 421.589844 400.730469 C 421.289062 404.339844 418.246094 407.019531 414.78125 406.714844 L 296.039062 396.183594 C 292.578125 395.871094 290.007812 392.695312 290.300781 389.085938 L 291.511719 374.230469 C 291.808594 370.621094 294.855469 367.941406 298.320312 368.246094 L 417.058594 378.777344 C 420.523438 379.089844 423.089844 382.265625 422.800781 385.875 Z M 422.800781 385.875 "/>
<path style=" stroke:none;fill-rule:nonzero;fill:rgb(72.941178%,0%,74.901962%);fill-opacity:1;" d="M 446.46875 458.332031 L 433.316406 464.183594 C 430.121094 465.601562 426.835938 465.078125 425.988281 463.007812 L 396.941406 392.023438 C 396.09375 389.953125 398.003906 387.117188 401.199219 385.695312 L 414.351562 379.84375 C 417.542969 378.425781 420.832031 378.953125 421.675781 381.019531 L 450.722656 452.003906 C 451.570312 454.074219 449.660156 456.910156 446.46875 458.332031 Z M 446.46875 458.332031 "/>
<path style=" stroke:none;fill-rule:nonzero;fill:rgb(72.941178%,0%,74.901962%);fill-opacity:1;" d="M 638.21875 20.738281 L 662.832031 1.089844 L 681.679688 26.753906 L 657.066406 46.402344 Z M 638.21875 20.738281 "/>
<path style=" stroke:none;fill-rule:nonzero;fill:rgb(100%,39.607844%,51.764709%);fill-opacity:1;" d="M 544.960938 181.964844 C 544.960938 169.691406 535.417969 159.746094 523.648438 159.746094 C 511.878906 159.746094 502.335938 169.691406 502.335938 181.964844 C 502.335938 194.238281 511.878906 204.1875 523.648438 204.1875 C 535.417969 204.1875 544.960938 194.238281 544.960938 181.964844 Z M 544.960938 181.964844 "/>
<path style=" stroke:none;fill-rule:nonzero;fill:rgb(24.705882%,23.921569%,33.725491%);fill-opacity:1;" d="M 518.179688 197.78125 C 510.699219 187.59375 512.554688 173.011719 522.324219 165.210938 C 532.097656 157.410156 546.082031 159.347656 553.5625 169.535156 C 561.042969 179.722656 559.1875 194.300781 549.417969 202.101562 C 539.644531 209.886719 525.667969 207.953125 518.179688 197.78125 Z M 552.023438 170.761719 C 545.195312 161.460938 532.425781 159.695312 523.503906 166.816406 C 514.582031 173.9375 512.890625 187.25 519.71875 196.554688 C 526.550781 205.855469 539.320312 207.621094 548.238281 200.5 C 557.148438 193.371094 558.839844 180.066406 552.023438 170.761719 Z M 552.023438 170.761719 "/>
<path style=" stroke:none;fill-rule:nonzero;fill:rgb(24.705882%,23.921569%,33.725491%);fill-opacity:1;" d="M 664.445312 48.144531 L 644.417969 20.878906 L 670.570312 0 L 690.59375 27.265625 Z M 647.136719 21.253906 L 664.804688 45.3125 L 687.878906 26.890625 L 670.210938 2.832031 Z M 647.136719 21.253906 "/>
<path style=" stroke:none;fill-rule:nonzero;fill:rgb(72.941178%,0%,74.901962%);fill-opacity:1;" d="M 691.289062 201 L 715.902344 181.347656 L 734.746094 207.011719 L 710.132812 226.664062 Z M 691.289062 201 "/>
<path style=" stroke:none;fill-rule:nonzero;fill:rgb(24.705882%,23.921569%,33.725491%);fill-opacity:1;" d="M 717.511719 228.40625 L 697.488281 201.136719 L 723.640625 180.257812 L 743.664062 207.527344 Z M 700.207031 201.511719 L 717.875 225.574219 L 740.949219 207.152344 L 723.28125 183.089844 Z M 700.207031 201.511719 "/>
<path style=" stroke:none;fill-rule:nonzero;fill:rgb(24.705882%,23.921569%,33.725491%);fill-opacity:1;" d="M 0.96875 578.765625 L 605.46875 578.765625 L 605.46875 580.785156 L 0.96875 580.785156 Z M 0.96875 578.765625 "/>
<path style=" stroke:none;fill-rule:nonzero;fill:rgb(24.705882%,23.921569%,33.725491%);fill-opacity:1;" d="M 104.625 481.796875 C 53.261719 481.796875 11.625 438.382812 11.625 384.832031 C 11.625 331.277344 53.261719 287.863281 104.625 287.863281 C 155.988281 287.863281 197.625 331.277344 197.625 384.832031 C 197.566406 438.359375 155.964844 481.738281 104.625 481.796875 Z M 104.625 289.886719 C 54.332031 289.886719 13.5625 332.394531 13.5625 384.832031 C 13.5625 437.269531 54.332031 479.777344 104.625 479.777344 C 154.917969 479.777344 195.6875 437.269531 195.6875 384.832031 C 195.628906 332.417969 154.894531 289.945312 104.625 289.886719 Z M 104.625 289.886719 "/>
<path style=" stroke:none;fill-rule:nonzero;fill:rgb(72.941178%,0%,74.901962%);fill-opacity:1;" d="M 358.378906 186.867188 C 358.378906 157.011719 335.167969 132.8125 306.535156 132.8125 C 277.898438 132.8125 254.6875 157.011719 254.6875 186.867188 C 254.6875 216.722656 277.898438 240.925781 306.535156 240.925781 C 335.167969 240.925781 358.378906 216.722656 358.378906 186.867188 Z M 358.378906 186.867188 "/>
<path style=" stroke:none;fill-rule:nonzero;fill:rgb(18.431373%,18.039216%,25.490198%);fill-opacity:1;" d="M 314.164062 206.90625 L 314.109375 204.882812 C 317.714844 204.78125 320.890625 204.542969 323.277344 202.726562 C 324.648438 201.621094 325.492188 199.953125 325.585938 198.152344 C 325.671875 197.046875 325.257812 195.96875 324.46875 195.226562 C 322.882812 193.832031 320.332031 194.285156 318.472656 195.171875 L 316.871094 195.9375 L 319.945312 172.515625 L 321.863281 172.789062 L 319.25 192.714844 C 321.777344 191.941406 324.117188 192.273438 325.71875 193.683594 C 326.96875 194.820312 327.632812 196.5 327.523438 198.222656 C 327.40625 200.644531 326.273438 202.890625 324.421875 204.355469 C 321.355469 206.695312 317.367188 206.8125 314.164062 206.90625 Z M 314.164062 206.90625 "/>
<path style=" stroke:none;fill-rule:nonzero;fill:rgb(18.431373%,18.039216%,25.490198%);fill-opacity:1;" d="M 331.359375 174.507812 L 341.792969 174.507812 L 341.792969 176.527344 L 331.359375 176.527344 Z M 331.359375 174.507812 "/>
<path style=" stroke:none;fill-rule:nonzero;fill:rgb(18.431373%,18.039216%,25.490198%);fill-opacity:1;" d="M 298.421875 174.507812 L 308.855469 174.507812 L 308.855469 176.527344 L 298.421875 176.527344 Z M 298.421875 174.507812 "/>
<path style=" stroke:none;fill-rule:nonzero;fill:rgb(18.431373%,18.039216%,25.490198%);fill-opacity:1;" d="M 380.71875 403.515625 L 258.65625 403.515625 C 256.25 403.515625 254.300781 401.480469 254.296875 398.972656 L 254.296875 296.734375 C 254.324219 270.929688 274.382812 250.015625 299.128906 249.988281 L 339.0625 249.988281 C 341.441406 249.988281 343.378906 251.976562 343.421875 254.457031 L 385.078125 398.898438 L 385.078125 398.972656 C 385.074219 401.480469 383.125 403.515625 380.71875 403.515625 Z M 380.71875 403.515625 "/>
<path style=" stroke:none;fill-rule:nonzero;fill:rgb(72.941178%,0%,74.901962%);fill-opacity:1;" d="M 299.636719 291.355469 L 313.933594 291.472656 C 317.410156 291.503906 320.203125 294.464844 320.183594 298.089844 L 319.246094 422.335938 C 319.214844 425.960938 316.375 428.875 312.898438 428.851562 L 298.601562 428.734375 C 295.125 428.699219 292.332031 425.742188 292.355469 422.117188 L 293.289062 297.867188 C 293.320312 294.242188 296.160156 291.332031 299.636719 291.355469 Z M 299.636719 291.355469 "/>
<path style=" stroke:none;fill-rule:nonzero;fill:rgb(18.431373%,18.039216%,25.490198%);fill-opacity:1;" d="M 285.296875 286.351562 C 285.296875 274.078125 294.839844 264.128906 306.609375 264.128906 C 318.378906 264.128906 327.921875 274.078125 327.921875 286.351562 L 327.921875 335.84375 L 285.296875 335.84375 Z M 285.296875 286.351562 "/>
<path style=" stroke:none;fill-rule:nonzero;fill:rgb(18.431373%,18.039216%,25.490198%);fill-opacity:1;" d="M 291.21875 161.40625 C 296.128906 156.140625 303.261719 155.234375 309.976562 155.808594 C 317.164062 156.421875 323.976562 158.910156 331.027344 160.296875 C 337.984375 161.664062 345.523438 162.273438 352.171875 159.25 C 358.414062 156.324219 362.726562 150.195312 363.527344 143.109375 C 364.382812 135.792969 362.566406 128.40625 358.433594 122.425781 C 353.882812 115.714844 347.414062 110.800781 340.691406 106.679688 C 326.195312 97.789062 310.035156 90.007812 293.074219 88.570312 C 277.765625 87.269531 261.53125 91.683594 250.761719 103.605469 C 240.664062 114.78125 236.367188 130.378906 235.472656 145.398438 C 234.332031 164.566406 238.621094 183.5 240.175781 202.507812 C 241.382812 217.296875 240.929688 235.054688 229.410156 245.675781 C 219.21875 255.070312 203.703125 254.960938 191.6875 249.828125 C 177.410156 243.726562 167.390625 230.03125 159.808594 216.574219 C 157.878906 213.148438 156.066406 209.652344 154.308594 206.128906 C 153.445312 204.398438 150.9375 205.925781 151.796875 207.65625 C 158.890625 221.867188 167.140625 236.0625 179.546875 245.910156 C 190.394531 254.523438 204.871094 258.671875 218.277344 255.03125 C 224.777344 253.339844 230.585938 249.511719 234.839844 244.117188 C 239.4375 238.148438 241.847656 230.800781 242.855469 223.289062 C 243.929688 215.246094 243.554688 207.140625 242.777344 199.085938 C 241.835938 189.394531 240.339844 179.769531 239.3125 170.085938 C 237.566406 153.59375 237.328125 136.480469 243.578125 120.898438 C 246.269531 113.949219 250.457031 107.738281 255.8125 102.738281 C 261.675781 97.585938 268.710938 94.085938 276.242188 92.582031 C 292.667969 89.027344 309.371094 93.839844 324.242188 101.09375 C 331.75 104.589844 338.933594 108.792969 345.707031 113.652344 C 351.710938 118.128906 357.304688 124 359.617188 131.480469 C 361.609375 137.929688 361.441406 145.5625 357.46875 151.183594 C 353.222656 157.195312 345.863281 158.695312 339.113281 158.332031 C 325.253906 157.589844 311.289062 149.191406 297.34375 153.984375 C 294.246094 155.027344 291.4375 156.839844 289.164062 159.265625 C 287.859375 160.664062 289.910156 162.808594 291.21875 161.40625 Z M 291.21875 161.40625 "/>
</g>
</svg>
